<svg id="Layer_9" data-name="Layer 9" xmlns="http://www.w3.org/2000/svg" viewBox="0 0 1025.02627 1025.02627"><defs><style>.cls-1,.cls-12{fill:#fccdd3;}.cls-1{stroke:#fff;stroke-width:13.80046px;}.cls-1,.cls-10,.cls-11,.cls-13,.cls-14,.cls-15,.cls-16,.cls-17,.cls-18,.cls-2,.cls-20,.cls-21,.cls-22,.cls-23,.cls-4,.cls-7{stroke-miterlimit:10;}.cls-10,.cls-2,.cls-20,.cls-21,.cls-22,.cls-23,.cls-4,.cls-5{fill:#fff;}.cls-10,.cls-11,.cls-13,.cls-14,.cls-15,.cls-16,.cls-17,.cls-18,.cls-2,.cls-20,.cls-21,.cls-22,.cls-23,.cls-4,.cls-7{stroke:#6034fd;}.cls-2{stroke-width:6.59134px;}.cls-3{opacity:0.2;}.cls-4{stroke-width:2.8541px;}.cls-6{fill:#cdc9fb;}.cls-11,.cls-13,.cls-14,.cls-15,.cls-16,.cls-17,.cls-7{fill:none;}.cls-7{stroke-width:8.5394px;}.cls-8{fill:#6034fd;}.cls-9{fill:#fef568;}.cls-10,.cls-17{stroke-width:3.11435px;}.cls-11{stroke-width:8px;}.cls-13{stroke-width:11.4965px;}.cls-14{stroke-width:3.82086px;}.cls-15{stroke-width:6.84486px;}.cls-16{stroke-width:8.51489px;}.cls-18{fill:#50d1bb;stroke-width:3.5203px;}.cls-19{fill:#6534ff;}.cls-20{stroke-width:4.01659px;}.cls-21{stroke-width:3.2614px;}.cls-22{stroke-width:2.9102px;}.cls-23{stroke-width:2.62016px;}</style></defs><circle class="cls-1" cx="512.51313" cy="512.51313" r="505.6129"/><path class="cls-2" d="M13216.83871,899.40209s-22.41936,5.26465-34.29032,0-14.19355-60.54929-2.58065-68.6797,30.93549-1.19651,30.93549-1.19651Z" transform="translate(-12964.2288 -487.48687)"/><path class="cls-2" d="M13737.82229,899.40209s23.41935,5.26465,35.29032,0,14.19355-60.54929,2.58065-68.6797-31.93549-1.19651-31.93549-1.19651Z" transform="translate(-12964.2288 -487.48687)"/><ellipse class="cls-3" cx="512.51313" cy="922.90023" rx="194.3241" ry="39.48387"/><path class="cls-4" d="M13703.34823,1201.595c-39.63337,5.27-76.33977.18681-110.12725-17.372l6.273-39.7663c37.94217,14.61709,74.45665,21.01678,110.12725,17.372Z" transform="translate(-12964.2288 -487.48687)"/><path class="cls-5" d="M13658.137,1392.24014c18.94794-.40583,11.83784-78.33968,49.542-183.1865,20.65906-57.44821,53.97561-113.25523,68.38876-136.15619a9.91327,9.91327,0,0,0-5.46246-14.7494l-43.83462-13.57659a9.91153,9.91153,0,0,0-12.23823,6.04208c-18.91577,51.4891-46.5711,115.64616-57.14446,160.69235C13630.0666,1327.70464,13639.1891,1392.646,13658.137,1392.24014Z" transform="translate(-12964.2288 -487.48687)"/><path class="cls-6" d="M13658.137,1392.24014s-19.76373-47.46593,17.80946-185.34176c45.927-168.53045,73.25837-155.37855,73.25837-155.37855l-22.43415-6.94837a9.91153,9.91153,0,0,0-12.23823,6.04208c-18.91577,51.4891-46.5711,115.64616-57.14446,160.69235C13630.0666,1327.70464,13639.1891,1392.646,13658.137,1392.24014Z" transform="translate(-12964.2288 -487.48687)"/><circle class="cls-4" cx="396.96465" cy="699.13504" r="59.94831"/><path class="cls-7" d="M13658.137,1392.24014c18.94794-.40583,11.83784-78.33968,49.542-183.1865,20.65906-57.44821,53.97561-113.25523,68.38876-136.15619a9.91327,9.91327,0,0,0-5.46246-14.7494l-43.83462-13.57659a9.91153,9.91153,0,0,0-12.23823,6.04208c-18.91577,51.4891-46.5711,115.64616-57.14446,160.69235C13630.0666,1327.70464,13639.1891,1392.646,13658.137,1392.24014Z" transform="translate(-12964.2288 -487.48687)"/><path class="cls-8" d="M13722.40541,1038.51377s-24.3992-15.82151,8.92126-67.39345c39.271-60.78189,105.53348-41.08127,105.53348-41.08127a116.04646,116.04646,0,0,0-17.36524,40.70152c-5.184,24.18539,3.00832,43.57418-4.94851,63.55186s-32.91089,25.6444-32.91089,25.6444Z" transform="translate(-12964.2288 -487.48687)"/><path class="cls-9" d="M13805.14948,975.67938l-35.76189,15.34788c5.39965-25.27843,28.6804-43.33878,58.28317-58.84709-30.18251-1.99017-69.46661,21.781-84.67821,46.28862s-16.85592,47.02356-16.85592,47.02356c7.4153-15.62812,17.749-28.33569,31.26973-37.854-8.36875,20.20261-14.53414,38.06294-8.14817,56.43683C13758.207,1019.47281,13771.7307,992.76556,13805.14948,975.67938Z" transform="translate(-12964.2288 -487.48687)"/><path class="cls-9" d="M13812.20015,989.989a85.22406,85.22406,0,0,0-2.64024,15.73223c-.36488,8.76357,1.1907,17.09666-.28577,26.37531-2.67757,16.82669-34.84411,26.99389-37.65282,20.6744s15.32645-16.30772,21.348-24.51755S13812.20015,989.989,13812.20015,989.989Z" transform="translate(-12964.2288 -487.48687)"/><path class="cls-10" d="M13629.1043,1279.11247a337.2125,337.2125,0,0,1-1.88634,35.74322s-74.50781-22.146-150.472-22.146c-75.93783,0-150.46,22.25865-150.46,22.25865a337.1865,337.1865,0,0,1-1.89837-35.85586c0-125.09273,68.21316-226.50043,152.35836-226.50043S13629.1043,1154.01974,13629.1043,1279.11247Z" transform="translate(-12964.2288 -487.48687)"/><ellipse class="cls-5" cx="13599.3667" cy="1374.83068" rx="26.70968" ry="52.25806" transform="translate(-13033.23366 794.86213) rotate(-5.38505)"/><ellipse class="cls-5" cx="13365.26346" cy="1374.83068" rx="52.25806" ry="26.70968" transform="translate(-2222.03909 14064.59356) rotate(-84.61495)"/><path class="cls-6" d="M13625.9585,1372.324c2.70859,28.734-7.00121,53.14969-21.68745,54.53408-9.82291-10.66455-12.92613-29.472-12.43234-39.30971,1.54336-30.74787,22.04909-56.0176,28.11271-40.89625A93.043,93.043,0,0,1,13625.9585,1372.324Z" transform="translate(-12964.2288 -487.48687)"/><path class="cls-6" d="M13341.6705,1372.324c-2.70859,28.734,7.00121,53.14969,21.68745,54.53408,9.82291-10.66455,12.92614-29.472,12.43234-39.30971-1.54336-30.74787-22.04909-56.0176-28.11271-40.89625A93.043,93.043,0,0,0,13341.6705,1372.324Z" transform="translate(-12964.2288 -487.48687)"/><ellipse class="cls-11" cx="13599.3667" cy="1374.83068" rx="26.70968" ry="52.25806" transform="translate(-13033.23366 794.86213) rotate(-5.38505)"/><ellipse class="cls-11" cx="13365.26346" cy="1374.83068" rx="52.25806" ry="26.70968" transform="translate(-2222.03909 14064.59356) rotate(-84.61495)"/><circle class="cls-5" cx="512.51313" cy="357.7712" r="264.03226"/><path class="cls-6" d="M13720.57562,946.718c-39.76025,95.46-133.96,162.57006-243.83008,162.57006s-204.06982-67.1101-243.84033-162.57006c49.91016,64,140.44043,106.78,243.84033,106.78C13580.13568,1053.49805,13670.66546,1010.718,13720.57562,946.718Z" transform="translate(-12964.2288 -487.48687)"/><path class="cls-12" d="M13241.70119,903.03207c7.792-4.06471,22.00238,35.3117,62.493,75.8339,30.42762,30.45132,83.38556,61.3068,116.97846,76.20731,0,0-88.62423-16.35478-125.5399-50.18776C13258.46714,970.82342,13228.05374,910.15129,13241.70119,903.03207Z" transform="translate(-12964.2288 -487.48687)"/><circle class="cls-13" cx="512.51313" cy="357.7712" r="264.03226"/><path class="cls-14" d="M13740.77419,839.80013s-118.21126,29.164-264.03225,29.164-264.03226-29.164-264.03226-29.164" transform="translate(-12964.2288 -487.48687)"/><path class="cls-15" d="M13740.77419,834.3053s-118.21126-93.59562-264.03225-93.59562-264.03226,93.59562-264.03226,93.59562" transform="translate(-12964.2288 -487.48687)"/><path class="cls-16" d="M13740.77419,834.3053s-34.06523-113.19314-199.54033-137.16789c0,0-18.53021-16.34653-28.75539-26.5717a467.10677,467.10677,0,0,1-35.73653-39.91385,467.10866,467.10866,0,0,1-35.73654,39.91385c-10.22518,10.22517-28.94506,26.59922-28.94506,26.59922-165.31146,24.03373-199.35066,137.14037-199.35066,137.14037" transform="translate(-12964.2288 -487.48687)"/><ellipse class="cls-8" cx="512.51313" cy="208.09378" rx="8.51613" ry="13.16129"/><ellipse class="cls-8" cx="545.25511" cy="310.28733" rx="8.51613" ry="13.16129"/><path class="cls-5" d="M13326.27994,1315.12866s23.65768,54.77457,150.46,54.77457,150.472-54.49739,150.472-54.49739v-1.55015s-74.50781-22.146-150.472-22.146c-75.93782,0-150.46,22.25865-150.46,22.25865Z" transform="translate(-12964.2288 -487.48687)"/><path class="cls-6" d="M13326.27994,1315.12866s23.65768,54.77457,150.46,54.77457,150.472-54.49739,150.472-54.49739v-1.55015s-77.56693,28.02377-153.53114,28.02377c-75.93782,0-147.40087-27.91113-147.40087-27.91113Z" transform="translate(-12964.2288 -487.48687)"/><path class="cls-17" d="M13326.27994,1315.12866s23.65768,54.77457,150.46,54.77457,150.472-54.49739,150.472-54.49739v-1.55015s-74.50781-22.146-150.472-22.146c-75.93782,0-150.46,22.25865-150.46,22.25865Z" transform="translate(-12964.2288 -487.48687)"/><ellipse class="cls-12" cx="13518.00004" cy="823.6929" rx="6.55018" ry="10.123" transform="translate(-4917.68618 12724.82778) rotate(-69.65816)"/><ellipse class="cls-12" cx="13436.19359" cy="823.6929" rx="10.123" ry="6.55018" transform="translate(-12412.6174 4234.57876) rotate(-20.34184)"/><ellipse class="cls-8" cx="480.31967" cy="310.28733" rx="8.51613" ry="13.16129"/><path class="cls-8" d="M13449.74194,696.58065c0,7.26878.05374,12.16129-3.58065,12.16129s-9.58064-4.89251-9.58064-12.16129,5.94625-14.1613,9.58064-14.1613S13449.74194,689.31187,13449.74194,696.58065Z" transform="translate(-12964.2288 -487.48687)"/><path class="cls-8" d="M13501.22585,696.58065c0,7.26878-.05374,12.16129,3.58065,12.16129s9.58064-4.89251,9.58064-12.16129-5.94625-14.1613-9.58064-14.1613S13501.22585,689.31187,13501.22585,696.58065Z" transform="translate(-12964.2288 -487.48687)"/><path class="cls-8" d="M13483.13692,830.20126a18.50677,18.50677,0,0,1-4.38574,2.9084,9.60632,9.60632,0,0,1-3.94607.8569c-2.88652,0-5.75474-1.51085-8.32887-3.7653a3.07276,3.07276,0,0,0-4.24264,0,3.02788,3.02788,0,0,0,0,4.24264c3.52514,3.08734,7.75728,5.5226,12.57151,5.52266,4.81536.00007,9.0479-2.43561,12.57445-5.52266a3,3,0,0,0-4.24264-4.24264Z" transform="translate(-12964.2288 -487.48687)"/><path class="cls-5" d="M13422.279,1298.62624a7.88345,7.88345,0,0,1-3.4736,5.85372l-75.66686,49.97813a7.40855,7.40855,0,0,1-9.27885-.85993l-65.16142-73.92664a7.8753,7.8753,0,0,1-2.3424-6.39272l11.29883-100.74054a7.69285,7.69285,0,0,1,8.269-7.0659l140.885,2.15959a7.68973,7.68973,0,0,1,6.82589,8.46482Z" transform="translate(-12964.2288 -487.48687)"/><path class="cls-18" d="M13452.15619,1153.09851c-55.24019-17.66665-128.79541-22.16736-182.36573-10.901-6.04183,1.423-10.1748,7.46924-10.6748,12.86389-5.41748,37.29224-10.355,78.03381-14.28564,124.14465a9.80664,9.80664,0,0,0,3.05078,8.05347c24.78418,33.25916,53.13281,66.43372,84.59521,99.53406a9.81431,9.81431,0,0,0,12.0127,1.11328c31.25341-24.69849,63.5625-46.37952,97.7705-62.63306a9.8142,9.8142,0,0,0,4.4751-7.35608c.58545-47.16272,5.94385-99.14636,14.28565-154.14465A9.812,9.812,0,0,0,13452.15619,1153.09851Zm-31.14453,145.1615a7.15721,7.15721,0,0,1-3.26514,5.36462c-28.12842,14.83313-50.436,30.19629-71.32178,45.68909a7.15592,7.15592,0,0,1-8.76318-.81213,460.79253,460.79253,0,0,1-61.707-68.0177,7.14955,7.14955,0,0,1-2.22751-5.87369l10.42072-94.44238a13.27287,13.27287,0,0,1,7.79019-10.46543c45.7246-11.02868,90.02929-3.92138,133.0288,8.32849a7.156,7.156,0,0,1,6.46582,7.78675C13424.55267,1226.37183,13420.395,1264.47,13421.01166,1298.26Z" transform="translate(-12964.2288 -487.48687)"/><path class="cls-19" d="M13304.02574,1214.135c-.12,1.47674-.21264,2.95476-.37112,4.42837-.092.85047.07607,1.32434,1.0674,1.3872,2.77687.17534,5.54876.44073,8.3217.65306a2.16948,2.16948,0,0,0,2.5553-2.1125c.25426-2.176.44559-4.36356.53551-6.55427a2.21577,2.21577,0,0,0-2.28348-2.57993c-2.65779-.18337-5.31574-.38775-7.96574-.65537-1.09474-.11-1.50054.29909-1.54111,1.3547-.05353,1.36417-.208,2.71966-.31846,4.07874m-4.44518,5.13656c.36072-4.43806.76641-8.873,1.053-13.317.08174-1.28681.412-1.72484,1.788-1.58083,4.01156.4221,8.03959.68189,12.06016,1.01613a5.96717,5.96717,0,0,1,5.67527,6.29626c-.11344,2.54876-.31754,5.1-.62221,7.63225a5.93731,5.93731,0,0,1-6.32588,5.26534c-2.72353-.15469-5.45085-.34885-8.15853-.6757-1.3742-.16532-1.73913.29741-1.8,1.591-.12505,2.60564-.35427,5.21354-.65582,7.80484-.12662,1.099-.63165,2.07488-2.0083,2.08888a1.98419,1.98419,0,0,1-2.09023-1.57291,4.19789,4.19789,0,0,1,.02055-1.41162q.52341-6.569,1.064-13.13664" transform="translate(-12964.2288 -487.48687)"/><path class="cls-19" d="M13390.29936,1221.21994c-.12,1.47627-.20261,2.95744-.37611,4.42656-.10678.93507.24218,1.26,1.1485,1.31873,2.71726.18028,5.43278.422,8.14546.64713a2.22419,2.22419,0,0,0,2.67227-2.18039c.2431-2.17641.44438-4.366.52286-6.55344a2.21954,2.21954,0,0,0-2.35626-2.51637c-2.59894-.16741-5.19894-.36754-7.7883-.64142-1.15995-.12225-1.62365.26484-1.657,1.42082-.03756,1.36266-.20093,2.71884-.31143,4.07838m-4.43893,5.00791c.36069-4.43761.77815-8.87387,1.05063-13.31631.08311-1.37249.55167-1.64728,1.84293-1.51714,4.0115.40578,8.04015.67494,12.06042,1.01289a5.96754,5.96754,0,0,1,5.61523,6.3464c-.11923,2.48814-.3253,4.97762-.60218,7.45483a5.9526,5.9526,0,0,1-6.39819,5.38628q-4.1727-.24963-8.33689-.68415c-1.07892-.1096-1.472.21235-1.53547,1.30248-.14313,2.54682-.35332,5.09285-.61653,7.63131-.14037,1.35991-.52417,2.69724-2.31,2.5311-1.56694-.146-2.00635-1.19355-1.87762-2.657.39557-4.494.74209-8.99243,1.1077-13.49071" transform="translate(-12964.2288 -487.48687)"/><path class="cls-19" d="M13344.02583,1223.39225a7.3313,7.3313,0,0,0-.22582-1.74217c-1.18555-3.10011-2.38442-6.19711-3.67371-9.25436-.56231-1.33123-1.61208-1.40349-2.38915-.15549-1.68869,2.71729-3.29237,5.49-4.88454,8.26454a4.94624,4.94624,0,0,0-.163,4.46067c1.06984,2.69949,2.16541,5.39222,3.24621,8.08888.24784.61652.49565,1.27359,1.27814,1.30128.67322.024,1.01827-.49822,1.336-1.02259,1.56707-2.58636,3.14922-5.16309,4.71611-7.74714a5.32867,5.32867,0,0,0,.75975-2.19362m-15.7128-1.23048a5.74411,5.74411,0,0,1,.66127-2.97844c1.90827-3.279,3.71872-6.628,5.86-9.75054a5.16959,5.16959,0,0,1,8.9888,1.06212c1.30215,3.117,2.51233,6.27557,3.73978,9.42245a8.22438,8.22438,0,0,1-.54494,7.36436c-1.55765,2.72841-3.20222,5.40778-4.79182,8.11633-1.21226,2.06453-2.86658,3.26315-5.38773,2.97057a5.37485,5.37485,0,0,1-4.64778-3.83287c-1.03781-2.71508-2.13893-5.40266-3.24613-8.08981a7.62006,7.62006,0,0,1-.63144-4.28417" transform="translate(-12964.2288 -487.48687)"/><path class="cls-19" d="M13367.69254,1219.82452c-.15451-.00929-.30342-.0186-.45983-.02758-.69316,1.799-1.42943,3.58325-2.06739,5.403-.519,1.48626-2.17313,3.3997-1.21044,4.35408.93963.92825,3.24015.47038,4.9405.64448.74161.07753.903-.15834.74283-.89549-.68282-3.153-1.30123-6.318-1.94567-9.47852m5.8317,21.50163c-1.17934-.073-1.5952-.90554-1.8201-1.87875a33.88612,33.88612,0,0,1-.77639-3.82595c-.12391-1.06852-.63645-1.37129-1.61117-1.42626q-3.10646-.17626-6.20377-.50517a1.39306,1.39306,0,0,0-1.7193,1.07444c-.43982,1.28661-1.0361,2.519-1.4735,3.81a1.86605,1.86605,0,0,1-2.62136,1.36482c-1.434-.48445-1.60878-1.67926-1.15163-2.915,1.10352-2.99845,2.30263-5.96255,3.45629-8.94108q3.17893-8.19333,6.35158-16.38952c.32313-.84334.65914-1.75324,1.66611-1.90593a1.96032,1.96032,0,0,1,2.54276,1.58731q2.78894,13.74635,5.55843,27.49671a1.9576,1.9576,0,0,1-2.19795,2.45441" transform="translate(-12964.2288 -487.48687)"/><path class="cls-19" d="M13303.54058,1264.065a7.21672,7.21672,0,0,1-3.73814-1.33663,7.45757,7.45757,0,0,1-2.44183-3.01245,8.09322,8.09322,0,0,1-.6603-4.0725,7.87978,7.87978,0,0,1,1.35318-3.93589,7.568,7.568,0,0,1,3.02418-2.56911,7.83454,7.83454,0,0,1,4.07361-.70263,7.69834,7.69834,0,0,1,3.865,1.34787,7.61559,7.61559,0,0,1,2.55525,3.02259,8.10837,8.10837,0,0,1,.72852,4.10509l-.99221.37258a7.53867,7.53867,0,0,1-1.24583,3.6765,7.10248,7.10248,0,0,1-2.7722,2.43478A7.02378,7.02378,0,0,1,13303.54058,1264.065Zm.51351-2.13577a5.36845,5.36845,0,0,0,2.842-.50571,5.179,5.179,0,0,0,2.10452-1.867,6.36479,6.36479,0,0,0,.47175-5.8041,5.48042,5.48042,0,0,0-7.34065-2.63239,5.5439,5.5439,0,0,0-2.13258,1.86243,6.15,6.15,0,0,0-.47175,5.80409,5.33823,5.33823,0,0,0,4.52669,3.14272Zm6.41325,2.55749a1.211,1.211,0,0,1-.84546-.39465,1.12894,1.12894,0,0,1-.26672-.88335l.377-4.63771.73513-2.43016,1.83279.77051-.52781,6.49382a1.10634,1.10634,0,0,1-.42208.82736A1.22332,1.22332,0,0,1,13310.46734,1264.48668Z" transform="translate(-12964.2288 -487.48687)"/><path class="cls-19" d="M13321.67861,1252.55248a1.13872,1.13872,0,0,1-.76519-.34383.948.948,0,0,1-.249-.75695.98966.98966,0,0,1,.369-.71932,1.09551,1.09551,0,0,1,.812-.23195l6.94221.56425a1.09111,1.09111,0,0,1,.762.35989.989.989,0,0,1,.24846.7695.94676.94676,0,0,1-.36845.70677,1.13319,1.13319,0,0,1-.80882.21589Zm5.70907,13.30946a4.892,4.892,0,0,1-4.21162-3.00335,5.82988,5.82988,0,0,1-.435-2.83395l1.108-13.63244a1.21567,1.21567,0,0,1,.39372-.84553,1.247,1.247,0,0,1,1.70047.13821,1.18888,1.18888,0,0,1,.26683.89922l-1.108,13.63243a3.14393,3.14393,0,0,0,.59519,2.24034,2.52239,2.52239,0,0,0,1.88327,1.01568l.81526.06626a1.02253,1.02253,0,0,1,.75852.403,1.23815,1.23815,0,0,1,.23868.89553,1.0697,1.0697,0,0,1-.44988.82511,1.44631,1.44631,0,0,1-.99628.24495l-.55912-.04545Z" transform="translate(-12964.2288 -487.48687)"/><path class="cls-19" d="M13340.13226,1260.81522a1.15814,1.15814,0,0,1-1.1113-1.30591l1.09654-13.49115a1.16773,1.16773,0,0,1,.40956-.85683,1.20827,1.20827,0,0,1,.898-.25247,1.15894,1.15894,0,0,1,.8316.393,1.198,1.198,0,0,1,.25145.91056l-1.09654,13.49115a1.21223,1.21223,0,0,1-.39418.8455A1.14448,1.14448,0,0,1,13340.13226,1260.81522Zm-.49113,6.04266a1.21553,1.21553,0,0,1-.84546-.39465,1.1332,1.1332,0,0,1-.26811-.88346l1.05543-12.98533a1.16956,1.16956,0,0,1,.40959-.8573,1.2122,1.2122,0,0,1,.89806-.25246,1.16255,1.16255,0,0,1,.8316.393,1.19913,1.19913,0,0,1,.25141.911l-1.05543,12.98533a1.116,1.116,0,0,1-1.27709,1.0838Zm11.919.96876a1.17548,1.17548,0,0,1-.84479-.40858,1.15172,1.15172,0,0,1-.26923-.86957l.58258-7.1678a5.44327,5.44327,0,0,0-.41651-2.84969,4.153,4.153,0,0,0-1.59921-1.75682,5.58513,5.58513,0,0,0-2.44409-.7358,5.46421,5.46421,0,0,0-2.40309.31432,4.19046,4.19046,0,0,0-1.79875,1.25449,3.48459,3.48459,0,0,0-.78451,1.98785l-1.6018-.13019a5.96385,5.96385,0,0,1,1.17054-3.08859,6.433,6.433,0,0,1,2.55477-2.01416,6.82118,6.82118,0,0,1,3.38238-.54527,7.46416,7.46416,0,0,1,3.48679,1.119,6.05484,6.05484,0,0,1,2.26248,2.63184,7.9513,7.9513,0,0,1,.5812,4.00732l-.58259,7.1678a1.15923,1.15923,0,0,1-1.27617,1.08388Z" transform="translate(-12964.2288 -487.48687)"/><path class="cls-19" d="M13370.126,1269.47691a7.95792,7.95792,0,0,1-3.95053-1.33943,7.39605,7.39605,0,0,1-2.54221-3.00522,8.57833,8.57833,0,0,1,.65582-8.06876,7.37782,7.37782,0,0,1,2.99431-2.55708,7.96267,7.96267,0,0,1,4.115-.68389,7.82187,7.82187,0,0,1,3.9093,1.33609,7.41591,7.41591,0,0,1,2.52862,3.006,8.22541,8.22541,0,0,1,.70916,4.131,7.98279,7.98279,0,0,1-1.33857,3.93988,7.36359,7.36359,0,0,1-2.99554,2.55512A7.89046,7.89046,0,0,1,13370.126,1269.47691Zm.17582-2.16321a5.42544,5.42544,0,0,0,2.87121-.50334,5.12893,5.12893,0,0,0,2.08884-1.852,6.06848,6.06848,0,0,0,.92489-2.85444,6.15071,6.15071,0,0,0-.4508-2.97838,5.11259,5.11259,0,0,0-1.76111-2.1803,5.79576,5.79576,0,0,0-5.62019-.4568,5.30234,5.30234,0,0,0-2.11973,1.86487,5.95084,5.95084,0,0,0-.95274,2.8643,5.873,5.873,0,0,0,.47866,2.96852,5.33592,5.33592,0,0,0,1.792,2.16742A5.41816,5.41816,0,0,0,13370.3018,1267.3137Z" transform="translate(-12964.2288 -487.48687)"/><path class="cls-19" d="M13388.96989,1270.86725a1.205,1.205,0,0,1-.8436-.3945,1.12818,1.12818,0,0,1-.26811-.88347l1.05543-12.98532a1.16268,1.16268,0,0,1,.4096-.8573,1.20778,1.20778,0,0,1,.89619-.25262,1.16219,1.16219,0,0,1,.83206.39309,1.19539,1.19539,0,0,1,.25141.911l-1.05543,12.98533a1.1538,1.1538,0,0,1-.3929.82974A1.16613,1.16613,0,0,1,13388.96989,1270.86725Zm11.91761.96864a1.17478,1.17478,0,0,1-.84293-.40843,1.15248,1.15248,0,0,1-.26924-.86957l.58259-7.1678a5.41548,5.41548,0,0,0-.41929-2.84992,4.12088,4.12088,0,0,0-1.596-1.75655,5.581,5.581,0,0,0-2.445-.73588,5.4498,5.4498,0,0,0-2.39985.31459,4.20032,4.20032,0,0,0-1.802,1.25423,3.49012,3.49012,0,0,0-.78313,1.988l-1.6018-.13019a5.9616,5.9616,0,0,1,1.16775-3.08882,6.43933,6.43933,0,0,1,2.5557-2.01408,6.83311,6.83311,0,0,1,3.38517-.545,7.49165,7.49165,0,0,1,3.48911,1.11916,6.05452,6.05452,0,0,1,2.25878,2.63153,7.95131,7.95131,0,0,1,.58212,4.0074l-.58259,7.1678a1.14087,1.14087,0,0,1-.408.81452A1.15255,1.15255,0,0,1,13400.8875,1271.83589Z" transform="translate(-12964.2288 -487.48687)"/><circle class="cls-8" cx="771.48088" cy="208.09378" r="13.16129"/><circle class="cls-8" cx="253.93249" cy="208.09378" r="13.16129"/><polygon class="cls-8" points="761.417 269.468 767.223 208.094 775.545 208.094 773.803 302.965 761.417 269.468"/><polygon class="cls-8" points="262.605 269.468 256.799 208.094 248.476 208.094 250.218 302.965 262.605 269.468"/><path class="cls-12" d="M13704.72894,768.55781c-30.73291-76.13434-89.41016-126.808-172.90332-154.225,0,0,65.91259-6.9551,123.35517,52.61205S13704.72894,768.55781,13704.72894,768.55781Z" transform="translate(-12964.2288 -487.48687)"/><path class="cls-6" d="M13442.97357,736.72273c-82.76367,9.49206-154.74609,39.42071-216.2998,83.03747,0,0,24.77784-38.79246,89.423-63.66343C13393.33,726.38279,13442.97357,736.72273,13442.97357,736.72273Z" transform="translate(-12964.2288 -487.48687)"/><path class="cls-6" d="M13377.635,612.79269c-68.03292,48.07751-116.79375,108.90164-149.83306,176.72262,0,0,3.10034-45.92586,47.85491-98.78975C13329.12625,627.56771,13377.635,612.79269,13377.635,612.79269Z" transform="translate(-12964.2288 -487.48687)"/><ellipse class="cls-20" cx="746.46061" cy="704.23331" rx="13.5962" ry="18.83868"/><path class="cls-21" d="M13720.319,1189.52666c0,5.1309-6.99315,8.116-17.03226,8.116s-19.32258-2.9851-19.32258-8.116,8.13831-6.91553,18.17742-6.91553S13720.319,1184.39575,13720.319,1189.52666Z" transform="translate(-12964.2288 -487.48687)"/><path class="cls-22" d="M13720.56486,1201.06231c.87712,4.49358-5.53927,9.52758-14.3314,11.24374s-16.6306-.53537-17.50771-5.02895,7.12991-6.61492,15.922-8.33109S13719.68774,1196.56873,13720.56486,1201.06231Z" transform="translate(-12964.2288 -487.48687)"/><path class="cls-23" d="M13718.70429,1180.27228c-1.11506,3.9684-6.29442,4.52057-14.059,2.33885s-15.174-6.27116-14.059-10.23956,8.31342-5.4168,16.078-3.23508S13719.81935,1176.30388,13718.70429,1180.27228Z" transform="translate(-12964.2288 -487.48687)"/></svg>