<svg xmlns="http://www.w3.org/2000/svg" xmlns:xlink="http://www.w3.org/1999/xlink" viewBox="0 0 1001.18396 1263.5476"><defs><style>.cls-1{fill:#fff;}.cls-2,.cls-3{fill:#fccdd3;}.cls-2{stroke:#6034fd;}.cls-10,.cls-14,.cls-2,.cls-5,.cls-6,.cls-7{stroke-miterlimit:10;}.cls-2,.cls-6,.cls-7{stroke-width:10.71784px;}.cls-4{fill:#cdc9fb;}.cls-10,.cls-14,.cls-5,.cls-7{fill:none;}.cls-5{stroke:#5cbeff;}.cls-10,.cls-5{stroke-width:13.6426px;}.cls-13,.cls-6{fill:#fffeff;}.cls-6,.cls-7{stroke:#fccdd3;}.cls-8{fill:#5cbeff;}.cls-9{fill:#fef568;}.cls-10{stroke:#602ffd;}.cls-11{fill:#6733ff;}.cls-12{fill:#50d1bb;}.cls-14{stroke:#6733ff;stroke-width:65.08213px;}.cls-15{mask:url(#mask);}.cls-16{fill:#6534ff;}</style><mask id="mask" x="313.18724" y="750.98094" width="375.5034" height="375.98923" maskUnits="userSpaceOnUse"><g transform="translate(-9844.87266 -375.17997)"><g id="SVGID"><polygon class="cls-1" points="10158.06 1126.162 10533.563 1126.162 10533.563 1502.15 10158.06 1502.15 10158.06 1126.162"/></g></g></mask></defs><g id="Layer_4" data-name="Layer 4"><path class="cls-2" d="M10323.75959,1373.84744l185.3463,255.89478c4.51891,6.23895,13.43893,3.95913,13.31706-3.40365l-1.4606-88.24682a6.66029,6.66029,0,0,1,9.094-6.58681l83.392,28.90333c6.95773,2.41152,11.90518-5.35295,7.38626-11.5919l-185.34629-255.89478c-2.6347-3.63754-7.36939-4.704-10.57523-2.382l-100.11934,72.5171C10321.5879,1365.37874,10321.1249,1370.20991,10323.75959,1373.84744Z" transform="translate(-9844.87266 -375.17997)"/><path class="cls-2" d="M10362.9757,1375.97291l-183.84549,253.82275c-4.48233,6.18843-13.38626,3.8864-13.29306-3.4368l1.11706-87.77254a6.68963,6.68963,0,0,0-9.09394-6.5868l-83.04851,28.429c-6.92906,2.37195-11.89259-5.37032-7.41026-11.55875L10251.247,1295.047c2.61336-3.60809,7.33075-4.65066,10.53659-2.32864l100.11933,72.51711C10365.10875,1367.55753,10365.58906,1372.36482,10362.9757,1375.97291Z" transform="translate(-9844.87266 -375.17997)"/><circle class="cls-3" cx="500.93852" cy="500.24543" r="467.70437"/><g id="Layer_6" data-name="Layer 6"><path class="cls-1" d="M10002.16011,1198.76167c-16.79532-25.19309,91.80061-87.14544,194.67236-232.41547,56.366-79.59712,99.00742-174.27487,115.82778-214.098a15.83749,15.83749,0,0,1,24.317-6.33173l57.87006,45.00865a15.83472,15.83472,0,0,1,3.27607,21.55738c-50.15368,71.86409-108.91062,166.76128-158.25273,221.805C10112.37127,1176.5197,10018.95543,1223.95477,10002.16011,1198.76167Z" transform="translate(-9844.87266 -375.17997)"/><path class="cls-4" d="M10002.16011,1198.76167s80.25378-17.51456,226.51361-192.81642c178.77852-214.2776,136.55623-238.05516,136.55623-238.05516l29.61736,23.035a15.83472,15.83472,0,0,1,3.27607,21.55738c-50.15368,71.86409-108.91062,166.76128-158.25273,221.805C10112.37127,1176.5197,10018.95543,1223.95477,10002.16011,1198.76167Z" transform="translate(-9844.87266 -375.17997)"/><path class="cls-5" d="M10002.16011,1198.76167c-16.79532-25.19309,91.80061-87.14544,194.67236-232.41547,56.366-79.59712,99.00742-174.27487,115.82778-214.098a15.83749,15.83749,0,0,1,24.317-6.33173l57.87006,45.00865a15.83472,15.83472,0,0,1,3.27607,21.55738c-50.15368,71.86409-108.91062,166.76128-158.25273,221.805C10112.37127,1176.5197,10018.95543,1223.95477,10002.16011,1198.76167Z" transform="translate(-9844.87266 -375.17997)"/><path class="cls-6" d="M9933.08867,655.23071s171.01926,157.91749,188.51446,166.66509,75.10419-31.25346,100.77232-20.99424c29.55253,11.81177,46.48437,18.35864,46.18733,32.19116s-20.99425,58.81325-20.99425,58.81325,91.5371,52.07245,93.77425,61.5537c7.348,31.14145-26.5927,44.7877-26.5927,44.7877s6.99808,6.065,3.88455,17.26192-18.81378,31.25809-30.47724,34.52386-19.59472,0-19.59472,0c.0001,19.59458-23.09352,37.08975-29.6251,38.95593a37.89273,37.89273,0,0,1-13.52962.93308c-.32573,10.21432-9.14784,24.85008-23.84362,22.05082s-88.21248-57.86648-90.3119-64.86455a15.04256,15.04256,0,0,1,1.953-12.47109s-73.71309-57.38424-83.97693-69.98078-3.27706-27.08423-14.4627-39.18923-162.669-23.79523-162.669-23.79523Z" transform="translate(-9844.87266 -375.17997)"/><path class="cls-4" d="M10113.20543,1034.63737s-73.71309-57.38424-83.97693-69.98078-3.27706-27.08423-14.4627-39.18923c0,0,15.02837,3.22869,26.27908,29.24043C10054.108,984.90976,10113.20543,1034.63737,10113.20543,1034.63737Z" transform="translate(-9844.87266 -375.17997)"/><path class="cls-4" d="M9933.08867,655.23071s-21.39431,123.87057-13.81035,177.82716c8.79415,62.5665,82.88179,62.39953,95.48748,92.40949-11.18563-12.105-162.669-23.79523-162.669-23.79523Z" transform="translate(-9844.87266 -375.17997)"/><path class="cls-4" d="M10209.708,1109.83186s-13.0725-10.96366-56.69386-40.82212-35.73631-40.50881-35.73631-40.50881c-31.212,17.18188,42.7527,60.605,85.88921,82.03076Z" transform="translate(-9844.87266 -375.17997)"/><path class="cls-7" d="M9933.08867,655.23071s171.01926,157.91749,188.51446,166.66509,75.10419-31.25346,100.77232-20.99424c29.55253,11.81177,46.48437,18.35864,46.18733,32.19116s-20.99425,58.81325-20.99425,58.81325,91.5371,52.07245,93.77425,61.5537c7.348,31.14145-26.5927,44.7877-26.5927,44.7877s6.99808,6.065,3.88455,17.26192-18.81378,31.25809-30.47724,34.52386-19.59472,0-19.59472,0c.0001,19.59458-23.09352,37.08975-29.6251,38.95593a37.89273,37.89273,0,0,1-13.52962.93308c-.32573,10.21432-9.14784,24.85008-23.84362,22.05082s-88.21248-57.86648-90.3119-64.86455a15.04256,15.04256,0,0,1,1.953-12.47109s-73.71309-57.38424-83.97693-69.98078-3.27706-27.08423-14.4627-39.18923-162.669-23.79523-162.669-23.79523Z" transform="translate(-9844.87266 -375.17997)"/><path class="cls-8" d="M10406.7748,791.10426s43.03819,17.49519,80.128-73.31492c43.71349-107.0274-42.68827-175.81667-42.68827-175.81667s-10.49715,31.06073-37.43973,59.96816-59.83356,35.90551-78.72837,64.59763-3.499,66.56411-3.499,66.56411Z" transform="translate(-9844.87266 -375.17997)"/><path class="cls-9" d="M10413.4231,625.24978l12.5966,60.8833c28.17727-30.18946,30.54741-77.20277,23.79318-130.16425,30.20756,37.71945,34.9905,110.91954,16.7955,153.25791s-46.18742,65.08214-46.18742,65.08214c13.69207-24.00526,20.88943-49.163,20.99448-75.57926-18.8128,29.43743-36.57206,53.84654-66.4817,62.28287C10398.97982,726.79175,10421.59985,684.65318,10413.4231,625.24978Z" transform="translate(-9844.87266 -375.17997)"/><path class="cls-9" d="M10388.2299,629.09875s-9.12735,10.93713-18.195,17.8451c-11.14669,8.49183-23.48562,14.0742-34.29058,24.49327-19.59462,18.89481-3.499,70.33068,7.348,68.23126s7.348-34.99039,12.59654-50.38616S10388.2299,629.09875,10388.2299,629.09875Z" transform="translate(-9844.87266 -375.17997)"/><path class="cls-7" d="M10208.3793,827.49426s-43.38809,77.8436-43.38809,87.20854,48.98655,41.5561,58.78386,33.85821,22.62712-54.81828,22.62712-54.81828" transform="translate(-9844.87266 -375.17997)"/><line class="cls-6" x1="469.87742" y1="623.0674" x2="364.83532" y2="572.38532"/><path class="cls-7" d="M10267.39642,1049.33334s-87.476-62.74944-87.476-73.01328,20.77948-32.70626,20.77948-32.70626" transform="translate(-9844.87266 -375.17997)"/><path class="cls-7" d="M10223.51264,1088.98911s-81.84836-69.45592-81.84836-78.61174,20.06116-35.50726,25.19309-36.48915,16.29969,7.73871,16.29969,7.73871" transform="translate(-9844.87266 -375.17997)"/><path class="cls-7" d="M10114.40094,1032.43525c2.193-3.01177,14.9231-20.93171,20.7318-22.52442,3.61568-.99139,7.93116,3.76654,7.93116,3.76654" transform="translate(-9844.87266 -375.17997)"/><circle class="cls-9" cx="578.34763" cy="170.99155" r="11.54683"/><circle class="cls-9" cx="325.71701" cy="229.9568" r="11.54683"/><circle class="cls-9" cx="566.8008" cy="199.224" r="3.95871"/><path class="cls-9" d="M10407.94024,583.87991c-38.6721,30.13154-77.59351,24.44079-77.80649,22.111S10377.05837,601.70132,10407.94024,583.87991Z" transform="translate(-9844.87266 -375.17997)"/><path class="cls-9" d="M10190.72015,726.4938c-1.52447,49.0012-30.76746,75.30916-32.69594,73.9846S10184.70188,761.63741,10190.72015,726.4938Z" transform="translate(-9844.87266 -375.17997)"/><path class="cls-6" d="M10400.2777,997.56888c-29.39188-44.82821,58.0841-94.96564,119.21232-94.96564l-10.04225,54.62486-24.49328,45.65Z" transform="translate(-9844.87266 -375.17997)"/><path class="cls-1" d="M10693.36084,1209.78321c16.79531-25.19309-91.80061-87.14544-194.67236-232.41547-56.366-79.59712-99.00742-174.27487-115.82778-214.098a15.83749,15.83749,0,0,0-24.317-6.33173l-57.87006,45.00865a15.83472,15.83472,0,0,0-3.27607,21.55738c50.15368,71.86409,108.91061,166.76128,158.25273,221.805C10583.14968,1187.54124,10676.56552,1234.97631,10693.36084,1209.78321Z" transform="translate(-9844.87266 -375.17997)"/><path class="cls-4" d="M10693.36084,1209.78321s-80.25378-17.51456-226.51361-192.81642c-178.77852-214.2776-136.55623-238.05516-136.55623-238.05516l-29.61736,23.035a15.83472,15.83472,0,0,0-3.27607,21.55738c50.15368,71.86409,108.91061,166.76128,158.25273,221.805C10583.14968,1187.54124,10676.56552,1234.97631,10693.36084,1209.78321Z" transform="translate(-9844.87266 -375.17997)"/><path class="cls-10" d="M10693.36084,1209.78321c16.79531-25.19309-91.80061-87.14544-194.67236-232.41547-56.366-79.59712-99.00742-174.27487-115.82778-214.098a15.83749,15.83749,0,0,0-24.317-6.33173l-57.87006,45.00865a15.83472,15.83472,0,0,0-3.27607,21.55738c50.15368,71.86409,108.91061,166.76128,158.25273,221.805C10583.14968,1187.54124,10676.56552,1234.97631,10693.36084,1209.78321Z" transform="translate(-9844.87266 -375.17997)"/><path class="cls-6" d="M10796.01907,981.586s-132.26368-5.94334-178.23839-30.13886c-17.30946-9.1096-62.54458-51.48254-90.13089-49.72164-71.73732,4.57917-64.38934,54.2085-75.23636,64.06283s-100.82905,20.03933-90.62508,69.63086c5.8317,28.34224,14.9293,21.73287,39.42247,19.9833,0,0-20.558,11.43754-20.87759,23.0549s13.90683,33.33536,24.09265,39.889,23.14437,0,23.14437,0c-13.64625,19.24472,3.18532,41.95459,8.87842,45.66036s26.112,1.96245,26.112,1.96245c-16.56212,19.55874,12.72363,38.20352,27.59241,39.85317,7.78382.8636,59.2798,12.68747,107.73613-14.34606,44.32116-24.72654,56.3066-29.324,62.74717-33.62114,4.54574-3.03288,26.79863-10.79041,52.45549-6.61781,50.63205,8.23435,51.55432-32.891,51.55432-32.891Z" transform="translate(-9844.87266 -375.17997)"/><path class="cls-4" d="M10462.56072,1165.96919c-16.56228,19.55871,12.72355,38.20352,27.59233,39.85317,7.78382.8636,59.2798,12.68747,107.73613-14.34606,44.32116-24.72654,56.3066-29.324,62.74717-33.62114,4.54574-3.03288,26.79863-10.79041,52.45549-6.61781,50.63205,8.23435,51.55418-32.89093,51.55418-32.89093C10642.17979,1055.40244,10480.38461,1258.19112,10462.56072,1165.96919Z" transform="translate(-9844.87266 -375.17997)"/><path class="cls-7" d="M10796.01907,981.586s-132.26368-5.94334-178.23839-30.13886c-17.30946-9.1096-62.54458-51.48254-90.13089-49.72164-71.73732,4.57917-64.38934,54.2085-75.23636,64.06283s-100.82905,20.03933-90.62508,69.63086c5.8317,28.34224,14.9293,21.73287,39.42247,19.9833,0,0-20.558,11.43754-20.87759,23.0549s13.90683,33.33536,24.09265,39.889,23.14437,0,23.14437,0c-13.64625,19.24472,3.18532,41.95459,8.87842,45.66036s26.112,1.96245,26.112,1.96245c-16.56212,19.55874,12.72363,38.20352,27.59241,39.85317,7.78382.8636,59.2798,12.68747,107.73613-14.34606,44.32116-24.72654,56.3066-29.324,62.74717-33.62114,4.54574-3.03288,26.79863-10.79041,52.45549-6.61781,50.63205,8.23435,51.55432-32.891,51.55432-32.891Z" transform="translate(-9844.87266 -375.17997)"/><path class="cls-11" d="M10288.74615,802.12579s-43.03819,17.4952-80.128-73.31491c-43.71348-107.0274,42.68828-175.81667,42.68828-175.81667s10.49715,31.06073,37.43973,59.96816,59.83356,35.90551,78.72837,64.59763,3.499,66.56411,3.499,66.56411Z" transform="translate(-9844.87266 -375.17997)"/><path class="cls-12" d="M10277.57828,612.7249l-9.27342,72.76626c-28.17728-30.18947-31.489-69.28009-24.73476-122.24158-30.20756,37.71945-48.10277,102.43778-29.90777,144.77616s69.73647,39.13054,69.73647,39.13054c-13.69207-24.00525-30.38464-22.65231-30.48969-49.06858,18.81281,29.43743,77.63445,15.49786,107.54409,23.93419C10345.2262,674.435,10315.95112,635.5804,10277.57828,612.7249Z" transform="translate(-9844.87266 -375.17997)"/><path class="cls-12" d="M10350.111,747.15628s-13.10518,5.58423-22.33527,12.27362c-11.34636,8.22313-20.25089,18.42712-33.344,25.76709-23.74411,13.31092-68.35013-16.93837-63.21086-26.71863s35.62257,3.05826,51.8779,2.47414S10350.111,747.15628,10350.111,747.15628Z" transform="translate(-9844.87266 -375.17997)"/><path class="cls-6" d="M10589.30128,981.586" transform="translate(-9844.87266 -375.17997)"/><path class="cls-6" d="M10480.38461,939.87655" transform="translate(-9844.87266 -375.17997)"/><path class="cls-7" d="M10475.668,1009.374" transform="translate(-9844.87266 -375.17997)"/><circle class="cls-12" cx="441.42049" cy="172.12324" r="11.54683"/><circle class="cls-12" cx="488.46367" cy="214.49015" r="3.95871"/><circle class="cls-12" cx="329.67572" cy="309.2348" r="3.95871"/><circle class="cls-12" cx="678.57606" cy="289.95889" r="3.95871"/><path class="cls-12" d="M10397.61734,681.333c24.3806,42.53266,62.55813,52.00563,63.63757,49.93S10419.4499,709.52225,10397.61734,681.333Z" transform="translate(-9844.87266 -375.17997)"/><line class="cls-13" x1="588.62883" y1="683.28178" x2="604.0246" y2="719.67178"/><path class="cls-3" d="M10431.16,1059.83042l13.51209,31.93767,1.88368,4.45233c.57078,1.34913,2.562,1.64441,3.71019.97285a2.7846,2.7846,0,0,0,.97285-3.7102l-13.51209-31.93767-1.88368-4.45233c-.57079-1.34913-2.562-1.64441-3.7102-.97285a2.78461,2.78461,0,0,0-.97284,3.7102Z" transform="translate(-9844.87266 -375.17997)"/><line class="cls-13" x1="559.55322" y1="637.78078" x2="571.27096" y2="665.47727"/><path class="cls-3" d="M10402.64375,1014.00245l10.25385,24.23638,1.46389,3.46011a2.07619,2.07619,0,0,0,2.82384.74043,2.11936,2.11936,0,0,0,.74043-2.82383l-10.25385-24.23638-1.46389-3.46011a2.07621,2.07621,0,0,0-2.82384-.74044,2.11936,2.11936,0,0,0-.74043,2.82384Z" transform="translate(-9844.87266 -375.17997)"/><line class="cls-13" x1="607.54077" y1="743.16642" x2="619.4375" y2="769.05931"/><path class="cls-3" d="M10450.07191,1119.71506l10.39536,22.6252,1.50137,3.26769a2.73318,2.73318,0,0,0,3.7102.97285,2.775,2.775,0,0,0,.97284-3.7102l-10.39536-22.6252-1.50137-3.26769a2.73317,2.73317,0,0,0-3.7102-.97285,2.775,2.775,0,0,0-.97284,3.7102Z" transform="translate(-9844.87266 -375.17997)"/><line class="cls-13" x1="627.91805" y1="790.78923" x2="635.51194" y2="810.34797"/><path class="cls-3" d="M10470.975,1166.46977l6.649,17.125.94493,2.43374a1.93862,1.93862,0,0,0,2.3163,1.31516,1.89686,1.89686,0,0,0,1.31516-2.31631l-6.649-17.125-.94492-2.43374a1.93861,1.93861,0,0,0-2.31631-1.31516,1.89685,1.89685,0,0,0-1.31515,2.31631Z" transform="translate(-9844.87266 -375.17997)"/></g><circle class="cls-14" cx="500.93852" cy="500.24543" r="467.70437"/><g id="Group-5"><g class="cls-15"><path class="cls-16" d="M10283.99121,1154.53287c-6.71988,0-11.29336-.18311-15.84624.04226-8.28772.40956-15.1983,3.5008-20.138,10.56958a141.08288,141.08288,0,0,0-9.98232,17.21362,52.64913,52.64913,0,0,1-23.93459,23.901c-4.69157,2.35445-9.20437,5.06755-13.7735,7.655-9.55975,5.4186-14.04329,13.72257-13.95011,24.63562.06068,7.06119,0,14.12672.11377,21.18791a40.712,40.712,0,0,1-5.84008,21.74593c-3.16708,5.35684-6.32766,10.72018-9.61285,16.00335-6.786,10.925-7.12946,21.80985-.09751,32.7684,1.64476,2.55924,2.9688,5.33517,4.74141,7.79473a55.98892,55.98892,0,0,1,10.84154,38.68758c-.376,4.40011-.1647,8.85439-.12785,13.2881.07909,9.44706,3.34044,17.3144,11.55773,22.57806a74.58232,74.58232,0,0,0,9.6356,5.68188c15.16039,6.75672,26.51983,17.25806,33.282,32.594a98.07358,98.07358,0,0,0,5.02855,9.06569c5.40993,9.38314,13.689,13.71064,24.37124,13.70416q11.003,0,22.0038-.08885a41.24909,41.24909,0,0,1,21.66681,6.09253c5.36118,3.15948,10.718,6.33632,15.99686,9.62043,10.54791,6.57036,21.05356,6.66139,31.62424.08666,3.9938-2.478,8.1111-4.76307,12.04747-7.3353,9.05916-5.9105,18.79879-9.11876,29.75085-8.51527,5.93652.33046,11.89579.12459,17.84855.14195,10.85345.0336,19.24409-4.32317,24.67137-13.91218,2.59065-4.5713,5.30159-9.083,7.66038-13.77893a51.94493,51.94493,0,0,1,23.84141-23.97471c4.81509-2.40428,9.48932-5.12171,14.117-7.88466,7.51734-4.476,12.5589-10.66167,13.41921-19.76528.792-8.44375.23837-16.87883.21995-25.315a44.34718,44.34718,0,0,1,6.52378-23.667c3.23209-5.32108,6.39266-10.6866,9.60419-16.01744,5.943-9.87614,6.241-19.83788.41064-29.85595-2.57441-4.424-5.16506-8.84031-7.93773-13.1364-5.94843-9.2-9.24771-19.05233-8.60845-30.16907.35106-6.07736.21344-12.18725.12787-18.27871-.12787-9.25854-3.33936-16.96333-11.34862-22.28551a170.02643,170.02643,0,0,0-16.91566-9.66052,51.90275,51.90275,0,0,1-23.09165-23.06129c-2.58959-5.03937-5.411-9.96715-8.278-14.85809-4.46294-7.60728-10.89681-12.45812-19.86822-13.27617-3.44011-.312-6.90733-.19611-10.368-.26-7.45885-.13436-14.96428.61759-22.38195-.39548-9.174-1.25253-17.0392-5.88668-24.24882-11.211-15.40092-11.37245-30.2731-11.53064-45.67186-.05092-12.15905,9.06138-25.73535,13.99458-39.08413,11.69538m-32.84749,322.42362a10.1987,10.1987,0,0,0-4.75551-3.40112c-7.94208-9.343-12.77992-20.61365-19.17694-30.92863-4.01438-6.46743-10.18059-10.39731-16.67621-13.93927-6.30707-3.43905-12.80376-6.56279-18.57884-10.926a31.41906,31.41906,0,0,1-13.0248-25.25538,119.20541,119.20541,0,0,1,.07477-14.94693c1.25686-13.18517-2.36962-24.82415-9.87506-35.56059a97.58217,97.58217,0,0,1-7.45233-12.92728c-4.95053-10.08418-4.72841-20.26045.11377-30.38037a160.04579,160.04579,0,0,1,9.6616-16.45192c5.17265-8.16745,8.1447-16.83115,7.58128-26.65528-.34022-5.93652-.08343-11.90771-.1582-17.86264-.16686-13.41594,5.80108-23.35276,17.154-30.16041,4.38711-2.63075,8.81538-5.21816,13.40511-7.46209a47.62057,47.62057,0,0,0,22.461-22.40794c3.41955-6.929,6.96693-13.82443,12.09408-19.762,6.29191-7.28764,14.338-10.5945,23.758-10.86429a110.94674,110.94674,0,0,1,14.51894.05093c13.521,1.39988,25.3269-2.62425,36.25838-10.27379a102.75472,102.75472,0,0,1,11.47646-6.644c10.58367-5.52587,21.19224-5.24633,31.83117.03142a162.61639,162.61639,0,0,1,15.69453,9.29755,45.10942,45.10942,0,0,0,27.05618,7.64086c5.943-.259,11.8958-.08668,17.84855-.13977,13.43111-.11919,23.25632,6.0232,29.973,17.41841,2.73151,4.64389,5.46629,9.31163,7.86083,14.13647a45.43279,45.43279,0,0,0,21.03081,21.00047,139.36694,139.36694,0,0,1,16.89615,9.68653q14.39974,9.91731,14.55472,27.40831a128.39246,128.39246,0,0,1-.09751,13.702c-1.29152,13.326,2.35661,25.1232,10.00508,35.93658a104.14787,104.14787,0,0,1,6.32984,10.70719c6.56279,12.14066,5.90726,24.14155-.96972,35.92789-3.4163,5.85418-6.89649,11.67042-10.36153,17.491a35.56629,35.56629,0,0,0-4.996,18.996c.08018,6.92033,0,13.84936.11811,20.77078.22647,13.42568-5.71766,23.38633-17.00451,30.25577-4.84217,2.94389-9.82411,5.67973-14.85049,8.29313-8.17829,4.256-14.90142,9.94441-19.229,18.26462-3.31009,6.3721-6.79031,12.66183-10.199,18.98839-1.93188,1.34787-3.01214,3.40113-4.35028,5.25067a16.65679,16.65679,0,0,0-4.37519,3.95045c-7.41116,4.97546-15.67721,6.27674-24.40591,5.97445-6.20849-.21129-12.43431-.04226-18.65037-.06177a30.45847,30.45847,0,0,0-12.43969,2.52455c-12.29344,5.40234-22.616,14.62512-35.70361,18.49757-2.13451-.61-4.295-.13544-6.44144-.12892-10.445-.2113-18.91039-5.52588-27.13418-11.03225-10.1416-6.7914-20.79244-10.76136-33.2679-9.98666-9.43514.584-18.99491.83756-28.325-1.62093a11.607,11.607,0,0,0-5.2572-2.42165" transform="translate(-9844.87266 -375.17997)"/></g></g><path class="cls-1" d="M10521.66751,1299.48919c-2.57441-4.4207-5.16506-8.84247-7.93774-13.13857-5.94842-9.19786-9.2477-19.05124-8.60844-30.168.35106-6.07629.21344-12.18616.12787-18.27763-.12787-9.25529-3.33936-16.96333-11.34862-22.28659a169.60014,169.60014,0,0,0-16.91566-9.66052,51.89907,51.89907,0,0,1-23.09165-23.06455c-2.58959-5.03721-5.411-9.96606-8.278-14.85591-4.46294-7.60728-10.89681-12.45705-19.86822-13.27184-3.44011-.31639-6.90733-.20154-10.368-.26113-7.45884-.13544-14.96427.6176-22.382-.39439-9.17727-1.25253-17.03919-5.88776-24.24882-11.2121-15.40091-11.37246-30.27309-11.53065-45.67186-.05743-12.1601,9.06569-25.7364,13.9978-39.08518,11.69969-6.71988,0-11.29336-.18528-15.85166.04117-8.28663.40956-15.1929,3.503-20.13693,10.57175a141.08151,141.08151,0,0,0-9.98231,17.21362,52.65085,52.65085,0,0,1-23.93786,23.901c-4.68832,2.35554-9.20328,5.06646-13.77024,7.655-9.55976,5.41644-14.0433,13.71933-13.95012,24.63346.06068,7.06337,0,14.12456.11052,21.18466a40.705,40.705,0,0,1-5.84009,21.74593c-3.16707,5.359-6.32875,10.72235-9.61284,16.00443-6.786,10.92714-7.12946,21.81418-.09751,32.76407,1.64367,2.56249,2.96879,5.33626,4.74141,7.79689a55.98742,55.98742,0,0,1,10.84153,38.68758c-.37706,4.40012-.16469,8.85439-.12894,13.28377.0791,9.45139,3.34153,17.31873,11.55774,22.5824a74.47765,74.47765,0,0,0,9.63559,5.67754c15.16038,6.76106,26.51876,17.26239,33.28307,32.5983a98.05615,98.05615,0,0,0,5.02636,9.06568c5.40993,9.38314,13.69116,13.71065,24.37125,13.70416q11.00624,0,22.006-.08884a41.29532,41.29532,0,0,1,21.66791,6.09252c5.359,3.15948,10.71694,6.33632,15.99576,9.61828,10.54791,6.5747,21.05357,6.65812,31.62424.08885,3.99489-2.478,8.11328-4.76308,12.04747-7.33531,9.06025-5.9105,18.79989-9.11875,29.75191-8.51526,5.93652.33046,11.89579.12459,17.84855.142,10.85345.03359,19.24409-4.32317,24.66813-13.91219,2.59392-4.57129,5.30483-9.083,7.66253-13.77893a51.96752,51.96752,0,0,1,23.84032-23.9747c4.81727-2.40429,9.4915-5.12171,14.11914-7.88467,7.51843-4.476,12.5589-10.66167,13.41812-19.76528.79421-8.44374.23946-16.87882.221-25.31607a44.33973,44.33973,0,0,1,6.52378-23.668c3.22885-5.32,6.39266-10.68335,9.6031-16.01527C10527.1999,1319.46575,10527.49677,1309.504,10521.66751,1299.48919Z" transform="translate(-9844.87266 -375.17997)"/><path class="cls-16" d="M10235.60845,1271.17507c0,3.45421.06393,6.90624-.026,10.36046-.05309,1.99364.4269,3.06306,2.74235,3.02189,6.48585-.117,12.97713-.02384,19.46081-.05418,3.542-.01408,5.41861-2.02831,5.53887-5.39151.17987-5.10439.21129-10.224.0065-15.33157-.13544-3.48239-1.95247-5.60714-5.79349-5.56379-6.21064.07585-12.42563.10294-18.6341-.01842-2.56466-.04875-3.43037.97841-3.32527,3.439.13327,3.18008.03034,6.35907.03034,9.53808m-9.35931,12.77559c0-10.381.1051-20.76318-.06827-31.14424-.05308-3.00564.63168-4.08588,3.8562-4.01112,9.40157.22319,18.81072.0661,28.21661.08342,7.95725.01842,14.08555,5.67322,14.377,13.559.21779,5.94409.22536,11.91095-.00433,17.8529a13.84224,13.84224,0,0,1-13.70524,13.43c-6.358.15495-12.73226.21886-19.08593-.02925-3.2245-.12461-3.98512,1.01957-3.88218,4.03714.20154,6.07845.16144,12.18182-.04985,18.26028-.08668,2.57765-1.07591,4.94078-4.27225,5.23333a4.626,4.626,0,0,1-5.15423-3.26027,9.78747,9.78747,0,0,1-.21886-3.28411q-.02441-15.36354-.00868-30.72709" transform="translate(-9844.87266 -375.17997)"/><path class="cls-16" d="M10437.424,1271.3441c0,3.45312.08776,6.91059-.03792,10.35722-.07152,2.193.80072,2.88212,2.91787,2.84745,6.34825-.09427,12.70408-.04551,19.05016-.03467,3.73159.00759,5.69058-1.9969,5.79784-5.57137.15386-5.10331.208-10.22935-.02275-15.32724-.16037-3.52572-2.15292-5.46628-5.9506-5.40236-6.07087.10184-12.1504.12785-18.21912-.01951-2.71852-.065-3.72293.92206-3.58207,3.61457.1701,3.17357.04659,6.35583.04659,9.53591m-9.36906,12.47545c0-10.38.1322-20.76752-.07367-31.14207-.0661-3.205.97082-3.932,3.996-3.87352,9.39833.18529,18.8107.04985,28.2166.07585a13.91277,13.91277,0,0,1,14.247,13.68683c.19287,5.80432.18421,11.62816.00866,17.43683a13.87787,13.87787,0,0,1-13.85042,13.72473q-9.7434.208-19.502-.01518c-2.52783-.05092-3.38053.77146-3.322,3.31661.14844,5.94519.14086,11.9012.00867,17.84964-.06934,3.18658-.70861,6.36668-4.88986,6.31791-3.66873-.04334-4.88767-2.39455-4.86492-5.8195.07043-10.51756.026-21.03622.026-31.55813" transform="translate(-9844.87266 -375.17997)"/><path class="cls-16" d="M10330.30667,1285.13168a17.09234,17.09234,0,0,0-.8538-4.00572c-3.34043-6.97994-6.71122-13.95012-10.28462-20.81086-1.55808-2.98723-4.01113-2.95689-5.58113.08992-3.41086,6.6332-6.61371,13.37911-9.78946,20.12717-1.64043,3.48563-1.20269,7.01786.46373,10.39622,2.99589,6.07087,6.05029,12.12115,9.07109,18.18336.69237,1.38581,1.39231,2.86587,3.21584,2.78243,1.56891-.07151,2.27211-1.35005,2.91137-2.62858,3.153-6.306,6.34284-12.59247,9.49582-18.893a12.42354,12.42354,0,0,0,1.35116-5.24089m-36.74486.10835a13.392,13.392,0,0,1,.97407-7.046c3.815-7.98,7.38951-16.10412,11.77552-23.76449,4.7024-8.21729,16.75314-7.61486,21.08823.77037,3.61457,6.99726,7.02326,14.1083,10.46989,21.189a19.17436,19.17436,0,0,1,.12461,17.21579c-3.10425,6.63429-6.41976,13.17108-9.602,19.76528-2.42706,5.02638-6.04486,8.12411-11.95863,7.92041-5.61689-.195-9.17186-3.11182-11.52415-8.02877-2.92438-6.11313-5.9907-12.15042-9.07109-18.18552a17.76546,17.76546,0,0,1-2.27644-9.836" transform="translate(-9844.87266 -375.17997)"/><path class="cls-16" d="M10384.62812,1272.37126c-.36081.00759-.7086.01409-1.07375.02275-1.271,4.31126-2.64484,8.59652-3.78359,12.9457-.92532,3.55173-4.40769,8.31047-1.99041,10.34637,2.35879,1.97956,7.61812.48108,11.60217.5645,1.73794.0401,2.0684-.53849,1.557-2.22118-2.18219-7.19771-4.217-14.4355-6.31143-21.65814m17.61236,48.86277c-2.75425.05309-3.87787-1.803-4.58429-4.022a79.00535,79.00535,0,0,1-2.52673-8.74387c-.48974-2.45956-1.73794-3.06632-4.01331-3.01q-7.2519.17713-14.51137-.00217c-2.16049-.05742-3.2646.7032-3.79226,2.82145-.779,3.07281-1.93188,6.04921-2.70443,9.13176-.79963,3.21368-2.85071,4.412-5.83359,3.66658-3.42387-.85488-4.05557-3.59831-3.22667-6.55627,1.998-7.17605,4.22457-14.29033,6.34284-21.42954q5.83951-19.63959,11.66393-39.2846c.59158-2.02074,1.20052-4.19858,3.51163-4.74359,2.82145-.67069,5.27775-.01951,6.20849,3.20826q9.077,31.4162,18.10967,62.84538a4.564,4.564,0,0,1-4.64391,6.11855" transform="translate(-9844.87266 -375.17997)"/><path class="cls-16" d="M10243.91133,1387.29091a16.825,16.825,0,0,1-8.93891-2.4,17.38621,17.38621,0,0,1-6.24314-6.53895,18.86838,18.86838,0,0,1-2.30354-9.33872,18.371,18.371,0,0,1,2.401-9.40157,17.64415,17.64415,0,0,1,6.54219-6.54111,18.26545,18.26545,0,0,1,9.3333-2.40212,17.94789,17.94789,0,0,1,9.23579,2.40212,17.755,17.755,0,0,1,6.50861,6.54111,18.90375,18.90375,0,0,1,2.46822,9.40157l-2.23527,1.05317a17.57577,17.57577,0,0,1-2.2006,8.77853,16.5587,16.5587,0,0,1-5.982,6.18138A16.37507,16.37507,0,0,1,10243.91133,1387.29091Zm.78988-5.05995a12.51607,12.51607,0,0,0,6.50861-1.71192,12.07435,12.07435,0,0,0,4.53772-4.736,14.83887,14.83887,0,0,0,0-13.57631,12.777,12.777,0,0,0-17.55494-4.73057,12.92515,12.92515,0,0,0-4.6038,4.73057,14.338,14.338,0,0,0,0,13.57631,12.44557,12.44557,0,0,0,11.11241,6.44791Zm15.38575,4.73167a2.82337,2.82337,0,0,1-2.03916-.75737,2.63193,2.63193,0,0,1-.78662-2.00231v-10.848l1.24928-5.78591,4.40444,1.4443V1384.203a2.57934,2.57934,0,0,1-.82455,2.00231A2.85212,2.85212,0,0,1,10260.087,1386.96263Z" transform="translate(-9844.87266 -375.17997)"/><path class="cls-16" d="M10283.885,1357.11317a2.65468,2.65468,0,0,1-1.843-.65444,2.21012,2.21012,0,0,1-.72161-1.71194,2.30726,2.30726,0,0,1,.72161-1.74118,2.55409,2.55409,0,0,1,1.843-.69237h16.23847a2.54368,2.54368,0,0,1,1.83871.69237,2.30588,2.30588,0,0,1,.72271,1.74118,2.20729,2.20729,0,0,1-.72271,1.71194,2.64183,2.64183,0,0,1-1.83871.65444Zm15.78014,29.84946a11.40529,11.40529,0,0,1-10.354-6.18356,13.59183,13.59183,0,0,1-1.54616-6.50319v-31.88752a2.8342,2.8342,0,0,1,.75521-2.03916,2.90723,2.90723,0,0,1,3.97755,0,2.7718,2.7718,0,0,1,.78987,2.03916v31.88751a7.32981,7.32981,0,0,0,1.80621,5.09354,5.88071,5.88071,0,0,0,4.56806,2.00449h1.907a2.38388,2.38388,0,0,1,1.83871.79311,2.88661,2.88661,0,0,1,.72378,2.03591,2.49385,2.49385,0,0,1-.88955,2.0023,3.372,3.372,0,0,1-2.26885.75738h-1.30783Z" transform="translate(-9844.87266 -375.17997)"/><path class="cls-16" d="M10328.32711,1372.82831a2.7001,2.7001,0,0,1-2.829-2.82471v-31.557a2.72251,2.72251,0,0,1,.78988-2.06841,2.81709,2.81709,0,0,1,2.03916-.75628,2.702,2.702,0,0,1,2.00666.75628,2.79307,2.79307,0,0,1,.75628,2.06841v31.557a2.82616,2.82616,0,0,1-.75628,2.03916A2.6683,2.6683,0,0,1,10328.32711,1372.82831Zm0,14.13432a2.834,2.834,0,0,1-2.03916-.75737,2.642,2.642,0,0,1-.78988-2.00231v-30.37387a2.72663,2.72663,0,0,1,.78988-2.06949,2.82613,2.82613,0,0,1,2.03916-.75629,2.71045,2.71045,0,0,1,2.00666.75629,2.79563,2.79563,0,0,1,.75628,2.06949V1384.203a2.60179,2.60179,0,0,1-2.76294,2.75968Zm27.87964,0a2.7404,2.7404,0,0,1-2.04023-.78988,2.68513,2.68513,0,0,1-.78988-1.9698v-16.76614a12.6907,12.6907,0,0,0-1.50609-6.54328,9.68255,9.68255,0,0,0-4.048-3.78034,13.02156,13.02156,0,0,0-5.81841-1.24819,12.73892,12.73892,0,0,0-5.52478,1.18427,9.76933,9.76933,0,0,0-3.94288,3.25485,8.12388,8.12388,0,0,0-1.44756,4.76741h-3.74675a13.90408,13.90408,0,0,1,2.13667-7.39817,14.99824,14.99824,0,0,1,5.55621-5.1629,15.90281,15.90281,0,0,1,7.7568-1.90588,17.40172,17.40172,0,0,1,8.31372,1.94164,14.1162,14.1162,0,0,1,5.75449,5.6884,18.5374,18.5374,0,0,1,2.10742,9.20219V1384.203a2.70263,2.70263,0,0,1-2.76077,2.75968Z" transform="translate(-9844.87266 -375.17997)"/><path class="cls-16" d="M10399.66065,1387.29091a18.55313,18.55313,0,0,1-9.433-2.36636,17.24316,17.24316,0,0,1-6.475-6.50321,19.99944,19.99944,0,0,1,0-18.87356,17.20068,17.20068,0,0,1,6.475-6.50752,18.56416,18.56416,0,0,1,9.433-2.36638,18.23582,18.23582,0,0,1,9.33655,2.36638,17.28933,17.28933,0,0,1,6.44359,6.50752,19.17657,19.17657,0,0,1,2.42813,9.46548,18.611,18.611,0,0,1-2.36636,9.40808,17.16756,17.16756,0,0,1-6.47827,6.50321A18.39593,18.39593,0,0,1,10399.66065,1387.29091Zm0-5.05995a12.6492,12.6492,0,0,0,6.57687-1.71192,11.95787,11.95787,0,0,0,4.50414-4.69807,14.14805,14.14805,0,0,0,1.61008-6.80766,14.33972,14.33972,0,0,0-1.61008-6.83583,11.91933,11.91933,0,0,0-4.50414-4.73383,13.51213,13.51213,0,0,0-13.14614,0,12.36172,12.36172,0,0,0-4.57348,4.73383,13.87352,13.87352,0,0,0-1.67294,6.83583,13.69235,13.69235,0,0,0,1.67294,6.80766,12.44012,12.44012,0,0,0,4.57348,4.69807A12.63214,12.63214,0,0,0,10399.66065,1382.231Z" transform="translate(-9844.87266 -375.17997)"/><path class="cls-16" d="M10443.71158,1386.96263a2.80937,2.80937,0,0,1-2.03481-.75737,2.63023,2.63023,0,0,1-.78987-2.00231v-30.37387a2.71071,2.71071,0,0,1,.78987-2.06949,2.81589,2.81589,0,0,1,2.03481-.75629,2.70952,2.70952,0,0,1,2.00773.75629,2.787,2.787,0,0,1,.75629,2.06949V1384.203a2.69,2.69,0,0,1-.75629,2.00231A2.71873,2.71873,0,0,1,10443.71158,1386.96263Zm27.87639,0a2.73887,2.73887,0,0,1-2.03591-.78988,2.6869,2.6869,0,0,1-.78987-1.9698v-16.76614a12.62559,12.62559,0,0,0-1.51257-6.54328,9.60748,9.60748,0,0,0-4.04039-3.78034,13.01141,13.01141,0,0,0-5.82059-1.24819,12.7054,12.7054,0,0,0-5.51722,1.18427,9.79277,9.79277,0,0,0-3.95045,3.25485,8.13678,8.13678,0,0,0-1.44432,4.76741h-3.74676a13.899,13.899,0,0,1,2.13017-7.39817,15.01291,15.01291,0,0,1,5.55838-5.1629,15.931,15.931,0,0,1,7.76332-1.90588,17.4664,17.4664,0,0,1,8.31915,1.94164,14.1156,14.1156,0,0,1,5.74583,5.6884,18.53736,18.53736,0,0,1,2.10957,9.20219V1384.203a2.65986,2.65986,0,0,1-.79421,1.9698A2.68708,2.68708,0,0,1,10471.588,1386.96263Z" transform="translate(-9844.87266 -375.17997)"/></g></svg>