<svg xmlns="http://www.w3.org/2000/svg" viewBox="0 0 1001.18396 1000.49087"><defs><style>.cls-1{fill:#fccdd3;}.cls-2{fill:#fff;}.cls-3{fill:#6534ff;}.cls-4{fill:#cdc9fb;}.cls-10,.cls-14,.cls-5,.cls-7{fill:none;}.cls-5{stroke:#5cbeff;}.cls-10,.cls-14,.cls-5,.cls-6,.cls-7{stroke-miterlimit:10;}.cls-10,.cls-5{stroke-width:13.6426px;}.cls-13,.cls-6{fill:#fffeff;}.cls-6,.cls-7{stroke:#fccdd3;stroke-width:10.71784px;}.cls-8{fill:#5cbeff;}.cls-9{fill:#fef568;}.cls-10{stroke:#602ffd;}.cls-11{fill:#6733ff;}.cls-12{fill:#50d1bb;}.cls-14{stroke:#6733ff;stroke-width:65.08213px;}</style></defs><g id="Layer_4" data-name="Layer 4"><circle class="cls-1" cx="500.93852" cy="500.24543" r="467.70437"/><path class="cls-2" d="M9588.87449,1179.67332c-2.22711-3.82433-4.46827-7.64958-6.8669-11.36613-5.146-7.957-8.00015-16.48114-7.44713-26.0982.3037-5.25658.18465-10.5422.11062-15.8119-.11062-8.00671-2.88887-14.67491-9.81764-19.28a146.72108,146.72108,0,0,0-14.63367-8.35727,44.89768,44.89768,0,0,1-19.97648-19.953c-2.24024-4.35767-4.681-8.6216-7.16125-12.85179-3.86087-6.581-9.42678-10.77654-17.18791-11.48142-2.976-.2737-5.97551-.17434-8.96935-.22589-6.45262-.11717-12.94553.53428-19.36253-.34119-7.93923-1.08356-14.74054-5.09348-20.97755-9.69954-13.32327-9.83826-26.18913-9.97511-39.51054-.04968-10.51965,7.84269-22.26445,12.10944-33.81242,10.12135-5.81334,0-9.76984-.16029-13.71321.03562-7.16873.35431-13.14331,3.0304-17.42037,9.14557a122.05056,122.05056,0,0,0-8.63566,14.89143,45.548,45.548,0,0,1-20.70853,20.67666c-4.05585,2.03777-7.96172,4.383-11.91258,6.62227-8.2701,4.68574-12.1488,11.86853-12.06819,21.3103.05249,6.11049,0,12.2191.09561,18.32676a35.21373,35.21373,0,0,1-5.05223,18.81231c-2.73983,4.63606-5.475,9.27586-8.316,13.84536-5.87052,9.453-6.16766,18.87136-.08435,28.34406,1.42193,2.2168,2.56829,4.61638,4.10177,6.74506a48.43446,48.43446,0,0,1,9.379,33.46846c-.32619,3.80652-.14248,7.65989-.11155,11.49173.06843,8.17636,2.89074,14.98236,9.99855,19.53594a64.43233,64.43233,0,0,0,8.33571,4.91162c13.11518,5.849,22.94126,14.93362,28.793,28.20064a84.82719,84.82719,0,0,0,4.34829,7.84269c4.68011,8.11732,11.84416,11.861,21.08346,11.85541q9.52145,0,19.03726-.07686a35.72442,35.72442,0,0,1,18.74482,5.27062c4.636,2.73325,9.27118,5.48152,13.83787,8.32073,9.12495,5.68774,18.21334,5.75991,27.358.07686,3.456-2.14367,7.01877-4.12052,10.42221-6.34574,7.838-5.11315,16.2637-7.88859,25.73826-7.36652,5.13565.28588,10.291.10778,15.4407.1228,9.38928.02906,16.648-3.74,21.34029-12.03537,2.244-3.95461,4.58919-7.85767,6.62882-11.92009a44.95687,44.95687,0,0,1,20.62417-20.74042c4.1674-2.07994,8.21106-4.43077,12.21441-6.821,6.50416-3.87214,10.86464-9.22337,11.60795-17.09886.68707-7.30465.20716-14.6018.19123-21.90082a38.35807,38.35807,0,0,1,5.64368-20.47513c2.79327-4.60232,5.53027-9.24212,8.30761-13.85475C9593.66054,1196.955,9593.91736,1188.3371,9588.87449,1179.67332Z" transform="translate(-8934.42105 -375.17997)"/><path class="cls-3" d="M9341.406,1155.17889c0,2.98823.05531,5.97456-.02249,8.96279-.04593,1.72469.3693,2.64984,2.37239,2.61423,5.61088-.10124,11.22646-.02063,16.83547-.04687,3.06414-.01219,4.68761-1.75469,4.79165-4.66418.1556-4.41578.18279-8.84469.00562-13.26328-.11716-3.01259-1.68908-4.8507-5.01193-4.8132-5.37279.06562-10.74935.089-16.12027-.01594-2.21868-.04217-2.9676.84642-2.87668,2.9751.11529,2.75107.02624,5.5012.02624,8.25135m-8.09669,11.05211c0-8.98059.09092-17.96213-.05906-26.94275-.04592-2.60016.54646-3.53468,3.336-3.47,8.13325.19308,16.27307.05718,24.41007.07217,6.88378.01593,12.18535,4.90787,12.43749,11.72981.18841,5.14221.195,10.30411-.00375,15.44446a11.97487,11.97487,0,0,1-11.85634,11.61827c-5.50028.134-11.01463.18934-16.51115-.0253-2.78951-.1078-3.44751.882-3.35847,3.4925.17435,5.25845.13967,10.53845-.04312,15.7969-.075,2.22992-.93077,4.27424-3.6959,4.52733a4.0019,4.0019,0,0,1-4.45891-2.82044,8.46714,8.46714,0,0,1-.18933-2.84107q-.02112-13.29094-.00751-26.58188" transform="translate(-8934.42105 -375.17997)"/><path class="cls-3" d="M9515.99582,1155.32512c0,2.98728.07592,5.97832-.03281,8.96-.06187,1.89716.6927,2.49331,2.52424,2.46332,5.49185-.08156,10.99025-.03938,16.48021-.03,3.22818.00657,4.9229-1.72751,5.01569-4.81977.1331-4.41485.18-8.84937-.01968-13.25953-.13873-3.05008-1.86248-4.72885-5.14784-4.67356-5.25189.08811-10.51126.11061-15.76129-.01687-2.35177-.05624-3.22068.79767-3.09882,3.12694.14714,2.74544.0403,5.4984.0403,8.24948m-8.10513,10.79246c0-8.97966.11436-17.9659-.06374-26.94087-.05718-2.77263.83985-3.40159,3.45688-3.351,8.13045.16029,16.27306.04312,24.41006.06562a12.03586,12.03586,0,0,1,12.325,11.84041c.16685,5.0213.15936,10.05947.00749,15.08453a12.00568,12.00568,0,0,1-11.98193,11.87321q-8.429.18-16.87108-.01313c-2.18681-.04405-2.92448.66739-2.87388,2.86919.12841,5.14315.12186,10.29567.0075,15.44164-.06,2.7567-.613,5.50779-4.23019,5.46559-3.1738-.03748-4.22831-2.07151-4.20863-5.03442.06093-9.09869.02252-18.19834.02252-27.3008" transform="translate(-8934.42105 -375.17997)"/><path class="cls-3" d="M9423.329,1167.25269a14.78649,14.78649,0,0,0-.73861-3.46533c-2.8898-6.03831-5.80585-12.06818-8.89718-18.00338-1.34789-2.58424-3.47-2.558-4.82822.07779-2.95072,5.73835-5.72149,11.57421-8.46882,17.41193a9.976,9.976,0,0,0,.40118,8.99372c2.59173,5.25189,5.23407,10.486,7.84736,15.73035.599,1.19886,1.20447,2.47925,2.782,2.40707,1.35726-.06186,1.96559-1.16792,2.51861-2.274,2.72765-5.45529,5.48716-10.8937,8.21479-16.3443a10.74734,10.74734,0,0,0,1.16888-4.53388m-31.78782.09374a11.58531,11.58531,0,0,1,.84267-6.09549c3.30035-6.90347,6.39263-13.93161,10.187-20.55856,4.068-7.10874,14.49307-6.58758,18.24334.66645,3.12694,6.0533,6.07579,12.205,9.05745,18.33051a16.58762,16.58762,0,0,1,.1078,14.8933c-2.68547,5.7393-5.55371,11.39424-8.30666,17.09886-2.09963,4.3483-5.22938,7.02814-10.34536,6.85191-4.85915-.16871-7.93453-2.692-9.96949-6.94565-2.52987-5.28844-5.18253-10.51127-7.84736-15.73222a15.36892,15.36892,0,0,1-1.96934-8.50911" transform="translate(-8934.42105 -375.17997)"/><path class="cls-3" d="M9470.3223,1156.21371c-.31214.00657-.613.01219-.92889.01968-1.0995,3.72966-2.288,7.43682-3.27318,11.19927-.80049,3.07258-3.81307,7.18936-1.72189,8.95061,2.04058,1.7125,6.59041.41617,10.037.48834,1.50349.03469,1.78937-.46585,1.347-1.92154-1.8878-6.2267-3.64811-12.48809-5.46-18.73636m15.23638,42.271c-2.3827.04592-3.35473-1.55973-3.96585-3.4794a68.34612,68.34612,0,0,1-2.18586-7.56428c-.42368-2.12775-1.50349-2.65266-3.4719-2.60391q-6.27358.15324-12.55373-.00188c-1.869-.04967-2.82419.60834-3.28067,2.44083-.67394,2.65828-1.67126,5.23314-2.33959,7.89985-.69176,2.78013-2.46614,3.81683-5.04661,3.17194-2.962-.73956-3.50845-3.11289-2.79138-5.67181,1.72844-6.208,3.65466-12.3625,5.48716-18.5386q5.05174-16.99013,10.09042-33.98494c.51178-1.74814,1.03857-3.63217,3.0379-4.10366,2.44082-.58021,4.56576-.01687,5.37094,2.77545q7.8525,27.178,15.6666,54.36727a3.94828,3.94828,0,0,1-4.01743,5.29314" transform="translate(-8934.42105 -375.17997)"/><path class="cls-3" d="M9348.5888,1255.63021a14.55528,14.55528,0,0,1-7.733-2.07619,15.04073,15.04073,0,0,1-5.40091-5.65682,16.323,16.323,0,0,1-1.99278-8.07889,15.89266,15.89266,0,0,1,2.07713-8.13325,15.2639,15.2639,0,0,1,5.65962-5.65869,15.80141,15.80141,0,0,1,8.0742-2.07807,15.52664,15.52664,0,0,1,7.98984,2.07807,15.35979,15.35979,0,0,1,5.63058,5.65869,16.35356,16.35356,0,0,1,2.13524,8.13325l-1.93372.91109a15.20468,15.20468,0,0,1-1.90373,7.59427,14.32487,14.32487,0,0,1-5.175,5.34749A14.166,14.166,0,0,1,9348.5888,1255.63021Zm.68332-4.37734a10.82756,10.82756,0,0,0,5.63057-1.481,10.44533,10.44533,0,0,0,3.92556-4.09709,12.837,12.837,0,0,0,0-11.7448,11.05336,11.05336,0,0,0-15.1867-4.0924,11.18154,11.18154,0,0,0-3.98273,4.0924,12.4038,12.4038,0,0,0,0,11.7448,10.76659,10.76659,0,0,0,9.6133,5.57806Zm13.31015,4.09335a2.44251,2.44251,0,0,1-1.76407-.6552,2.27689,2.27689,0,0,1-.6805-1.73219v-9.38459l1.08075-5.00536,3.81026,1.24946v13.14049a2.23139,2.23139,0,0,1-.71331,1.73219A2.46738,2.46738,0,0,1,9362.58227,1255.34622Z" transform="translate(-8934.42105 -375.17997)"/><path class="cls-3" d="M9383.16989,1229.52358a2.29652,2.29652,0,0,1-1.59441-.56616,1.91193,1.91193,0,0,1-.62427-1.481,1.996,1.996,0,0,1,.62427-1.50629,2.20953,2.20953,0,0,1,1.59441-.599h14.04783a2.20053,2.20053,0,0,1,1.59066.599,1.99482,1.99482,0,0,1,.62521,1.50629,1.90951,1.90951,0,0,1-.62521,1.481,2.2854,2.2854,0,0,1-1.59066.56616Zm13.65133,25.82264a9.86664,9.86664,0,0,1-8.95716-5.34937,11.75821,11.75821,0,0,1-1.33758-5.62588v-27.58576a2.4518,2.4518,0,0,1,.65333-1.76407,2.515,2.515,0,0,1,3.441,0,2.39786,2.39786,0,0,1,.68332,1.76407V1244.371a6.341,6.341,0,0,0,1.56254,4.4064,5.08735,5.08735,0,0,0,3.95181,1.73408h1.6497a2.06228,2.06228,0,0,1,1.59066.68612,2.49717,2.49717,0,0,1,.62614,1.76125,2.15743,2.15743,0,0,1-.76955,1.73219,2.91711,2.91711,0,0,1-1.96277.6552h-1.1314Z" transform="translate(-8934.42105 -375.17997)"/><path class="cls-3" d="M9421.61654,1243.11868a2.33585,2.33585,0,0,1-2.44739-2.44364v-27.29987a2.35522,2.35522,0,0,1,.68332-1.78937,2.43705,2.43705,0,0,1,1.76407-.65426,2.33748,2.33748,0,0,1,1.73595.65426,2.41627,2.41627,0,0,1,.65425,1.78937V1240.675a2.4449,2.4449,0,0,1-.65425,1.76406A2.30835,2.30835,0,0,1,9421.61654,1243.11868Zm0,12.22754a2.45167,2.45167,0,0,1-1.76407-.6552,2.28562,2.28562,0,0,1-.68332-1.73219v-26.2763a2.35883,2.35883,0,0,1,.68332-1.79032,2.44491,2.44491,0,0,1,1.76407-.65425,2.34483,2.34483,0,0,1,1.73595.65425,2.41854,2.41854,0,0,1,.65425,1.79032v26.2763a2.25079,2.25079,0,0,1-2.3902,2.38739Zm24.11855,0a2.37071,2.37071,0,0,1-1.765-.68332,2.3229,2.3229,0,0,1-.68332-1.70407v-14.50431a10.97872,10.97872,0,0,0-1.30291-5.66057,8.37642,8.37642,0,0,0-3.50188-3.27036,11.26491,11.26491,0,0,0-5.03348-1.0798,11.02048,11.02048,0,0,0-4.77947,1.02451,8.4514,8.4514,0,0,0-3.411,2.81575,7.028,7.028,0,0,0-1.25228,4.12427h-3.2413a12.02838,12.02838,0,0,1,1.84843-6.40013,12.975,12.975,0,0,1,4.80665-4.4664,13.75745,13.75745,0,0,1,6.71038-1.64877,15.05412,15.05412,0,0,1,7.19216,1.67971,12.21181,12.21181,0,0,1,4.97818,4.921,16.03664,16.03664,0,0,1,1.82313,7.96078v14.50431a2.338,2.338,0,0,1-2.38834,2.38739Z" transform="translate(-8934.42105 -375.17997)"/><path class="cls-3" d="M9483.32688,1255.63021a16.05017,16.05017,0,0,1-8.16043-2.04713,14.91694,14.91694,0,0,1-5.60153-5.6259,17.3014,17.3014,0,0,1,0-16.32743,14.88021,14.88021,0,0,1,5.60153-5.62963,16.05976,16.05976,0,0,1,8.16043-2.04714,15.77568,15.77568,0,0,1,8.077,2.04714,14.9569,14.9569,0,0,1,5.57432,5.62963,16.58968,16.58968,0,0,1,2.10057,8.18855,16.10031,16.10031,0,0,1-2.04713,8.13888,14.85156,14.85156,0,0,1-5.60433,5.6259A15.91413,15.91413,0,0,1,9483.32688,1255.63021Zm0-4.37734a10.94279,10.94279,0,0,0,5.68962-1.481,10.34472,10.34472,0,0,0,3.89652-4.06428,12.23949,12.23949,0,0,0,1.39287-5.88928,12.40531,12.40531,0,0,0-1.39287-5.91365,10.31139,10.31139,0,0,0-3.89652-4.09522,11.68931,11.68931,0,0,0-11.37267,0,10.69418,10.69418,0,0,0-3.9565,4.09522,12.00192,12.00192,0,0,0-1.44725,5.91365,11.8452,11.8452,0,0,0,1.44725,5.88928,10.7619,10.7619,0,0,0,3.9565,4.06428A10.92811,10.92811,0,0,0,9483.32688,1251.25287Z" transform="translate(-8934.42105 -375.17997)"/><path class="cls-3" d="M9521.43515,1255.34622a2.43037,2.43037,0,0,1-1.7603-.6552,2.27536,2.27536,0,0,1-.68332-1.73219v-26.2763a2.345,2.345,0,0,1,.68332-1.79032,2.436,2.436,0,0,1,1.7603-.65425,2.344,2.344,0,0,1,1.73688.65425,2.411,2.411,0,0,1,.65426,1.79032v26.2763a2.32708,2.32708,0,0,1-.65426,1.73219A2.352,2.352,0,0,1,9521.43515,1255.34622Zm24.11574,0a2.36938,2.36938,0,0,1-1.76125-.68332,2.32445,2.32445,0,0,1-.68332-1.70407v-14.50431a10.92236,10.92236,0,0,0-1.30851-5.66057,8.31136,8.31136,0,0,0-3.49533-3.27036,11.25615,11.25615,0,0,0-5.03537-1.0798,10.99134,10.99134,0,0,0-4.77291,1.02451,8.47156,8.47156,0,0,0-3.41752,2.81575,7.03909,7.03909,0,0,0-1.24948,4.12427h-3.24131a12.02391,12.02391,0,0,1,1.84281-6.40013,12.98764,12.98764,0,0,1,4.80853-4.4664,13.78184,13.78184,0,0,1,6.716-1.64877,15.11,15.11,0,0,1,7.19686,1.67971,12.21125,12.21125,0,0,1,4.97069,4.921,16.03661,16.03661,0,0,1,1.825,7.96078v14.50431a2.30107,2.30107,0,0,1-.68707,1.70407A2.32463,2.32463,0,0,1,9545.55089,1255.34622Z" transform="translate(-8934.42105 -375.17997)"/><g id="Layer_6" data-name="Layer 6"><path class="cls-2" d="M9091.7085,1198.76167c-16.79532-25.19309,91.80061-87.14544,194.67235-232.41547,56.366-79.59712,99.00743-174.27487,115.82779-214.098a15.83748,15.83748,0,0,1,24.317-6.33173l57.87007,45.00865a15.83473,15.83473,0,0,1,3.27606,21.55738c-50.15367,71.86409-108.91061,166.76128-158.25273,221.805C9201.91965,1176.5197,9108.50381,1223.95477,9091.7085,1198.76167Z" transform="translate(-8934.42105 -375.17997)"/><path class="cls-4" d="M9091.7085,1198.76167s80.25378-17.51456,226.51361-192.81642c178.77851-214.2776,136.55622-238.05516,136.55622-238.05516l29.61737,23.035a15.83473,15.83473,0,0,1,3.27606,21.55738c-50.15367,71.86409-108.91061,166.76128-158.25273,221.805C9201.91965,1176.5197,9108.50381,1223.95477,9091.7085,1198.76167Z" transform="translate(-8934.42105 -375.17997)"/><path class="cls-5" d="M9091.7085,1198.76167c-16.79532-25.19309,91.80061-87.14544,194.67235-232.41547,56.366-79.59712,99.00743-174.27487,115.82779-214.098a15.83748,15.83748,0,0,1,24.317-6.33173l57.87007,45.00865a15.83473,15.83473,0,0,1,3.27606,21.55738c-50.15367,71.86409-108.91061,166.76128-158.25273,221.805C9201.91965,1176.5197,9108.50381,1223.95477,9091.7085,1198.76167Z" transform="translate(-8934.42105 -375.17997)"/><path class="cls-6" d="M9022.63706,655.23071S9193.65632,813.1482,9211.15151,821.8958s75.10419-31.25346,100.77233-20.99424c29.55252,11.81177,46.48436,18.35864,46.18733,32.19116s-20.99425,58.81325-20.99425,58.81325,91.5371,52.07245,93.77425,61.5537c7.348,31.14145-26.5927,44.7877-26.5927,44.7877s6.99808,6.065,3.88455,17.26192-18.81378,31.25809-30.47725,34.52386-19.59472,0-19.59472,0c.0001,19.59458-23.09351,37.08975-29.62509,38.95593a37.89273,37.89273,0,0,1-13.52962.93308c-.32573,10.21432-9.14784,24.85008-23.84362,22.05082s-88.21248-57.86648-90.31191-64.86455a15.04259,15.04259,0,0,1,1.953-12.47109s-73.71309-57.38424-83.97694-69.98078-3.27706-27.08423-14.46269-39.18923-162.669-23.79523-162.669-23.79523Z" transform="translate(-8934.42105 -375.17997)"/><path class="cls-4" d="M9202.75382,1034.63737s-73.71309-57.38424-83.97694-69.98078-3.27706-27.08423-14.46269-39.18923c0,0,15.02837,3.22869,26.27908,29.24043C9143.65635,984.90976,9202.75382,1034.63737,9202.75382,1034.63737Z" transform="translate(-8934.42105 -375.17997)"/><path class="cls-4" d="M9022.63706,655.23071s-21.39431,123.87057-13.81035,177.82716c8.79415,62.5665,82.88179,62.39953,95.48748,92.40949-11.18564-12.105-162.669-23.79523-162.669-23.79523Z" transform="translate(-8934.42105 -375.17997)"/><path class="cls-4" d="M9299.25638,1109.83186s-13.07251-10.96366-56.69386-40.82212-35.73631-40.50881-35.73631-40.50881c-31.212,17.18188,42.7527,60.605,85.8892,82.03076Z" transform="translate(-8934.42105 -375.17997)"/><path class="cls-7" d="M9022.63706,655.23071S9193.65632,813.1482,9211.15151,821.8958s75.10419-31.25346,100.77233-20.99424c29.55252,11.81177,46.48436,18.35864,46.18733,32.19116s-20.99425,58.81325-20.99425,58.81325,91.5371,52.07245,93.77425,61.5537c7.348,31.14145-26.5927,44.7877-26.5927,44.7877s6.99808,6.065,3.88455,17.26192-18.81378,31.25809-30.47725,34.52386-19.59472,0-19.59472,0c.0001,19.59458-23.09351,37.08975-29.62509,38.95593a37.89273,37.89273,0,0,1-13.52962.93308c-.32573,10.21432-9.14784,24.85008-23.84362,22.05082s-88.21248-57.86648-90.31191-64.86455a15.04259,15.04259,0,0,1,1.953-12.47109s-73.71309-57.38424-83.97694-69.98078-3.27706-27.08423-14.46269-39.18923-162.669-23.79523-162.669-23.79523Z" transform="translate(-8934.42105 -375.17997)"/><path class="cls-8" d="M9496.32318,791.10426s43.0382,17.49519,80.128-73.31492c43.71348-107.0274-42.68827-175.81667-42.68827-175.81667s-10.49715,31.06073-37.43974,59.96816-59.83355,35.90551-78.72836,64.59763-3.499,66.56411-3.499,66.56411Z" transform="translate(-8934.42105 -375.17997)"/><path class="cls-9" d="M9502.97149,625.24978l12.59659,60.8833c28.17728-30.18946,30.54741-77.20277,23.79318-130.16425,30.20756,37.71945,34.99051,110.91954,16.79551,153.25791s-46.18742,65.08214-46.18742,65.08214c13.69207-24.00526,20.88943-49.163,20.99448-75.57926-18.81281,29.43743-36.57207,53.84654-66.4817,62.28287C9488.52821,726.79175,9511.14824,684.65318,9502.97149,625.24978Z" transform="translate(-8934.42105 -375.17997)"/><path class="cls-9" d="M9477.77829,629.09875s-9.12735,10.93713-18.195,17.8451c-11.14669,8.49183-23.48563,14.0742-34.29059,24.49327-19.59461,18.89481-3.499,70.33068,7.348,68.23126s7.348-34.99039,12.59654-50.38616S9477.77829,629.09875,9477.77829,629.09875Z" transform="translate(-8934.42105 -375.17997)"/><path class="cls-7" d="M9297.92768,827.49426s-43.38808,77.8436-43.38808,87.20854,48.98655,41.5561,58.78385,33.85821,22.62712-54.81828,22.62712-54.81828" transform="translate(-8934.42105 -375.17997)"/><line class="cls-6" x1="469.87742" y1="623.0674" x2="364.83532" y2="572.38532"/><path class="cls-7" d="M9356.94481,1049.33334s-87.476-62.74944-87.476-73.01328,20.77947-32.70626,20.77947-32.70626" transform="translate(-8934.42105 -375.17997)"/><path class="cls-7" d="M9313.061,1088.98911s-81.84836-69.45592-81.84836-78.61174,20.06116-35.50726,25.19308-36.48915,16.29969,7.73871,16.29969,7.73871" transform="translate(-8934.42105 -375.17997)"/><path class="cls-7" d="M9203.94933,1032.43525c2.193-3.01177,14.9231-20.93171,20.7318-22.52442,3.61568-.99139,7.93116,3.76654,7.93116,3.76654" transform="translate(-8934.42105 -375.17997)"/><circle class="cls-9" cx="578.34763" cy="170.99155" r="11.54683"/><circle class="cls-9" cx="325.71701" cy="229.9568" r="11.54683"/><circle class="cls-9" cx="566.8008" cy="199.224" r="3.95871"/><path class="cls-9" d="M9497.48863,583.87991c-38.6721,30.13154-77.59352,24.44079-77.80649,22.111S9466.60676,601.70132,9497.48863,583.87991Z" transform="translate(-8934.42105 -375.17997)"/><path class="cls-9" d="M9280.26854,726.4938c-1.52447,49.0012-30.76746,75.30916-32.69594,73.9846S9274.25027,761.63741,9280.26854,726.4938Z" transform="translate(-8934.42105 -375.17997)"/><path class="cls-6" d="M9489.82609,997.56888c-29.39188-44.82821,58.08409-94.96564,119.21231-94.96564l-10.04225,54.62486-24.49327,45.65Z" transform="translate(-8934.42105 -375.17997)"/><path class="cls-2" d="M9782.90922,1209.78321c16.79532-25.19309-91.8006-87.14544-194.67235-232.41547-56.366-79.59712-99.00742-174.27487-115.82779-214.098a15.83748,15.83748,0,0,0-24.317-6.33173L9390.222,801.94664A15.83473,15.83473,0,0,0,9386.946,823.504c50.15368,71.86409,108.91061,166.76128,158.25273,221.805C9672.69807,1187.54124,9766.11391,1234.97631,9782.90922,1209.78321Z" transform="translate(-8934.42105 -375.17997)"/><path class="cls-4" d="M9782.90922,1209.78321s-80.25377-17.51456-226.51361-192.81642c-178.77851-214.2776-136.55622-238.05516-136.55622-238.05516l-29.61737,23.035A15.83473,15.83473,0,0,0,9386.946,823.504c50.15368,71.86409,108.91061,166.76128,158.25273,221.805C9672.69807,1187.54124,9766.11391,1234.97631,9782.90922,1209.78321Z" transform="translate(-8934.42105 -375.17997)"/><path class="cls-10" d="M9782.90922,1209.78321c16.79532-25.19309-91.8006-87.14544-194.67235-232.41547-56.366-79.59712-99.00742-174.27487-115.82779-214.098a15.83748,15.83748,0,0,0-24.317-6.33173L9390.222,801.94664A15.83473,15.83473,0,0,0,9386.946,823.504c50.15368,71.86409,108.91061,166.76128,158.25273,221.805C9672.69807,1187.54124,9766.11391,1234.97631,9782.90922,1209.78321Z" transform="translate(-8934.42105 -375.17997)"/><path class="cls-6" d="M9903.06394,803.47927s-182.50423,45.80527-233.53327,36.05164c-19.21242-3.67224-74.82909-31.03039-100.70605-21.3099-67.29222,25.27784-45.80576,70.61431-53.31176,83.201s-90.61868,48.542-66.41111,93.01036c13.835,25.41427,20.61268,16.44139,43.534,7.63276,0,0-16.33463,16.93011-13.2562,28.13674s23.01439,27.83854,34.66756,31.14084,22.14062-6.742,22.14062-6.742c-7.44839,22.38528,15.26865,39.20717,21.79436,41.09381s25.55118-5.72915,25.55118-5.72915c-10.14632,23.53509,23.3006,32.84024,38.00508,30.087,7.69781-1.44131,60.40479-5.13114,98.88467-45.10771,35.19609-36.565,45.32247-44.45455,50.232-50.44144,3.46511-4.22553,22.49313-18.12895,48.25276-21.61122,50.83487-6.872,84.15625-34.55946,84.15625-34.55946Z" transform="translate(-8934.42105 -375.17997)"/><path class="cls-4" d="M9583.53329,1089.96537c-10.14648,23.5351,23.30053,32.84026,38.005,30.08706,7.69781-1.44131,60.40479-5.13114,98.88467-45.10771,35.19609-36.565,45.32247-44.45455,50.232-50.44144,3.46511-4.22553,22.27416-20.71845,48.25276-21.61122,84.15625-2.89206,66.35037-44.73077,66.35037-44.73077C9731.96774,922.54839,9627.44867,1172.99557,9583.53329,1089.96537Z" transform="translate(-8934.42105 -375.17997)"/><path class="cls-7" d="M9903.06394,803.47927s-182.50423,45.80527-233.53327,36.05164c-19.21242-3.67224-74.82909-31.03039-100.70605-21.3099-67.29222,25.27784-45.80576,70.61431-53.31176,83.201s-90.61868,48.542-66.41111,93.01036c13.835,25.41427,20.61268,16.44139,43.534,7.63276,0,0-16.33463,16.93011-13.2562,28.13674s23.01439,27.83854,34.66756,31.14084,22.14062-6.742,22.14062-6.742c-7.44839,22.38528,15.26865,39.20717,21.79436,41.09381s25.55118-5.72915,25.55118-5.72915c-10.14632,23.53509,23.3006,32.84024,38.00508,30.087,7.69781-1.44131,60.40479-5.13114,98.88467-45.10771,35.19609-36.565,45.32247-44.45455,50.232-50.44144,3.46511-4.22553,22.49313-18.12895,48.25276-21.61122,50.83487-6.872,84.15625-34.55946,84.15625-34.55946Z" transform="translate(-8934.42105 -375.17997)"/><path class="cls-11" d="M9378.29454,802.12579s-43.0382,17.4952-80.128-73.31491c-43.71348-107.0274,42.68828-175.81667,42.68828-175.81667s10.49714,31.06073,37.43973,59.96816,59.83355,35.90551,78.72836,64.59763,3.499,66.56411,3.499,66.56411Z" transform="translate(-8934.42105 -375.17997)"/><path class="cls-12" d="M9367.12667,612.7249l-9.27342,72.76626c-28.17728-30.18947-31.489-69.28009-24.73477-122.24158-30.20756,37.71945-48.10277,102.43778-29.90776,144.77616s69.73646,39.13054,69.73646,39.13054c-13.69207-24.00525-30.38463-22.65231-30.48968-49.06858,18.8128,29.43743,77.63445,15.49786,107.54409,23.93419C9434.77459,674.435,9405.49951,635.5804,9367.12667,612.7249Z" transform="translate(-8934.42105 -375.17997)"/><path class="cls-12" d="M9439.65942,747.15628s-13.10519,5.58423-22.33527,12.27362c-11.34636,8.22313-20.25089,18.42712-33.344,25.76709-23.74411,13.31092-68.35013-16.93837-63.21086-26.71863s35.62256,3.05826,51.8779,2.47414S9439.65942,747.15628,9439.65942,747.15628Z" transform="translate(-8934.42105 -375.17997)"/><path class="cls-6" d="M9678.84967,981.586" transform="translate(-8934.42105 -375.17997)"/><path class="cls-6" d="M9569.933,939.87655" transform="translate(-8934.42105 -375.17997)"/><path class="cls-7" d="M9565.21642,1009.374" transform="translate(-8934.42105 -375.17997)"/><circle class="cls-12" cx="441.42049" cy="172.12324" r="11.54683"/><circle class="cls-12" cx="488.46367" cy="214.49015" r="3.95871"/><circle class="cls-12" cx="329.67572" cy="309.2348" r="3.95871"/><circle class="cls-12" cx="678.57606" cy="289.95889" r="3.95871"/><path class="cls-12" d="M9487.16573,681.333c24.38059,42.53266,62.55813,52.00563,63.63757,49.93S9508.99828,709.52225,9487.16573,681.333Z" transform="translate(-8934.42105 -375.17997)"/><line class="cls-13" x1="589.99609" y1="620.40548" x2="615.32466" y2="650.73246"/><path class="cls-1" d="M9522.49964,997.503l22.22961,26.61645,3.099,3.71052a2.73269,2.73269,0,0,0,3.835,0,2.77077,2.77077,0,0,0,0-3.835l-22.22962-26.61646-3.099-3.71052a2.73271,2.73271,0,0,0-3.835,0,2.77078,2.77078,0,0,0,0,3.835Z" transform="translate(-8934.42105 -375.17997)"/><line class="cls-13" x1="548.92689" y1="585.34762" x2="568.20451" y2="608.42953"/><path class="cls-1" d="M9481.88853,961.987l16.90119,20.2365,2.37643,2.84541a2.07987,2.07987,0,0,0,2.91883,0,2.10885,2.10885,0,0,0,0-2.91883l-16.90119-20.2365-2.37643-2.8454a2.07986,2.07986,0,0,0-2.91883,0,2.10884,2.10884,0,0,0,0,2.91882Z" transform="translate(-8934.42105 -375.17997)"/><line class="cls-13" x1="625.53238" y1="672.18388" x2="644.45583" y2="693.48827"/><path class="cls-1" d="M9558.03593,1049.28135l16.6,18.68866,2.3234,2.61573a2.71175,2.71175,0,1,0,3.835-3.835l-16.6-18.68866-2.32341-2.61573a2.71175,2.71175,0,0,0-3.835,3.835Z" transform="translate(-8934.42105 -375.17997)"/><line class="cls-13" x1="658.89858" y1="711.80538" x2="671.86064" y2="728.30376"/><path class="cls-1" d="M9591.98815,1088.31682l11.35741,14.45594,1.60465,2.04244a1.8936,1.8936,0,0,0,2.663,0,1.93016,1.93016,0,0,0,0-2.66295l-11.35741-14.456-1.60465-2.04243a1.89359,1.89359,0,0,0-2.663,0,1.93016,1.93016,0,0,0,0,2.66295Z" transform="translate(-8934.42105 -375.17997)"/></g><circle class="cls-14" cx="500.93852" cy="500.24543" r="467.70437"/></g></svg>