<svg id="Layer_2" data-name="Layer 2" xmlns="http://www.w3.org/2000/svg" viewBox="0 0 973.90015 1148.88936"><defs><style>.cls-1,.cls-10{fill:#fef568;}.cls-1,.cls-6{stroke:#6034fd;}.cls-1,.cls-4,.cls-5,.cls-6{stroke-miterlimit:10;}.cls-1{stroke-width:12.85454px;}.cls-2{fill:#fff;}.cls-3{fill:#cdc9fb;}.cls-4{fill:none;stroke:#602ffd;stroke-width:15.09273px;}.cls-5{fill:#50d1bb;stroke:#6733ff;stroke-width:10px;}.cls-6{fill:#fccdd3;stroke-width:11.0973px;}.cls-7{fill:#5cbeff;}.cls-8{fill:#6733ff;}.cls-9{fill:#f88799;}.cls-11{fill:#6534ff;}</style></defs><path class="cls-1" d="M3027.62415,1304.84017v257.25642c0,6.27215,12.9708,9.02907,19.36466,4.11591l76.63382-58.88676c4.34742-3.34064,12.66446-3.34064,17.01188,0l76.63382,58.88676c6.39386,4.91316,19.36466,2.15624,19.36466-4.11591V1304.84017c0-3.6569-4.86161-6.62139-10.85872-6.62139h-187.2914C3032.48576,1298.21878,3027.62415,1301.18327,3027.62415,1304.84017Z" transform="translate(-2645.17896 -426.26896)"/><circle class="cls-2" cx="486.95007" cy="484.73104" r="415.90323"/><path class="cls-2" d="M3154.2184,1339.56992h-41.12161c-25.90324-59.61291-60.781-420.13624-43.10231-482.06776,3.589-15.49519,5.63044-28.48123,11.56762-23.79986q52.09558,41.07655,104.19117,0c5.93718-4.68138,7.57212,8.30466,11.56764,23.79985C3212.48566,927.15146,3178.6894,1275.31185,3154.2184,1339.56992Z" transform="translate(-2645.17896 -426.26896)"/><path class="cls-3" d="M3133.14233,1339.57l-20.04554,0c-25.90324-59.61291-60.781-420.13624-43.10231-482.06776,3.589-15.49519,5.63044-28.48123,11.56762-23.79986,19.4122,15.30622,58.23648,20.2529,58.23648,20.2529C3078.19824,873.73828,3115.07056,1344.55237,3133.14233,1339.57Z" transform="translate(-2645.17896 -426.26896)"/><path class="cls-4" d="M3154.2184,1339.56992h-41.12161c-25.90324-59.61291-60.781-420.13624-43.10231-482.06776,3.589-15.49519,5.63044-28.48123,11.56762-23.79986q52.09558,41.07655,104.19117,0c5.93718-4.68138,7.57212,8.30466,11.56764,23.79985C3212.48566,927.15146,3178.6894,1275.31185,3154.2184,1339.56992Z" transform="translate(-2645.17896 -426.26896)"/><path class="cls-5" d="M3614.07911,913.219a120.42184,120.42184,0,0,0-37.99-87.93005,120.73847,120.73847,0,0,0-67.89014-162.9,120.74722,120.74722,0,0,0-124.31983-125.27,120.74271,120.74271,0,0,0-163.19018-67.19,120.75927,120.75927,0,0,0-176.49-.67,120.73813,120.73813,0,0,0-162.8999,67.89,120.74759,120.74759,0,0,0-125.27,124.32,120.74268,120.74268,0,0,0-67.18994,163.19,120.75881,120.75881,0,0,0-.66993,176.49,120.73816,120.73816,0,0,0,67.8899,162.9,120.7475,120.7475,0,0,0,124.32006,125.27,120.749,120.749,0,0,0,163.2,67.19006,120.74781,120.74781,0,0,0,176.48.66992,120.73813,120.73813,0,0,0,162.8999-67.89,120.74713,120.74713,0,0,0,125.27-124.32,120.74909,120.74909,0,0,0,67.19018-163.19995A120.43972,120.43972,0,0,0,3614.07911,913.219ZM3486.249,983.959a96.47165,96.47165,0,0,1-53.66992,130.37,96.45751,96.45751,0,0,1-100.07007,99.30993,96.45344,96.45344,0,0,1-130.1399,54.23,96.4602,96.4602,0,0,1-140.98022-.52991,96.47163,96.47163,0,0,1-130.36987-53.67,96.45809,96.45809,0,0,1-99.31006-100.08,96.43888,96.43888,0,0,1-54.23-130.13,96.46038,96.46038,0,0,1,.53-140.98,96.4716,96.4716,0,0,1,53.66992-130.37,96.45759,96.45759,0,0,1,100.07007-99.31,96.468,96.468,0,0,1,130.13989-54.24,96.47112,96.47112,0,0,1,140.98022.54,96.47165,96.47165,0,0,1,130.36988,53.67,96.45752,96.45752,0,0,1,99.31006,100.07,96.468,96.468,0,0,1,54.24,130.14,96.47074,96.47074,0,0,1-.54,140.98Z" transform="translate(-2645.17896 -426.26896)"/><rect class="cls-6" x="16.87683" y="547.88161" width="940.14648" height="216.51256" rx="34.77426"/><path class="cls-7" d="M3154.23659,592.31717c-3.27936,1.9157-25.92354,57.90089,15.93326,111.07829,37.90235,48.15342,8.42742,114.70589,14.38224,119.288,0,0,49.431-53.12817,10.56611-129.1613C3163.41368,631.49719,3154.23659,592.31717,3154.23659,592.31717Z" transform="translate(-2645.17896 -426.26896)"/><path class="cls-7" d="M3148.08,825.08057s17.53851-34.81177,14.25619-61.0614-16.34137-88.89673-26.29663-83.5065c-4.89338,2.64951-7.43457,46.62716,6.17594,72.31242C3158.03958,782.68768,3148.08,825.08057,3148.08,825.08057Z" transform="translate(-2645.17896 -426.26896)"/><path class="cls-7" d="M3112.4939,831.0968c14.20947-7.59127,24.88817-33.61544,24.77447-91.99787-.12411-63.72646,28.36021-167.24826,28.36021-167.24826s-92.99615,65.09386-112.17529,149.27511C3035.56291,799.65039,3098.28444,838.68807,3112.4939,831.0968Z" transform="translate(-2645.17896 -426.26896)"/><path class="cls-8" d="M3082.72921,767.268c5.86912,21.692,17.45513,42.57008,30.44633,63.25949,0,0-27.42984-21.74386-39.19985-49.02037a76.88045,76.88045,0,0,0,.92328,9.8059c-10.33262-17.7535-17.05926-40.42462-11.28421-67.004,4.45637-20.48992,26.06865-79.76527,64.55975-94.33535.70929-.26849-40.09868,58.74179-48.79128,86.801,11.06257-23.59128,27.79658-42.1711,35.42288-38.48133,14.31619,6.92571-12.3991,27.90428-7.97168,67.185,4.15976,36.90174,17.8187,71.231,17.8187,71.231C3105.65864,802.57221,3091.235,786.29816,3082.72921,767.268Z" transform="translate(-2645.17896 -426.26896)"/><path class="cls-8" d="M3151.55187,593.88683c-.93077,21.77067,10.29494,43.89661,20.61881,62.07181,33.46849,58.92133,45.36716,135.8804,15.84159,158.63964,13.28161-53.636-7.10335-106.37716-31.89366-155.48446C3147.55332,642.14677,3139.82557,612.08155,3151.55187,593.88683Z" transform="translate(-2645.17896 -426.26896)"/><path class="cls-9" d="M2976.15553,711.69866l5.71542,17.59023a1.46886,1.46886,0,0,0,1.397,1.015h18.49547a1.46887,1.46887,0,0,1,.86338,2.65721l-14.96315,10.87136a1.46885,1.46885,0,0,0-.53359,1.64224l5.71541,17.59023a1.46887,1.46887,0,0,1-2.26036,1.64225l-14.96314-10.87136a1.46887,1.46887,0,0,0-1.72676,0L2958.932,764.70715a1.46887,1.46887,0,0,1-2.26035-1.64225l5.71541-17.59023a1.46887,1.46887,0,0,0-.5336-1.64224l-14.96314-10.87136a1.46887,1.46887,0,0,1,.86338-2.65721h18.49546a1.46888,1.46888,0,0,0,1.397-1.015l5.71541-17.59023A1.46887,1.46887,0,0,1,2976.15553,711.69866Z" transform="translate(-2645.17896 -426.26896)"/><path class="cls-9" d="M3306.10474,862.181l5.71541,17.59022a1.46888,1.46888,0,0,0,1.397,1.015h18.49546a1.46887,1.46887,0,0,1,.86338,2.65721l-14.96314,10.87136a1.46887,1.46887,0,0,0-.5336,1.64224l5.71542,17.59023a1.46887,1.46887,0,0,1-2.26036,1.64225l-14.96315-10.87136a1.46887,1.46887,0,0,0-1.72676,0l-14.96314,10.87136a1.46887,1.46887,0,0,1-2.26036-1.64225l5.71542-17.59023a1.46887,1.46887,0,0,0-.5336-1.64224l-14.96315-10.87136a1.46887,1.46887,0,0,1,.86338-2.65721h18.49547a1.46886,1.46886,0,0,0,1.397-1.015l5.71542-17.59022A1.46886,1.46886,0,0,1,3306.10474,862.181Z" transform="translate(-2645.17896 -426.26896)"/><path class="cls-7" d="M2863.38105,783.59641l5.71542,17.59023a1.46885,1.46885,0,0,0,1.397,1.015h18.49547a1.46887,1.46887,0,0,1,.86338,2.65721l-14.96315,10.87136a1.46888,1.46888,0,0,0-.5336,1.64225l5.71542,17.59023a1.46887,1.46887,0,0,1-2.26036,1.64225l-14.96314-10.87136a1.46887,1.46887,0,0,0-1.72676,0l-14.96315,10.87136a1.46888,1.46888,0,0,1-2.26036-1.64225l5.71542-17.59023a1.46888,1.46888,0,0,0-.5336-1.64225l-14.96314-10.87136a1.46887,1.46887,0,0,1,.86338-2.65721h18.49546a1.46887,1.46887,0,0,0,1.397-1.015l5.71541-17.59023A1.46886,1.46886,0,0,1,2863.38105,783.59641Z" transform="translate(-2645.17896 -426.26896)"/><path class="cls-8" d="M2969.26623,887.77512l5.71541,17.59023a1.46889,1.46889,0,0,0,1.397,1.015h18.49546a1.46887,1.46887,0,0,1,.86338,2.65721l-14.96314,10.87136a1.46888,1.46888,0,0,0-.5336,1.64225l5.71541,17.59023a1.46886,1.46886,0,0,1-2.26035,1.64224l-14.96315-10.87136a1.46887,1.46887,0,0,0-1.72676,0l-14.96314,10.87136a1.46887,1.46887,0,0,1-2.26036-1.64224l5.71541-17.59023a1.46886,1.46886,0,0,0-.53359-1.64225L2940.001,909.03752a1.46887,1.46887,0,0,1,.86338-2.65721h18.49547a1.46886,1.46886,0,0,0,1.397-1.015l5.71542-17.59023A1.46886,1.46886,0,0,1,2969.26623,887.77512Z" transform="translate(-2645.17896 -426.26896)"/><path class="cls-8" d="M3271.87173,613.84453l5.71542,17.59023a1.46886,1.46886,0,0,0,1.397,1.015h18.49547a1.46887,1.46887,0,0,1,.86338,2.65721l-14.96315,10.87136a1.46886,1.46886,0,0,0-.53359,1.64225l5.71541,17.59023a1.46887,1.46887,0,0,1-2.26036,1.64224l-14.96314-10.87136a1.4689,1.4689,0,0,0-1.72676,0L3254.64823,666.853a1.46886,1.46886,0,0,1-2.26035-1.64224l5.71541-17.59023a1.46888,1.46888,0,0,0-.5336-1.64225l-14.96314-10.87136a1.46887,1.46887,0,0,1,.86338-2.65721h18.49546a1.46889,1.46889,0,0,0,1.397-1.015l5.71541-17.59023A1.46886,1.46886,0,0,1,3271.87173,613.84453Z" transform="translate(-2645.17896 -426.26896)"/><path class="cls-7" d="M3333.96139,728.17108l5.71541,17.59023a1.46887,1.46887,0,0,0,1.397,1.015h18.49546a1.46887,1.46887,0,0,1,.86338,2.65721l-14.96314,10.87136a1.46887,1.46887,0,0,0-.5336,1.64224l5.71541,17.59023a1.46887,1.46887,0,0,1-2.26036,1.64225l-14.96314-10.87136a1.46887,1.46887,0,0,0-1.72676,0l-14.96314,10.87136a1.46887,1.46887,0,0,1-2.26036-1.64225l5.71541-17.59023a1.46887,1.46887,0,0,0-.5336-1.64224l-14.96314-10.87136a1.46887,1.46887,0,0,1,.86338-2.65721H3324.055a1.46887,1.46887,0,0,0,1.397-1.015l5.71541-17.59023A1.46887,1.46887,0,0,1,3333.96139,728.17108Z" transform="translate(-2645.17896 -426.26896)"/><path class="cls-10" d="M3416.833,815.65889l5.71542,17.59023a1.46886,1.46886,0,0,0,1.397,1.015h18.49546a1.46887,1.46887,0,0,1,.86339,2.65721l-14.96315,10.87136a1.46888,1.46888,0,0,0-.5336,1.64225l5.71542,17.59023a1.46887,1.46887,0,0,1-2.26036,1.64224L3416.29937,857.796a1.46887,1.46887,0,0,0-1.72676,0l-14.96315,10.87136a1.46887,1.46887,0,0,1-2.26036-1.64224l5.71542-17.59023a1.46888,1.46888,0,0,0-.5336-1.64225l-14.96314-10.87136a1.46887,1.46887,0,0,1,.86338-2.65721h18.49546a1.46889,1.46889,0,0,0,1.397-1.015l5.71541-17.59023A1.46886,1.46886,0,0,1,3416.833,815.65889Z" transform="translate(-2645.17896 -426.26896)"/><path class="cls-10" d="M3027.52428,582.62663l5.71541,17.59023a1.46886,1.46886,0,0,0,1.397,1.015h18.49546a1.46887,1.46887,0,0,1,.86338,2.65721l-14.96314,10.87136a1.46887,1.46887,0,0,0-.5336,1.64225l5.71541,17.59023a1.46887,1.46887,0,0,1-2.26036,1.64224l-14.96314-10.87136a1.4689,1.4689,0,0,0-1.72676,0l-14.96314,10.87136a1.46887,1.46887,0,0,1-2.26036-1.64224l5.71541-17.59023a1.46888,1.46888,0,0,0-.5336-1.64225L2998.25909,603.889a1.46887,1.46887,0,0,1,.86338-2.65721h18.49546a1.46886,1.46886,0,0,0,1.397-1.015l5.71541-17.59023A1.46887,1.46887,0,0,1,3027.52428,582.62663Z" transform="translate(-2645.17896 -426.26896)"/><path class="cls-11" d="M2721.45124,1058.98312c0,5.91162.10942,11.81951-.0445,17.73113-.09086,3.412.7306,5.24219,4.69333,5.17174,11.1-.20027,22.20936-.0408,33.30568-.09272,6.06181-.02411,9.27354-3.47131,9.47936-9.22717.30782-8.73576.3616-17.4975.01112-26.23881-.2318-5.95983-3.34152-9.59618-9.91513-9.522-10.629.12982-21.2655.17616-31.89083-.03152-4.38921-.08344-5.87082,1.67446-5.691,5.88565.22809,5.44246.05192,10.88306.05192,16.32369m-16.01773,21.86445c0-17.76636.17987-35.53459-.11683-53.301-.09086-5.14393,1.08106-6.99269,6.59958-6.86474,16.09006.382,32.19311.11313,48.29058.14278,13.61821.03152,24.10634,9.70928,24.60515,23.20515.37273,10.17286.38568,20.38468-.00742,30.55386a23.69,23.69,0,0,1-23.45547,22.98448c-10.88122.26518-21.79029.37457-32.6641-.05006-5.51849-.21325-6.82023,1.74492-6.64406,6.90925.34491,10.40281.2763,20.84827-.08531,31.25108-.14835,4.41146-1.84135,8.45576-7.31163,8.95644-4.39292.40608-7.36541-1.64852-8.82107-5.5797-.62492-1.69486-.37457-3.74206-.37457-5.6205q-.04176-26.29353-.01485-52.58706" transform="translate(-2645.17896 -426.26896)"/><path class="cls-11" d="M3066.84318,1059.2724c0,5.90976.15019,11.82695-.06491,17.72559-.1224,3.75317,1.37038,4.93253,4.99371,4.8732,10.86456-.16134,21.74207-.0779,32.6029-.05933,6.38632.013,9.739-3.41755,9.92256-9.535.26331-8.73392.356-17.50675-.03893-26.23139-.27446-6.034-3.68456-9.35511-10.184-9.24573-10.38983.1743-20.79448.21881-31.18063-.03338-4.65253-.11126-6.3715,1.578-6.13043,6.18605.2911,5.43132.07974,10.87752.07974,16.32m-16.03443,21.35079c0-17.76452.22625-35.542-.12608-53.29727-.11313-5.48511,1.66147-6.72938,6.83876-6.62924,16.08451.3171,32.19307.08531,48.29054.12982,13.49214.03152,23.945,9.88917,24.38261,23.42395.33009,9.93365.31527,19.9007.01483,29.8418a23.75092,23.75092,0,0,1-23.70393,23.48883q-16.67508.356-33.37614-.026c-4.32617-.08715-5.78551,1.3203-5.6854,5.67613.254,10.17473.24107,20.368.01482,30.54829-.11867,5.45358-1.21272,10.89608-8.36861,10.81261-6.27875-.07416-8.36487-4.09809-8.32594-9.95963.12054-18,.04454-36.00188.04454-54.00931" transform="translate(-2645.17896 -426.26896)"/><path class="cls-11" d="M2883.52,1082.86878c-.46359-2.29751-.47658-4.80829-1.46121-6.85548-5.7169-11.94562-11.48574-23.87455-17.60134-35.61619-2.66654-5.11241-6.86474-5.06049-9.55168.15389-5.83743,11.35222-11.31886,22.89733-16.75391,34.44612-2.80748,5.96538-2.05831,12.01053.79364,17.79233,5.12723,10.38983,10.3546,20.74443,15.52447,31.11943,1.18494,2.3717,2.38283,4.90472,5.50367,4.76191,2.68507-.12237,3.88854-2.3105,4.98259-4.4986,5.39612-10.79224,10.85528-21.55106,16.25137-32.334a21.26212,21.26212,0,0,0,2.3124-8.9694m-62.886.18545c-.38014-4.3002-.07789-8.40571,1.66705-12.05875,6.52911-13.65718,12.64657-27.561,20.1529-40.6711,8.0478-14.06326,28.67172-13.03225,36.09089,1.31843,6.18606,11.97528,12.01978,24.14527,17.91842,36.26335a32.81544,32.81544,0,0,1,.21326,29.4635c-5.31268,11.35409-10.98694,22.54129-16.43311,33.82676-4.15372,8.60227-10.34532,13.9038-20.46629,13.55518-9.61287-.33377-15.69692-5.32564-19.72269-13.74062-5.00486-10.46215-10.25263-20.79451-15.52447-31.12313-2.7574-5.39425-4.456-10.95352-3.896-16.83362" transform="translate(-2645.17896 -426.26896)"/><path class="cls-11" d="M2976.487,1061.03031c-.61751.013-1.21272.0241-1.83764.03893-2.17514,7.3784-4.52645,14.7123-6.47534,22.15558-1.58361,6.0785-7.54342,14.22273-3.40642,17.707,4.03688,3.38786,13.03783.82333,19.85622.9661,2.97436.06862,3.53991-.92159,2.6647-3.80139-3.73465-12.31832-7.21707-24.70525-10.80152-37.06624m30.1422,83.62489c-4.7137.09085-6.63667-3.08562-7.84566-6.8833a135.211,135.211,0,0,1-4.32431-14.96446c-.83815-4.20934-2.97436-5.24777-6.86847-5.15134q-12.41107.30317-24.8351-.0037c-3.69752-.09827-5.58711,1.20346-6.49017,4.82869-1.33325,5.25889-3.30626,10.35276-4.62842,15.62831-1.36851,5.5-4.87877,7.55086-9.98374,6.27507-5.8597-1.46307-6.94079-6.15824-5.5222-11.22056,3.41938-12.28126,7.23-24.4568,10.85528-36.675q9.9939-33.61164,19.96193-67.23258c1.01245-3.45835,2.05461-7.18555,6.00989-8.11829,4.82869-1.14784,9.03246-.03338,10.62535,5.49068q15.53466,53.76642,30.99332,107.55507c1.67257,5.87823-2.19925,10.6513-7.9477,10.47143" transform="translate(-2645.17896 -426.26896)"/><path class="cls-11" d="M3177.44976,1148.30648a28.79472,28.79472,0,0,1-15.29825-4.10734,29.75511,29.75511,0,0,1-10.68466-11.19091,32.29178,32.29178,0,0,1-3.94233-15.98251,31.44051,31.44051,0,0,1,4.10921-16.09006,30.19661,30.19661,0,0,1,11.19646-11.19462,31.26,31.26,0,0,1,15.97323-4.11105,30.7165,30.7165,0,0,1,15.80634,4.11105,30.38639,30.38639,0,0,1,11.139,11.19462,32.35226,32.35226,0,0,1,4.22417,16.09006l-3.82549,1.80241a30.07955,30.07955,0,0,1-3.76617,15.0238,28.33892,28.33892,0,0,1-10.23776,10.57894A28.02468,28.02468,0,0,1,3177.44976,1148.30648Zm1.35182-8.6597a21.42027,21.42027,0,0,0,11.139-2.92983,20.66416,20.66416,0,0,0,7.76595-8.10529,25.39543,25.39543,0,0,0,0-23.2348,21.86695,21.86695,0,0,0-30.04393-8.096,22.12049,22.12049,0,0,0-7.87905,8.096,24.53844,24.53844,0,0,0,0,23.2348,21.29966,21.29966,0,0,0,19.018,11.03512Zm26.33153,8.09788a4.83194,4.83194,0,0,1-3.48986-1.29619,4.50435,4.50435,0,0,1-1.34624-3.42679V1124.4561l2.138-9.90214,7.53787,2.47182v25.9959a4.41433,4.41433,0,0,1-1.41115,3.42679A4.88116,4.88116,0,0,1,3205.13311,1147.74466Z" transform="translate(-2645.17896 -426.26896)"/><path class="cls-11" d="M3245.86171,1096.6596a4.54326,4.54326,0,0,1-3.15423-1.12,3.7824,3.7824,0,0,1-1.235-2.92985,3.94867,3.94867,0,0,1,1.235-2.9799,4.37107,4.37107,0,0,1,3.15423-1.18494h27.7909a4.3533,4.3533,0,0,1,3.14681,1.18494,3.94632,3.94632,0,0,1,1.23686,2.9799,3.77758,3.77758,0,0,1-1.23686,2.92985,4.52129,4.52129,0,0,1-3.14681,1.12Zm27.00651,51.08506a19.51927,19.51927,0,0,1-17.72-10.58269,23.2614,23.2614,0,0,1-2.64613-11.1297v-54.57306a4.85049,4.85049,0,0,1,1.29248-3.48987,4.97549,4.97549,0,0,1,6.80727,0,4.74372,4.74372,0,0,1,1.35181,3.48987v54.573a12.54441,12.54441,0,0,0,3.09119,8.7172,10.06435,10.06435,0,0,0,7.81788,3.43053h3.26362a4.07982,4.07982,0,0,1,3.14681,1.35736,4.94017,4.94017,0,0,1,1.2387,3.48429,4.268,4.268,0,0,1-1.52241,3.42679,5.77085,5.77085,0,0,1-3.883,1.29619h-2.23824Z" transform="translate(-2645.17896 -426.26896)"/><path class="cls-11" d="M3321.92091,1123.55485a4.621,4.621,0,0,1-4.84168-4.83427v-54.00747a4.65939,4.65939,0,0,1,1.35182-3.53992,4.82121,4.82121,0,0,1,3.48986-1.29432,4.62422,4.62422,0,0,1,3.43424,1.29432,4.78008,4.78008,0,0,1,1.29432,3.53992v54.00747a4.83674,4.83674,0,0,1-1.29432,3.48987A4.56657,4.56657,0,0,1,3321.92091,1123.55485Zm0,24.18981a4.85009,4.85009,0,0,1-3.48986-1.29619,4.52167,4.52167,0,0,1-1.35182-3.42679v-51.98255a4.66649,4.66649,0,0,1,1.35182-3.54179,4.83673,4.83673,0,0,1,3.48986-1.29432,4.63875,4.63875,0,0,1,3.43424,1.29432,4.78452,4.78452,0,0,1,1.29432,3.54179v51.98255a4.45278,4.45278,0,0,1-4.72856,4.723Zm47.71387,0a4.69,4.69,0,0,1-3.4917-1.35182,4.59541,4.59541,0,0,1-1.35182-3.37116v-28.694q0-6.8564-2.57755-11.19833a16.571,16.571,0,0,0-6.92778-6.46977,22.28535,22.28535,0,0,0-9.95776-2.13617,21.80178,21.80178,0,0,0-9.45525,2.02679,16.71967,16.71967,0,0,0-6.74793,5.57041,13.90348,13.90348,0,0,0-2.47739,8.15906h-6.41227a23.79575,23.79575,0,0,1,3.65675-12.6614,25.66838,25.66838,0,0,1,9.509-8.8359,27.2164,27.2164,0,0,1,13.27517-3.26178,29.78157,29.78157,0,0,1,14.22828,3.323,24.15873,24.15873,0,0,1,9.84838,9.73526q3.60208,6.40857,3.60669,15.74885v28.694a4.62533,4.62533,0,0,1-4.72485,4.723Z" transform="translate(-2645.17896 -426.26896)"/><path class="cls-11" d="M3444.0028,1148.30648a31.75215,31.75215,0,0,1-16.14382-4.04985,29.51027,29.51027,0,0,1-11.08152-11.12973,34.22746,34.22746,0,0,1,0-32.30065,29.43757,29.43757,0,0,1,11.08152-11.13713,31.77108,31.77108,0,0,1,16.14382-4.04987,31.20928,31.20928,0,0,1,15.9788,4.04987,29.58932,29.58932,0,0,1,11.02771,11.13713,32.8194,32.8194,0,0,1,4.15556,16.19944,31.85136,31.85136,0,0,1-4.04985,16.10121,29.38081,29.38081,0,0,1-11.08707,11.12973A31.48306,31.48306,0,0,1,3444.0028,1148.30648Zm0-8.6597a21.6482,21.6482,0,0,0,11.25582-2.92983,20.465,20.465,0,0,0,7.70849-8.04039,24.21334,24.21334,0,0,0,2.75553-11.65078,24.54146,24.54146,0,0,0-2.75553-11.699,20.399,20.399,0,0,0-7.70849-8.10159,23.12505,23.12505,0,0,0-22.49862,0,21.15617,21.15617,0,0,0-7.82716,8.10159,23.74352,23.74352,0,0,0-2.8631,11.699,23.43342,23.43342,0,0,0,2.8631,11.65078,21.29023,21.29023,0,0,0,7.82716,8.04039A21.619,21.619,0,0,0,3444.0028,1139.64678Z" transform="translate(-2645.17896 -426.26896)"/><path class="cls-11" d="M3519.39261,1147.74466a4.80793,4.80793,0,0,1-3.48242-1.29619,4.50138,4.50138,0,0,1-1.35182-3.42679v-51.98255a4.63917,4.63917,0,0,1,1.35182-3.54179,4.81913,4.81913,0,0,1,3.48242-1.29432,4.63719,4.63719,0,0,1,3.43607,1.29432,4.76973,4.76973,0,0,1,1.29432,3.54179v51.98255a4.6037,4.6037,0,0,1-1.29432,3.42679A4.65288,4.65288,0,0,1,3519.39261,1147.74466Zm47.70829,0a4.68733,4.68733,0,0,1-3.48429-1.35182,4.5984,4.5984,0,0,1-1.35182-3.37116v-28.694q0-6.8564-2.58864-11.19833a16.44248,16.44248,0,0,0-6.91482-6.46977,22.268,22.268,0,0,0-9.96149-2.13617,21.74421,21.74421,0,0,0-9.44229,2.02679,16.75954,16.75954,0,0,0-6.7609,5.57041,13.92553,13.92553,0,0,0-2.47184,8.15906h-6.4123a23.78708,23.78708,0,0,1,3.64563-12.6614,25.69351,25.69351,0,0,1,9.51274-8.8359,27.26467,27.26467,0,0,1,13.28632-3.26178,29.8923,29.8923,0,0,1,14.23759,3.323,24.15766,24.15766,0,0,1,9.83355,9.73526q3.60208,6.40857,3.61037,15.74885v28.694a4.55214,4.55214,0,0,1-1.35923,3.37116A4.59875,4.59875,0,0,1,3567.1009,1147.74466Z" transform="translate(-2645.17896 -426.26896)"/></svg>