<svg xmlns="http://www.w3.org/2000/svg" xmlns:xlink="http://www.w3.org/1999/xlink" viewBox="0 0 902.05339 1153.31701"><defs><style>.cls-1,.cls-8{stroke:#673af5;}.cls-1,.cls-4,.cls-8{stroke-miterlimit:10;}.cls-1,.cls-4{stroke-width:11.85709px;}.cls-1{fill:url(#radial-gradient);}.cls-2{fill:#fccdd3;}.cls-3,.cls-6{fill:#fef568;}.cls-3{opacity:0.5;}.cls-4{fill:#50d1bb;stroke:#6034fd;}.cls-5{fill:#6034fd;}.cls-7{fill:#6536ff;}.cls-8{fill:#fff;stroke-width:19.47785px;}.cls-9{fill:#6534ff;}</style><radialGradient id="radial-gradient" cx="465.15501" cy="299.75055" r="443.7426" gradientUnits="userSpaceOnUse"><stop offset="0" stop-color="#fef568"/><stop offset="1" stop-color="#f88799"/></radialGradient></defs><g id="Layer_3" data-name="Layer 3"><circle class="cls-1" cx="449.67114" cy="451.49249" r="443.7426"/><circle class="cls-2" cx="449.67114" cy="451.49249" r="443.7426"/><circle class="cls-3" cx="449.67114" cy="268.45369" r="217.80603"/><circle class="cls-3" cx="449.67114" cy="355.30418" r="310.21938"/><path class="cls-4" d="M7149.59309,1301.40158l205.04759,283.095c4.99926,6.90212,14.86742,4.38,14.7326-3.76543l-1.61585-97.627a7.36824,7.36824,0,0,1,10.06059-7.28695l92.25616,31.9756c7.69729,2.66785,13.17062-5.92194,8.17137-12.82406l-205.04759-283.095c-2.91475-4.02419-8.15271-5.204-11.69931-2.63516l-110.76148,80.22527C7147.19057,1292.03269,7146.67835,1297.37739,7149.59309,1301.40158Z" transform="translate(-6720.27669 -441.12)"/><path class="cls-4" d="M7192.97766,1303.753,6989.5904,1584.55568c-4.95877,6.84623-14.80914,4.29951-14.706-3.80211l1.2358-97.10227a7.40071,7.40071,0,0,0-10.06058-7.28695l-91.8761,31.45088c-7.66558,2.62407-13.15671-5.94115-8.19794-12.78739l203.38726-280.80271c2.89114-3.99161,8.11-5.145,11.65657-2.57617l110.76147,80.22529C7195.33745,1294.44308,7195.8688,1299.76136,7192.97766,1303.753Z" transform="translate(-6720.27669 -441.12)"/><path class="cls-5" d="M7171.79365,552.02072l-29.049,84.1061-97.31589,13.487,63.18206,65.46736L6988.73871,1095.1594c-4.39942,15.21883-13.27655,18.52628-22.038,5.61337L6808.62034,867.79c-3.2808-4.83533.093-11.56835,5.6985-11.37219l20.99447.73469c4.87136.17047,8.30274-5.034,6.48982-9.8433l-18.17109-48.204a6.77345,6.77345,0,0,0-6.19282-4.50731l-71.9827-.84816-11.70127,59.07674,200.00593,439.70809,138.24056,5.60709,69.00379-466.98942h30.78791l31.12351,3,69.00378,466.98942,138.24056-8.60709,200.00593-439.70809L7598.466,793.74971l-71.9827.84816a6.77343,6.77343,0,0,0-6.19281,4.50731l-18.1711,48.204c-1.81292,4.8093,1.61846,10.01377,6.48982,9.8433l20.99448-.73469c5.60544-.19616,8.97929,6.53686,5.69849,11.37219l-168.08032,232.98275c-8.7615,12.91291-7.63862,9.60546-12.03805-5.61337L7235.31169,715.08119l53.18206-65.46736-87.31589-13.487-29.049-84.1061m0,184.39508,22.3371,48.30549h-45.00939l22.33711-48.30549" transform="translate(-6720.27669 -441.12)"/><path class="cls-5" d="M7161.66872,549.2294l-25.383,73.49189-3.666,10.61422,7.33362-7.33362-85.3646,11.83068-11.9513,1.65633c-8.22187,1.13947-9.53721,12.46827-4.6333,17.54955l55.27726,57.27664,7.9048,8.19072-2.70031-10.21594-13.73853,43.56074-32.2282,102.18591-37.2368,118.06666-28.76431,91.203-6.99214,22.17c-.454,1.43935-.8755,2.89544-1.35167,4.32742a20.03537,20.03537,0,0,1-1.82029,4.00868c-.93419,1.597.61736-.98753-.21619.42384-.58545.99127-1.88559.87808-.2569.40124.44559-.13046,2.01057-.34983.30767-.14983a9.52023,9.52023,0,0,1,2.4687-.02805c-1.63614-.14917-.44725-.24592.07028.07736-1.5466-.9661.14305.40706-1.21473-.991a20.282,20.282,0,0,1-2.1954-2.73543c-13.37833-19.48011-26.53883-39.1136-39.80711-58.66872l-68.61137-101.12117-46.83255-69.023a19.18207,19.18207,0,0,0-1.80347-2.658c-.86021-.87983-.09317-.69233-.48546-.3552-.22394.19245-.27673,2.10036-.73169,2.64481-.60112.71936-2.97468,1.08408-2.42671,1.29923,1.33311.52343,3.71268.12992,5.14287.18,4.66455.16324,9.3303.3765,13.99631.4898,13.51.328,22.30262-12.117,17.53324-24.76912l-8.9081-23.63128c-2.76848-7.34421-5.4683-14.71866-8.30679-22.03616-2.73142-7.04145-7.60442-12.24667-15.48735-12.94534-1.6142-.14307-3.21546-.14267-4.83783-.16179l-54.32771-.64013-13.9671-.16457c-4.31971-.0509-9.24623,3.27239-10.12493,7.70868l-11.23417,56.71848c-.73415,3.70657-1.01875,6.80493.63414,10.5431.23688.53575.4852,1.06672.72773,1.59992l3.98641,8.764,41.49488,91.22546,63.35138,139.27645,59.62664,131.08769,20.50831,45.087c3.27121,7.19166,6.2561,14.61836,9.85074,21.65661.15223.29807.27842.61209.41709.917,1.53045,3.36467,5.62869,5.061,9.06644,5.20045l121.196,4.91575,17.04456.69134c4.11925.16708,9.48084-3.34975,10.12493-7.70869l6.88373-46.58624,16.46258-111.412,19.90861-134.73339,17.26574-116.84747,5.6841-38.46767c.88555-5.993,2.213-12.09492,2.68032-18.13928.02069-.2677.0794-.53732.1187-.80335l-10.12492,7.70868c10.23182,0,20.58642-.50031,30.80372.00153,10.369.50928,20.77211,2.00222,31.1077,2.99847l-10.12493-7.70868,6.88372,46.58625,16.46258,111.412,19.90862,134.73339,17.26574,116.84747,5.6841,38.46767c.88594,5.99568,1.3894,12.21341,2.68031,18.13928.05717.26245.07938.53724.11871.80335.63008,4.26416,5.95894,7.96807,10.12493,7.70869l121.32676-7.554,16.9138-1.05308c3.45328-.215,7.51227-1.78364,9.06644-5.20045l25.046-55.06308,57.44339-126.28786,64.26036-141.27482,45.4961-100.02205c2.57378-5.65839,5.20994-11.293,7.723-16.97874,3.10822-7.03242-.70861-17.2813-2.14-24.50792l-7.1164-35.92888-1.34931-6.81235c-.87765-4.431-5.77-7.76-10.12493-7.70868l-48.79789.575c-7.4324.08758-14.8966-.0197-22.32462.26305-6.90906.263-12.95139,3.34467-16.11945,9.7179-1.24385,2.50228-2.105,5.28443-3.08849,7.89341l-10.783,28.60509c-2.82406,7.49164-7.91954,16.4952-5.49591,24.68629,2.46112,8.31782,9.94064,12.8108,18.30775,12.60768,4.91953-.11944,9.8388-.34431,14.75679-.51641,1.11074-.03887,3.51628.38013,4.49534-.15731-2.7873,1.53-3.13187-4.42-3.18283-4.431a7.96361,7.96361,0,0,0-.8495,1.17753c-5.94387,7.1929-11.0416,15.3052-16.49779,22.86823l-31.3178,43.41083-76.29158,105.75077c-14.31664,19.84485-28.79815,39.582-42.9549,59.54148-.05494.07745-.11189.15348-.16667.231-.65294.92422-1.28593,1.86559-1.9282,2.79749-.27266.39562-1.8408,2.33119-.51817.78361a8.2539,8.2539,0,0,1-.98487,1.12428l-.43555.42022a8.9692,8.9692,0,0,1,5.69161-2.35888l5.29955,1.43356a8.314,8.314,0,0,1,2.728,2.73069c1.38512,2.18895.53475,1.68068.35171.82872-.28213-1.31312-.79264-2.626-1.14674-3.92327-.63364-2.3214-1.21844-4.65855-1.91092-6.96349-.09419-.31351-.199-.62388-.29543-.9367-.59637-1.93487-1.21812-3.86231-1.82711-5.79324l-7.97826-25.29663-28.284-89.68-35.25671-111.7884-30.87267-97.88793-10.24334-32.47854c-1.614-5.11751-2.90812-10.50857-4.88855-15.50012-.0888-.22381-.14656-.46471-.21909-.69468l-2.70031,10.21594,46.55479-57.30915,6.62728-8.15821c2.42987-2.99119,3.77541-6.31184,2.7003-10.21594-.88508-3.214-3.83919-6.79386-7.33361-7.33361l-76.46-11.81018-10.85588-1.67683,7.33361,7.33362-25.383-73.49189-3.666-10.61422c-1.85055-5.35791-7.19838-8.905-12.91625-7.33361-5.20914,1.43155-9.19325,7.532-7.33361,12.91625l25.383,73.49189,3.666,10.61421c1.10654,3.20378,3.67423,6.76838,7.33361,7.33361l76.46,11.81018,10.85589,1.67683-4.63331-17.54955-30.97423,38.12942-18.31922,22.551c-3.696,4.54974-8.14729,8.84255-6.47921,15.35069,1.59594,6.22666,3.89675,12.35543,5.82925,18.4828l13.03846,41.341,38.72135,122.77373,39.505,125.25838,22.03835,69.877c1.40941,4.46882,2.30086,9.11087,3.91562,13.50633,3.43857,9.35993,13.63419,13.10833,21.22889,5.56826,2.72246-2.70287,4.75946-6.17749,6.96318-9.29969,4.886-6.92248,9.91745-13.747,14.87472-20.61844l71.73508-99.43482,69.33563-96.10884c3.93187-5.45012,8.31393-10.77883,11.88659-16.47648,6.02322-9.60576,1.25405-23.38633-9.86094-26.5265-4.66768-1.3187-10.20612-.4597-14.9643-.29319l-7.65378.26784a11.59226,11.59226,0,0,0-2.56041.0896c-1.11646.34143-.34541-.0464.93923.67927.83186.46991,1.3198.70342,1.68112,1.59482,1.09423,2.69957-.5649,2.8844.29478,1.19913.07044-.13808.101-.29851.16561-.43933.50684-1.10385.86888-2.30494,1.297-3.44058l11.06649-29.357,4.59221-12.18215c.31423-.83359.63948-1.664.943-2.50159a1.15126,1.15126,0,0,0,.1-.26524,4.17247,4.17247,0,0,1-1.89013,2.68836c-3.91054,2.212-2.4483.25914-1.69349.49087,1.98687.61,5.20459-.06132,7.25632-.0855l13.96144-.16451,33.54066-.3952,16.88261-.19892L7588.341,796.541l11.70127,59.07674,1.05849-8.09086-20.01735,44.00764L7533.40408,996.3564l-57.80961,127.093-49.95172,109.8176-16.40457,36.065c-2.57359,5.658-5.64677,11.307-7.79807,17.14386-.09528.25853-.231.50787-.34526.75906l9.06644-5.20045-121.32676,7.554-16.9138,1.05308,10.12493,7.70868-6.88373-46.58625-16.46258-111.412-19.90861-134.73339L7221.525,888.7712l-5.6841-38.46767c-.88594-5.99568-1.38941-12.21341-2.68032-18.13928-.05717-.26245-.07938-.53724-.1187-.80335-.71123-4.81333-5.90582-7.302-10.12493-7.70869-10.33562-.99625-20.73871-2.48913-31.1077-2.99847-10.21725-.50189-20.57194-.00153-30.80372-.00153-4.13806,0-9.4631,3.22964-10.12493,7.70869l-6.88373,46.58624-16.46258,111.412-19.90862,134.73339L7070.35994,1237.94l-5.6841,38.46767c-.88555,5.993-2.213,12.09492-2.68032,18.13928-.0207.2677-.0794.53732-.11871.80335l10.12493-7.70868-121.196-4.91576-17.04456-.69133,9.06644,5.20045-20.01734-44.00765-47.67935-104.82186-57.80962-127.093-49.95171-109.8176c-8.03411-17.6628-15.33108-35.94411-24.20264-53.2089-.12657-.24633-.23053-.50681-.34526-.75906l1.05848,8.09086,11.70127-59.07674-10.12493,7.70869,45.46919.53575,23.60834.27817a14.47734,14.47734,0,0,0,2.32939.02745c1.61692-.258-3.75387-.6528-3.3495-3.17647-.21321,1.33066,1.66506,4.41707,2.124,5.63459l10.25445,27.20287,4.32321,11.46856c.3807,1.00991.782,2.015,1.143,3.03223a6.62658,6.62658,0,0,0,.27571.7314c1.14639,2.29676-.33-.01565.63515-1.63032,1.00778-1.686,4.37879-1.49031,1.94133-1.74-2.23627-.22908-4.54837-.15917-6.79477-.23778-4.21705-.14758-8.46431-.46173-12.68416-.44388-14.227.0602-22.29107,15.47987-14.97672,27.454,3.73268,6.11066,8.08825,11.92066,12.10721,17.84391l26.21966,38.64319,68.95725,101.63093,47.94339,70.66016c.88279,1.30108,1.7471,2.61722,2.64947,3.90487,4.67827,6.67572,11.03832,13.19617,19.81327,13.209,8.72971.01279,15.33705-6.63,18.70186-14.136,2.53893-5.66368,4.17851-11.82775,6.04437-17.74383l24.37539-77.287,36.573-115.96211,35.00681-110.996,19.67669-62.38884.91209-2.892a10.52677,10.52677,0,0,0-2.70031-10.21593l-55.27726-57.27665-7.9048-8.19071L7048.22,659.73876l85.3646-11.83068,11.9513-1.65633c3.64938-.50577,6.242-4.173,7.33361-7.33361l25.383-73.49189,3.666-10.61421c1.85122-5.35989-2.115-11.48232-7.33362-12.91625-5.77125-1.58578-11.05824,1.9541-12.91624,7.33361Z" transform="translate(-6720.27669 -441.12)"/><path class="cls-5" d="M7163.06238,741.71535l7.56233,16.354,11.99984,25.95047,2.77494,6.001,9.06644-15.79955h-45.00939l9.06644,15.79955,7.56233-16.354,11.99984-25.95046,2.77494-6.001c1.21324-2.62373,1.85344-5.2041,1.05849-8.09087a10.70873,10.70873,0,0,0-4.82538-6.27512,10.59846,10.59846,0,0,0-8.09087-1.05849c-2.45853.79561-5.146,2.38366-6.27513,4.82538l-7.56232,16.354L7143.165,773.42074l-2.77493,6.001a10.5124,10.5124,0,0,0,0,10.5991,10.58024,10.58024,0,0,0,9.06644,5.20045h45.00939a10.58025,10.58025,0,0,0,9.06645-5.20045,10.51247,10.51247,0,0,0,0-10.5991l-7.56233-16.354-11.99984-25.95046-2.77494-6.001c-1.04325-2.25609-3.97116-4.19092-6.27513-4.82538a10.73086,10.73086,0,0,0-8.09087,1.05849,10.59809,10.59809,0,0,0-4.82537,6.27512l-.37507,2.79132a10.45156,10.45156,0,0,0,1.43355,5.29955Z" transform="translate(-6720.27669 -441.12)"/><path class="cls-6" d="M7171.79365,546.02072l-29.049,79.12186-97.31589,12.68775,63.18206,61.58767-109.87207,357.55425a18.13193,18.13193,0,0,1-32.038,5.28072L6808.62034,843.0771a6.75213,6.75213,0,0,1,5.6985-10.69827l20.99447.69115a6.75212,6.75212,0,0,0,6.48982-9.26L6823.632,778.46261a6.75213,6.75213,0,0,0-6.19282-4.2402l-71.9827-.7979-11.70127,55.57577,220.00593,413.65038,98.24056,5.27481,89.00379-439.315H7202.917l89.00378,439.315,98.24056-5.27481,220.00593-413.65038L7598.466,773.42451l-71.9827.7979a6.75212,6.75212,0,0,0-6.19281,4.2402L7502.11934,823.81a6.75212,6.75212,0,0,0,6.48982,9.26l20.99448-.69115a6.75212,6.75212,0,0,1,5.69849,10.69827L7377.22181,1062.253a18.13193,18.13193,0,0,1-32.03805-5.28072L7235.31169,699.418l63.18206-61.58767-97.31589-12.68775-29.049-79.12186m0,182.875,22.3371,45.44283h-45.00939l22.33711-45.44283" transform="translate(-6720.27669 -441.12)"/><path class="cls-7" d="M7172.12988,441.12c-248.63965,0-450.1997,201.58-450.1997,450.22S6923.49023,1341.54,7172.12988,1341.54c248.64014,0,450.2002-201.56006,450.2002-450.20007S7420.77,441.12,7172.12988,441.12Zm0,870.35C6940.1001,1311.47,6752,1123.37,6752,891.34s188.1001-420.15,420.12988-420.15c232.03028,0,420.12989,188.12,420.12989,420.15S7404.16016,1311.47,7172.12988,1311.47Z" transform="translate(-6720.27669 -441.12)"/><path class="cls-7" d="M7172.12988,441.12c-248.63965,0-450.1997,201.58-450.1997,450.22S6923.49023,1341.54,7172.12988,1341.54c248.64014,0,450.2002-201.56006,450.2002-450.20007S7420.77,441.12,7172.12988,441.12Zm0,870.35C6940.1001,1311.47,6752,1123.37,6752,891.34s188.1001-420.15,420.12988-420.15c232.03028,0,420.12989,188.12,420.12989,420.15S7404.16016,1311.47,7172.12988,1311.47Z" transform="translate(-6720.27669 -441.12)"/><path class="cls-8" d="M7578.30731,1312.0567c-272.25628,74.73094-547.16823,73.304-824.58983-.09044a17.78819,17.78819,0,0,1-13.19907-17.21245V1156.46392a17.82006,17.82006,0,0,1,22.58039-17.16148c270.93961,74.632,539.48572,76.11308,805.50015.28518a17.82178,17.82178,0,0,1,22.7413,17.11624V1294.89A17.78354,17.78354,0,0,1,7578.30731,1312.0567Z" transform="translate(-6720.27669 -441.12)"/><path class="cls-9" d="M6840.49383,1230.87083c-.43443,4.81468-.77948,9.63437-1.33928,14.43774-.32474,2.77218.20979,4.32317,3.44239,4.557,9.05506.65262,18.09128,1.59891,27.13242,2.37208,4.93878.42584,7.80788-2.14568,8.3985-6.81838.89268-7.09217,1.58038-14.22416,1.93731-21.36923.2492-4.871-2.01626-8.06111-7.37555-8.48378-8.66629-.67538-17.33251-1.4193-25.971-2.36929-3.56864-.39051-4.90451.93232-5.06749,4.37531-.21419,4.44935-.75749,8.86746-1.15732,13.29855m-14.65234,16.63025c1.30563-14.46971,2.75789-28.92772,3.82187-43.41925.304-4.19611,1.39435-5.6157,5.87948-5.106,13.07638,1.49354,26.21116,2.458,39.31947,3.6651,11.089,1.02646,18.91974,9.67921,18.3342,20.70749-.444,8.31262-1.18392,16.63053-2.2514,24.88387a19.37252,19.37252,0,0,1-20.79227,16.99585c-8.88164-.58367-17.7745-1.29627-26.5994-2.4412-4.47883-.57924-5.68293.91992-5.919,5.13892-.48358,8.49786-1.30708,17.00005-2.36608,25.446-.445,3.582-2.12108,6.75142-6.61311,6.75719a6.47411,6.47411,0,0,1-6.77422-5.1926,13.69731,13.69731,0,0,1,.108-4.6051q1.89826-21.41769,3.85245-42.83031" transform="translate(-6720.27669 -441.12)"/><path class="cls-9" d="M7121.775,1256.48885c-.4343,4.81317-.74683,9.64343-1.3555,14.43173-.3755,3.04775.75361,4.118,3.709,4.33593,8.86043.667,17.71343,1.53435,26.5576,2.34762,5.20035.4799,8.183-2.06769,8.78208-7.03651.8563-7.09394,1.5765-14.23211,1.896-21.36687.2199-4.93452-2.31338-7.89-7.61485-8.27853-8.47474-.62158-16.952-1.35-25.39242-2.31862-3.78105-.43252-5.3052.817-5.4475,4.58768-.162,4.4449-.73443,8.865-1.13439,13.29757m-14.62819,16.21067c1.30549-14.46821,2.79621-28.93037,3.81406-43.41691.311-4.47562,1.84772-5.35859,6.057-4.89657,13.07663,1.44029,26.21318,2.43531,39.3204,3.65454,10.98627,1.01719,18.77512,9.81387,18.13687,20.86935-.46117,8.11466-1.20571,16.23117-2.181,24.30556a19.42237,19.42237,0,0,1-21.03168,17.38836q-13.60709-.93545-27.18109-2.47392c-3.517-.3889-4.809.65013-5.04758,4.20507-.54083,8.30541-1.30047,16.6063-2.23288,24.881-.49742,4.43292-1.78843,8.78513-7.61036,8.19127-5.10824-.52182-6.51156-3.95239-6.0491-8.72343,1.421-14.65112,2.682-29.31824,4.00535-43.98428" transform="translate(-6720.27669 -441.12)"/><path class="cls-9" d="M6970.73443,1262.23459c-.20872-1.90526-.03479-3.9511-.68627-5.69079-3.77822-10.14916-7.6-20.28855-11.71792-30.30089-1.796-4.35973-5.21905-4.626-7.79061-.5766-5.58853,8.81676-10.90128,17.81678-16.17653,26.82321-2.72492,4.65215-2.559,9.63064-.66115,14.54918,3.4123,8.83872,6.90875,17.65612,10.35688,26.4859.79077,2.0187,1.58024,4.16973,4.13248,4.28277,2.19584.09766,3.33679-1.596,4.38864-3.29769,5.18794-8.39312,10.42477-16.75439,15.612-25.13995a17.38707,17.38707,0,0,0,2.54247-7.13514m-51.23076-4.47037a18.74223,18.74223,0,0,1,2.2439-9.69867c6.32124-10.64319,12.32534-21.51749,19.40227-31.64332,7.588-10.86232,24.30923-8.507,29.29712,3.72606,4.15815,10.2078,8.015,20.54829,11.9286,30.85127a26.83488,26.83488,0,0,1-1.99155,24.012c-5.16127,8.85685-10.60477,17.5512-15.86973,26.34236-4.01514,6.70081-9.44745,10.56359-17.66479,9.53588-7.80463-.97827-12.3929-5.491-15.05326-12.64036-3.30732-8.88863-6.822-17.68941-10.35661-26.48892-1.84932-4.59595-2.82417-9.24849-1.936-13.99634" transform="translate(-6720.27669 -441.12)"/><path class="cls-9" d="M7048.05573,1251.28041c-.50388-.03481-.98946-.06949-1.49951-.10334-2.31376,5.84945-4.76773,11.6497-6.902,17.56861-1.73646,4.83423-7.1889,11.02927-4.07561,14.171,3.03885,3.05589,10.55808,1.62868,16.10079,2.246,2.4174.27447,2.95079-.49044,2.4496-2.90019-2.1364-10.307-4.06233-20.65142-6.07328-30.98217m18.40365,70.3229c-3.84572-.27241-5.17844-3.00078-5.884-6.18263a110.56611,110.56611,0,0,1-2.42219-12.5055c-.37329-3.48987-2.0368-4.4926-5.21542-4.70023q-10.1304-.66518-20.22653-1.82812c-3.0042-.35176-4.63883.56956-5.64073,3.45574-1.47233,4.18509-3.45357,8.18877-4.91809,12.38825-1.51876,4.37884-4.5284,5.79122-8.59235,4.377-4.66488-1.62221-5.20032-5.52561-3.67293-9.54434,3.68742-9.75111,7.68574-19.38737,11.53621-29.072q10.60954-26.64037,21.19871-53.2902c1.07873-2.74222,2.20142-5.70123,5.49132-6.17023,4.01706-.58,7.35889.63659,8.25026,5.2527q8.70087,44.93134,17.33823,89.87523c.93023,4.91041-2.57392,8.51327-7.24249,7.94433" transform="translate(-6720.27669 -441.12)"/><path class="cls-9" d="M7223.31822,1316.367a23.547,23.547,0,0,1-12.80777-1.93577,24.33235,24.33235,0,0,1-9.70787-8.11467,26.40683,26.40683,0,0,1-4.66811-12.62616,25.71053,25.71053,0,0,1,1.86474-13.45137,24.69331,24.69331,0,0,1,8.07244-10.12277,25.56293,25.56293,0,0,1,12.60316-4.80436,25.1185,25.1185,0,0,1,13.221,1.89223,24.84863,24.84863,0,0,1,10.0774,8.076,26.45632,26.45632,0,0,1,4.907,12.68774l-2.94344,1.81519a24.59786,24.59786,0,0,1-1.68368,12.55349,23.17427,23.17427,0,0,1-7.34983,9.53462A22.91728,22.91728,0,0,1,7223.31822,1316.367Zm.30495-7.16077a17.51646,17.51646,0,0,0,8.7831-3.40151,16.89818,16.89818,0,0,0,5.5679-7.298,20.76721,20.76721,0,0,0-2.12914-18.88065,17.88176,17.88176,0,0,0-25.15565-3.82575,18.08913,18.08913,0,0,0-5.66065,7.30084,20.06639,20.06639,0,0,0,2.12913,18.88065,17.4178,17.4178,0,0,0,16.46531,7.22444Zm22.13912,4.16746a3.95131,3.95131,0,0,1-2.95465-.7335,3.68343,3.68343,0,0,1-1.408-2.66125l-1.70127-15.08643.83-8.24242,6.35179,1.31786,2.38215,21.12433a3.60984,3.60984,0,0,1-.83269,2.91393A3.99159,3.99159,0,0,1,7245.76229,1313.37372Z" transform="translate(-6720.27669 -441.12)"/><path class="cls-9" d="M7274.17724,1268.12969a3.71528,3.71528,0,0,1-2.66577-.62109,3.09309,3.09309,0,0,1-1.272-2.26764,3.22906,3.22906,0,0,1,.73049-2.53465,3.57445,3.57445,0,0,1,2.45455-1.25191l22.58295-2.54664a3.56,3.56,0,0,1,2.66569.67452,3.22712,3.22712,0,0,1,1.27813,2.30814,3.08916,3.08916,0,0,1-.73659,2.49414,3.6973,3.6973,0,0,1-2.45447,1.1985Zm26.62675,39.03708a15.96193,15.96193,0,0,1-15.36907-6.97573,19.022,19.022,0,0,1-3.17013-8.80154l-5.00083-44.3462a3.96646,3.96646,0,0,1,.73047-2.9543,4.06872,4.06872,0,0,1,5.53161-.62379,3.87917,3.87917,0,0,1,1.41828,2.712l5.00083,44.34616a10.25821,10.25821,0,0,0,3.31071,6.80036,8.23011,8.23011,0,0,0,6.66718,2.07126l2.652-.29906a3.3363,3.3363,0,0,1,2.68149.81463,4.03985,4.03985,0,0,1,1.32585,2.71784,3.49019,3.49019,0,0,1-.9231,2.92412,4.71911,4.71911,0,0,1-3.03652,1.40911l-1.8188.2051Z" transform="translate(-6720.27669 -441.12)"/><path class="cls-9" d="M7338.44768,1283.01511a3.77885,3.77885,0,0,1-4.37735-3.48466l-4.949-43.8866a3.81016,3.81016,0,0,1,.77411-3.00042,3.94249,3.94249,0,0,1,2.71726-1.37156,3.78145,3.78145,0,0,1,2.90928.73707,3.909,3.909,0,0,1,1.37615,2.75794l4.949,43.88659a3.95528,3.95528,0,0,1-.732,2.95448A3.73429,3.73429,0,0,1,7338.44768,1283.01511Zm2.21665,19.6567a3.96624,3.96624,0,0,1-2.95465-.73349,3.69766,3.69766,0,0,1-1.41251-2.66075l-4.76344-42.24114a3.816,3.816,0,0,1,.77393-3.00193,3.95522,3.95522,0,0,1,2.71727-1.37157,3.79331,3.79331,0,0,1,2.90927.73707,3.91251,3.91251,0,0,1,1.37632,2.75946l4.76345,42.24114a3.64128,3.64128,0,0,1-3.40964,4.27121Zm38.7724-4.37229a3.83528,3.83528,0,0,1-2.96124-.77852,3.75791,3.75791,0,0,1-1.40741-2.61555l-2.62939-23.31677a17.76092,17.76092,0,0,0-3.12068-8.86359,13.55093,13.55093,0,0,0-6.22239-4.62252,18.22389,18.22389,0,0,0-8.28745-.82338,17.82849,17.82849,0,0,0-7.49763,2.51341,13.67257,13.67257,0,0,0-4.97294,5.14488,11.3696,11.3696,0,0,0-1.26547,6.85709l-5.21063.58759a19.459,19.459,0,0,1,1.81125-10.62377,20.99029,20.99029,0,0,1,6.91738-8.05143,22.25618,22.25618,0,0,1,10.48854-3.867,24.35387,24.35387,0,0,1,11.86643,1.39645,19.75588,19.75588,0,0,1,8.89491,7.00842,25.94344,25.94344,0,0,1,4.374,12.46705l2.62939,23.31678a3.78238,3.78238,0,0,1-3.40663,4.27087Z" transform="translate(-6720.27669 -441.12)"/><path class="cls-9" d="M7439.91983,1291.94131a25.96545,25.96545,0,0,1-13.48961-1.81157,24.13208,24.13208,0,0,1-10.02475-8.02859,27.98958,27.98958,0,0,1-2.95989-26.24758,24.07262,24.07262,0,0,1,7.98432-10.06551,25.98085,25.98085,0,0,1,12.74739-4.77029,25.52148,25.52148,0,0,1,13.35552,1.82671,24.19688,24.19688,0,0,1,9.9817,8.03952,26.83819,26.83819,0,0,1,4.86126,12.78292,26.04653,26.04653,0,0,1-1.81547,13.455,24.02633,24.02633,0,0,1-7.9895,10.06A25.74536,25.74536,0,0,1,7439.91983,1291.94131Zm-.79353-7.0369a17.70289,17.70289,0,0,0,8.878-3.41221,16.7354,16.7354,0,0,0,5.52715-7.24,19.80061,19.80061,0,0,0,1.17152-9.72,20.06877,20.06877,0,0,0-3.31119-9.25413,16.68132,16.68132,0,0,0-7.00633-5.877,18.91059,18.91059,0,0,0-18.28244,2.06167,17.30057,17.30057,0,0,0-5.618,7.30062,19.41627,19.41627,0,0,0-1.25452,9.769,19.16274,19.16274,0,0,0,3.39419,9.2051,17.41014,17.41014,0,0,0,7.09715,5.81639A17.67905,17.67905,0,0,0,7439.1263,1284.90441Z" transform="translate(-6720.27669 -441.12)"/><path class="cls-9" d="M7501.13028,1284.57639a3.93171,3.93171,0,0,1-2.9486-.73417,3.681,3.681,0,0,1-1.41251-2.66075l-4.76344-42.24114a3.7937,3.7937,0,0,1,.77393-3.00194,3.94088,3.94088,0,0,1,2.71122-1.37088,3.79207,3.79207,0,0,1,2.91077.73691,3.90042,3.90042,0,0,1,1.37632,2.75945l4.76345,42.24114a3.76468,3.76468,0,0,1-.73776,2.90323A3.80492,3.80492,0,0,1,7501.13028,1284.57639Zm38.76787-4.37178a3.83309,3.83309,0,0,1-2.95522-.7792,3.76042,3.76042,0,0,1-1.40741-2.61554l-2.62938-23.31678a17.66973,17.66973,0,0,0-3.1297-8.86257,13.44587,13.44587,0,0,0-6.21186-4.62371,18.20991,18.20991,0,0,0-8.29049-.823,17.78148,17.78148,0,0,0-7.48709,2.51223,13.705,13.705,0,0,0-4.98347,5.14607,11.38758,11.38758,0,0,0-1.261,6.85658l-5.21065.58759a19.452,19.452,0,0,1,1.80221-10.62275,21.0109,21.0109,0,0,1,6.9204-8.05178,22.29573,22.29573,0,0,1,10.49759-3.868,24.44449,24.44449,0,0,1,11.874,1.39559,19.75492,19.75492,0,0,1,8.88285,7.00979,25.94334,25.94334,0,0,1,4.37695,12.46671l2.62939,23.31678a3.72253,3.72253,0,0,1-.7956,2.864A3.76062,3.76062,0,0,1,7539.89815,1280.20461Z" transform="translate(-6720.27669 -441.12)"/></g></svg>