<svg xmlns="http://www.w3.org/2000/svg" viewBox="0 0 931.87237 1198.95958"><defs><style>.cls-1,.cls-4{fill:#fccdd3;}.cls-1{stroke:#6034fd;}.cls-1,.cls-9{stroke-miterlimit:10;stroke-width:11.85709px;}.cls-2{fill:#fff;}.cls-3{fill:#cdc9fb;opacity:0.5;}.cls-5{fill:#6534ff;}.cls-6{fill:#673af5;}.cls-7{fill:#5cbeff;}.cls-8{fill:#50d1bb;}.cls-9{fill:#fef568;stroke:#673af5;}</style></defs><g id="Layer_3" data-name="Layer 3"><path class="cls-1" d="M5132.78643,1281.27875l198.586,274.17392c4.84171,6.68462,16.19257,2.94277,16.94618-5.58636l9.0324-102.22621a10.10574,10.10574,0,0,1,12.096-8.76124l99.94625,23.29225c8.3389,1.94336,15.43343-7.67491,10.59172-14.35953l-198.586-274.17393c-2.8229-3.89737-8.56808-4.553-12.83224-1.4645l-133.17072,96.45645C5131.1319,1271.71816,5129.96353,1277.38137,5132.78643,1281.27875Z" transform="translate(-4659.12069 -365.85107)"/><path class="cls-1" d="M5154.57114,1281.27875l-198.586,274.17392c-4.84171,6.68462-16.19258,2.94277-16.94619-5.58636l-9.03239-102.22621a10.10574,10.10574,0,0,0-12.096-8.76124l-99.94625,23.29225c-8.33891,1.94336-15.43344-7.67491-10.59172-14.35953l198.586-274.17393c2.82289-3.89737,8.56808-4.553,12.83223-1.4645l133.17073,96.45645C5156.22566,1271.71816,5157.394,1277.38137,5154.57114,1281.27875Z" transform="translate(-4659.12069 -365.85107)"/><path class="cls-2" d="M5498.46265,1017.51461l-202.873,202.89751H5008.66841l-202.873-202.89751v-286.897l202.873-202.89767h286.92124l202.873,202.89767Z" transform="translate(-4659.12069 -365.85107)"/><path class="cls-3" d="M5498.46265,1017.51461l-202.873,202.89751H5008.66841l-202.873-202.89751v-286.897l202.873-202.89767h286.92124l202.873,202.89767Z" transform="translate(-4659.12069 -365.85107)"/><path class="cls-4" d="M4765.79573,897.913s66.02271,40.20968,124.90972-12.53026,166.03649-94.06957,166.03649-94.06957-84.09974-78.115-139.55112-61.3048c-34.077,10.33052-52.14752,48.07936-81.06963,49.12892-52.56334,1.90748-80.09289-8.83181-80.09289-8.83181Z" transform="translate(-4659.12069 -365.85107)"/><path class="cls-5" d="M4914.99963,1166.22557s50.04554-93.6937,62.74622-157.01674-8.20956-96.00257,7.41832-139.15522,71.57777-78.7404,71.57777-78.7404-64.34194-32.52115-104.38838,8.73542c-24.61012,25.35378-61.23127,55.23551-85.95335,70.01739-44.93016,26.86474-119.16259,9.61737-119.16259,9.61737C4777.76182,976.51535,4861.90169,1138.06759,4914.99963,1166.22557Z" transform="translate(-4659.12069 -365.85107)"/><path class="cls-6" d="M5532.95438,835.40983s-64.85416-40.20969-122.69892,12.53026-163.09777,94.06956-163.09777,94.06956,82.61124,78.115,137.08117,61.30481c33.47392-10.33052,51.22455-48.07937,79.63476-49.12892,51.633-1.90748,78.67531,8.83181,78.67531,8.83181Z" transform="translate(-4659.12069 -365.85107)"/><path class="cls-4" d="M5386.39127,567.0973s-49.15978,93.6937-61.63566,157.01674,8.06425,96.00257-7.287,139.15522-70.31089,78.74039-70.31089,78.74039,63.20313,32.52116,102.54079-8.73541c24.17454-25.35378,60.14752-55.23551,84.432-70.01739,44.13493-26.86474,117.05351-9.61737,117.05351-9.61737C5521.20008,756.80752,5438.54941,595.25528,5386.39127,567.0973Z" transform="translate(-4659.12069 -365.85107)"/><rect class="cls-7" x="380.49754" y="797.99319" width="225.82599" height="70.04021" rx="17.12723"/><path class="cls-5" d="M5056.74546,1237.6537h187.63506c1.23653,0,2.47312.0034,3.70965,0a21.27143,21.27143,0,0,0,17.18781-8.72216,20.871,20.871,0,0,0,3.93547-12.195c.00943-1.1034,0-2.2073,0-3.31073v-31.21612a26.45839,26.45839,0,0,0-.62042-6.30723,21.05534,21.05534,0,0,0-7.8435-11.69428,21.37615,21.37615,0,0,0-13.07857-4.13315H5063.994c-4.33942,0-9.09861-.39874-13.284.88621a21.1788,21.1788,0,0,0-14.861,20.047c-.02934,3.63527,0,7.272,0,10.90735v17.83432c0,4.12672-.35735,8.54651.74721,12.56218a21.15824,21.15824,0,0,0,20.14926,15.34167,3.76923,3.76923,0,0,0,0-7.53847c-.58045-.0058-1.15139-.04286-1.72983-.08627-.163-.01224-.71567-.13757-.01279.00218-.22116-.044-.44468-.076-.66579-.12083q-.73938-.15-1.46325-.36466c-.26571-.07879-.52948-.1631-.79106-.25475-.16455-.05764-1.06736-.42814-.3284-.10489a16.92643,16.92643,0,0,1-2.4444-1.32419c-.18974-.12347-1.26424-.94534-.68371-.46359-.41693-.346-.82406-.70152-1.211-1.08121-.3883-.38106-.73721-.78936-1.10367-1.19018-.09449-.10334-.44121-.55971-.01788-.00011-.13076-.17286-.25744-.34983-.38083-.52788a16.92116,16.92116,0,0,1-1.5962-2.8505c.30092.688-.13285-.40309-.21156-.64267q-.23462-.71409-.40464-1.447c-.05211-.22353-.28543-1.624-.18918-.83129-.06933-.571-.10806-1.14568-.12034-1.72065-.07061-3.30529-.0035-6.61878-.0035-9.92455V1189.4463a88.52219,88.52219,0,0,1,.12384-10.545c-.09625.79269.13707-.60776.18918-.8313q.17064-.732.40464-1.447c.069-.21006.15034-.41586.21922-.62579.32627-.99437-.203.40659.06006-.16678.22818-.49731.47341-.98426.74556-1.45921q.365-.637.78292-1.24139c.12339-.17806.25007-.355.38083-.52789-.445.58825-.00187.01359.12376-.12328a22.54784,22.54784,0,0,1,2.20876-2.14822c-.58055.48177.4941-.34.68371-.46358q.61587-.40133,1.26411-.74943c.38566-.20651.77946-.39943,1.18029-.57476-.68513.2997-.00688.00972.17264-.04862.31611-.10272.62782-.21643.94682-.311q.72319-.21444,1.46325-.36466c.22146-.04475.44337-.082.66579-.12083-.76.13274-.01495.00469.18393-.01326.52269-.04717,1.04481-.06637,1.56952-.07083.8589-.00731,1.71817,0,2.57709,0H5247.7805c.29523,0,.59081-.00278.886.00349a16.60921,16.60921,0,0,1,1.72064.12034c-.7701-.097.41322.09437.66774.15106.54353.12107,1.08152.26895,1.61055.44276.21.069.416.15043.62579.21923.75812.24857-.46085-.25834.31667.12777a20.16385,20.16385,0,0,1,2.55071,1.46077c.17818.12347.35506.25008.52789.38083-.5596-.42334-.10324-.07661.0001.01787.4001.36577.80974.716,1.19018,1.10367.37992.38715.735.79375,1.08122,1.211-.47108-.56768.2351.33744.37459.54713q.45214.67966.83842,1.40068.15468.28888.29835.58382c.07754.15921.43756,1.05376.15038.30468a17.96886,17.96886,0,0,1,.85033,2.8745c.04468.22114.07686.44465.12083.6658-.13984-.70338-.01568-.14953-.00218.01278.048.57678.081,1.15075.08627,1.72983.00857.93807,0,1.87662,0,2.81471v31.07524c0,.54145.00132,1.08292,0,1.62437-.0002.08548.00075.171,0,.25647-.00206.23763-.00441.47472-.01393.71228q-.01384.34523-.04146.69023c-.02038.25407-.14685,1.0317-.0287.35507a18.32876,18.32876,0,0,1-.74023,2.92011c-.073.20845-.1519.41405-.23093.62019.266-.69378.00681-.0153-.07989.15633-.27151.53751-.5418,1.06873-.85636,1.583-.22726.37152-.47622.72607-.72189,1.08519-.40137.58673-.09949.12734-.0036.01179-.173.2085-.34657.41574-.527.61787q-.48663.545-1.01764,1.04791c-.1818.1718-1.34091,1.13131-.72682.66674a16.796,16.796,0,0,1-2.48839,1.55415c-.19522.09977-.394.19-.59021.28745-.93622.46491.434-.15132-.16233.06858-.57312.21133-1.148.40615-1.73889.56246-.43452.11493-.873.20256-1.313.29231-.72172.14721-.16472.0374-.00648.01747-.284.03577-.56925.06049-.85471.08051-.41009.02876-.82008.03989-1.231.04332-.25593.00214-.512,0-.76789,0H5056.74546a3.76924,3.76924,0,1,0,0,7.53847Z" transform="translate(-4659.12069 -365.85107)"/><path class="cls-2" d="M5242.84367,946.68967a29.516,29.516,0,0,0-30.0688,29.51078v-.47971a29.51583,29.51583,0,0,0-29.51558-29.51588h0a29.5244,29.5244,0,0,0-28.89835,23.49353,29.52306,29.52306,0,0,0-28.89714-23.49353h0a29.51583,29.51583,0,0,0-29.51558,29.51588v-150.887a31.18192,31.18192,0,0,0-31.18209-31.18225h0a31.18192,31.18192,0,0,0-31.18209,31.18225v205.67868a11.14957,11.14957,0,0,1-19.03344,7.884l-31.02008-31.01961a31.18173,31.18173,0,0,0-44.09788,0v.00015a31.182,31.182,0,0,0,0,44.09833l98.08955,98.08956a28.71712,28.71712,0,0,0,24.81739,14.27944H5243.05a28.756,28.756,0,0,0,28.756-28.756V977.17909C5271.806,960.92787,5259.09217,946.98714,5242.84367,946.68967Z" transform="translate(-4659.12069 -365.85107)"/><path class="cls-5" d="M5242.84367,942.97178a33.61908,33.61908,0,0,0-33.78669,33.22867h7.43578c0-12.57323-6.918-24.55227-18.31437-30.17512a33.64943,33.64943,0,0,0-36.6729,4.58557A33.19138,33.19138,0,0,0,5150.77586,968.71h7.17016a33.2362,33.2362,0,0,0-65.71569,7.01072h7.43578V825.75234c0-12.53029-6.03714-24.23142-16.86723-30.80466-15.25894-9.26131-35.32274-5.04445-46.002,9.051a34.98029,34.98029,0,0,0-6.93076,20.86021c-.00627.926,0,1.85235,0,2.7784v178.36957c0,8.1548.14226,16.32111,0,24.47426a7.46233,7.46233,0,0,1-10.22735,6.97591c-2.4496-1.067-4.498-3.72823-6.45465-5.68489l-23.0293-23.029a78.53056,78.53056,0,0,0-7.58774-7.09456,34.683,34.683,0,0,0-24.64448-6.92016,36.08816,36.08816,0,0,0-12.17981,3.54643,32.79577,32.79577,0,0,0-5.34653,3.37373c-1.79716,1.3754-4.68154,3.20989-4.68154,5.72833l1.08894-2.62895a35.11661,35.11661,0,0,0-10.07325,27.73044,35.60359,35.60359,0,0,0,10.205,21.75757c3.99468,4.03621,8.03155,8.03155,12.047,12.047l25.07856,25.07855,28.84322,28.84322,23.341,23.341,6.71129,6.71129c.5363.5363,1.07653,1.069,1.60905,1.60906.09931.10072.2145.19526.30454.30453-.55871-.678.08425.322.2794.61737a37.78168,37.78168,0,0,0,2.46542,3.29121,32.61337,32.61337,0,0,0,24.76071,11.48287c1.227.00891,2.45444,0,3.68149,0h165.91055c3.94821,0,7.9089.093,11.85637-.01135a32.71444,32.71444,0,0,0,25.0075-12.76493,31.83406,31.83406,0,0,0,5.97423-12.91428,52.08576,52.08576,0,0,0,.71806-10.57207V1010.92286q0-8.16234,0-16.32469,0-8.377,0-16.75406a35.84007,35.84007,0,0,0-8.19168-23.06089,32.99631,32.99631,0,0,0-24.48857-11.81144c-4.78663-.13057-4.78329,7.3053,0,7.43578a25.7463,25.7463,0,0,1,20.93806,12.041,27.135,27.135,0,0,1,4.17665,11.90415c.168,1.83945.12977,3.68828.12977,5.53321q0,12.99823,0,25.99648V1131.84a36.897,36.897,0,0,1-.85116,9.74545,24.878,24.878,0,0,1-5.98036,10.69138,25.3236,25.3236,0,0,1-18.317,7.84954c-1.32015.00833-2.64063,0-3.96081,0H5074.58328c-4.0666,0-8.13455.03058-12.20107,0a25.16844,25.16844,0,0,1-20.66455-10.87239,28.19119,28.19119,0,0,0-3.79274-4.54433l-17.2506-17.25059-26.82517-26.82517-27.66319-27.66319-19.77991-19.77991q-2.0482-2.04821-4.09644-4.09644a27.63673,27.63673,0,0,1-8.16613-16.86979,28.66087,28.66087,0,0,1,1.74219-12.8224,27.45791,27.45791,0,0,1,3.13335-5.8054c1.29786-1.87726,4.1315-3.8326,4.1315-6.22l-1.08894,2.62894a27.76393,27.76393,0,0,1,39.06988.22989q9.73328,9.68388,19.41758,19.41728l9.70878,9.70864c3.30914,3.30908,6.89688,5.91333,11.81965,6.03721a15.04114,15.04114,0,0,0,15.18979-13.96986c.28584-4.02485.03467-8.13952.03467-12.17121V861.20109c0-12.01492-.02784-24.03022,0-36.04512a27.47116,27.47116,0,0,1,54.36328-5.92518c.92185,4.2838.56512,8.98446.56512,13.35027V975.72074c0,4.78594,7.39449,4.79066,7.43578,0a25.79077,25.79077,0,0,1,42.6671-19.52785,26.54338,26.54338,0,0,1,8.44265,14.49386c.76734,3.54452,6.40222,3.54729,7.17016,0a26.19473,26.19473,0,0,1,20.32833-20.29084,25.93063,25.93063,0,0,1,25.90507,10.20184,26.555,26.555,0,0,1,4.87756,15.6027c0,4.78595,7.39446,4.79066,7.43578,0a26.07327,26.07327,0,0,1,26.35091-25.79289C5247.62978,950.45389,5247.63371,943.01816,5242.84367,942.97178Z" transform="translate(-4659.12069 -365.85107)"/><rect class="cls-5" x="455.33503" y="635.84529" width="32.14174" height="8.63509" rx="3.23816"/><rect class="cls-5" x="505.70641" y="635.84529" width="32.14174" height="8.63509" rx="3.23816"/><rect class="cls-5" x="556.0778" y="635.84529" width="32.14174" height="8.63509" rx="3.23816"/><rect class="cls-8" x="379.69315" y="133.96729" width="225.82599" height="70.04021" rx="17.12723"/><path class="cls-5" d="M5247.51261,496.04912H5059.87755c-1.23654,0-2.47312-.0034-3.70965,0a21.27148,21.27148,0,0,0-17.18782,8.72216,20.87107,20.87107,0,0,0-3.93547,12.195c-.00942,1.1034,0,2.20729,0,3.31072v31.21612a26.45834,26.45834,0,0,0,.62043,6.30723,21.05538,21.05538,0,0,0,7.84349,11.69429,21.37616,21.37616,0,0,0,13.07858,4.13315h183.677c4.33942,0,9.0986.39873,13.284-.88622a21.17877,21.17877,0,0,0,14.861-20.04694c.02935-3.63527,0-7.272,0-10.90735V523.953c0-4.12673.35736-8.54652-.7472-12.56218a21.15828,21.15828,0,0,0-20.14926-15.34168,3.76924,3.76924,0,1,0,0,7.53848c.58045.0058,1.15139.04285,1.72983.08627.163.01223.71566.13756.01278-.00218.22116.044.44468.076.6658.12083q.73938.15,1.46325.36466c.2657.07879.52947.1631.79106.25474.16455.05765,1.06735.42814.32839.10489a16.928,16.928,0,0,1,2.44441,1.32419c.18973.12347,1.26423.94535.6837.46359.41693.346.82406.70153,1.211,1.08122.3883.38105.73722.78936,1.10368,1.19017.09448.10335.4412.55972.01787.00011.13077.17286.25744.34983.38083.52789a16.92037,16.92037,0,0,1,1.5962,2.85049c-.30092-.688.13285.4031.21156.64268q.23463.71407.40464,1.447c.05211.22354.28544,1.624.18919.83129.06932.571.108,1.14569.12034,1.72065.07061,3.3053.00349,6.61879.00349,9.92456v17.73589a88.52219,88.52219,0,0,1-.12383,10.545c.09625-.79269-.13708.60776-.18919.83129q-.17062.732-.40464,1.447c-.069.21006-.15034.41586-.21922.62579-.32627.99436.203-.4066-.06005.16678-.22819.49731-.47341.98425-.74556,1.4592q-.365.637-.78293,1.2414c-.12339.178-.25006.355-.38083.52788.445-.58824.00188-.01358-.12375.12329a22.54781,22.54781,0,0,1-2.20877,2.14821c.58055-.48177-.49409.34-.6837.46359q-.61587.40131-1.26412.74942c-.38566.20652-.77946.39943-1.18029.57477.68514-.2997.00689-.00972-.17263.04862-.31612.10272-.62783.21643-.94682.311q-.72319.21444-1.46325.36467c-.22147.04475-.44338.082-.6658.12082.76-.13274.015-.00468-.18393.01327-.52269.04716-1.0448.06637-1.56951.07083-.8589.00731-1.71818,0-2.5771,0H5056.47757c-.29523,0-.59082.00278-.886-.0035a16.60387,16.60387,0,0,1-1.72065-.12034c.7701.097-.41322-.09436-.66773-.15105q-.81531-.1816-1.61056-.44277c-.21-.069-.416-.15042-.62579-.21922-.75812-.24857.46085.25833-.31667-.12777a20.16577,20.16577,0,0,1-2.55071-1.46077c-.17818-.12348-.35506-.25009-.52788-.38083.5596.42334.10324.0766-.00011-.01788-.4001-.36576-.80973-.716-1.19017-1.10367-.37993-.38715-.735-.79375-1.08122-1.211.47108.56767-.2351-.33745-.37459-.54713q-.45216-.67968-.83842-1.40069-.15469-.28887-.29836-.58381c-.07754-.15922-.43755-1.05377-.15037-.30468a17.9692,17.9692,0,0,1-.85034-2.8745c-.04468-.22114-.07686-.44465-.12082-.6658.13984.70338.01567.14952.00217-.01278-.048-.57678-.081-1.15075-.08627-1.72983-.00857-.93807,0-1.87662,0-2.81472V518.84139c0-.54145-.00132-1.08292,0-1.62436.00021-.08549-.00074-.171,0-.25647.00207-.23763.00442-.47472.01394-.71228q.01383-.34523.04145-.69023c.02038-.25408.14685-1.0317.02871-.35507a18.32821,18.32821,0,0,1,.74023-2.92011c.073-.20846.1519-.41406.23093-.62019-.266.69377-.00681.01529.07988-.15634.27151-.5375.5418-1.06873.85637-1.583.22725-.37152.47621-.72607.72188-1.0852.40137-.58672.0995-.12733.00361-.01179.173-.2085.34656-.41574.527-.61786q.48664-.545,1.01765-1.04792c.18179-.1718,1.34091-1.13131.72682-.66674a16.79707,16.79707,0,0,1,2.48838-1.55415c.19523-.09977.394-.19.59021-.28745.93623-.46491-.434.15133.16233-.06858.57313-.21133,1.148-.40614,1.7389-.56245.43451-.11494.873-.20256,1.313-.29231.72172-.14721.16471-.0374.00647-.01747.284-.03577.56926-.06049.85471-.08051.41009-.02876.82009-.03989,1.231-.04332.25593-.00214.512,0,.7679,0h190.78805a3.76924,3.76924,0,0,0,0-7.53848Z" transform="translate(-4659.12069 -365.85107)"/><path class="cls-2" d="M5061.4144,787.01316a29.516,29.516,0,0,0,30.0688-29.51079v.47972a29.51583,29.51583,0,0,0,29.51557,29.51588h0a29.52439,29.52439,0,0,0,28.89835-23.49353,29.52307,29.52307,0,0,0,28.89714,23.49353h0a29.51583,29.51583,0,0,0,29.51558-29.51588v150.887a31.18192,31.18192,0,0,0,31.18209,31.18224h0a31.18192,31.18192,0,0,0,31.1821-31.18224V703.19041a11.14957,11.14957,0,0,1,19.03344-7.884l31.02008,31.01961a31.18175,31.18175,0,0,0,44.09788,0v-.00015a31.182,31.182,0,0,0,0-44.09834L5266.73587,584.138a28.71712,28.71712,0,0,0-24.81738-14.27944H5061.208a28.756,28.756,0,0,0-28.756,28.756V756.52374C5032.452,772.775,5045.1659,786.71569,5061.4144,787.01316Z" transform="translate(-4659.12069 -365.85107)"/><path class="cls-5" d="M5061.4144,790.73105a33.61908,33.61908,0,0,0,33.78668-33.22868h-7.43577c0,12.57324,6.918,24.55227,18.31437,30.17512a33.64938,33.64938,0,0,0,36.67289-4.58557,33.19127,33.19127,0,0,0,10.72964-18.09912H5146.312a33.2362,33.2362,0,0,0,65.71569-7.01071H5204.592v149.9684c0,12.53028,6.03714,24.23141,16.86723,30.80466,15.259,9.2613,35.32274,5.04444,46.002-9.051a34.98026,34.98026,0,0,0,6.93076-20.8602c.00628-.926,0-1.85235,0-2.77841V727.696c0-8.15479-.14225-16.3211,0-24.47426a7.46232,7.46232,0,0,1,10.22736-6.9759c2.4496,1.067,4.49795,3.72823,6.45464,5.68489l23.02931,23.029a78.53162,78.53162,0,0,0,7.58773,7.09456,34.683,34.683,0,0,0,24.64448,6.92016,36.08846,36.08846,0,0,0,12.17982-3.54644,32.795,32.795,0,0,0,5.34652-3.37372c1.79717-1.37541,4.68155-3.20989,4.68155-5.72833l-1.08895,2.62894a35.1166,35.1166,0,0,0,10.07326-27.73044,35.60357,35.60357,0,0,0-10.205-21.75757c-3.99467-4.03621-8.03154-8.03154-12.047-12.047L5330.197,642.34123,5301.35378,613.498l-23.341-23.341-6.71129-6.71128c-.5363-.53631-1.07654-1.069-1.60906-1.60906-.09931-.10072-.21449-.19526-.30453-.30453.5587.678-.08426-.322-.2794-.61738a37.77977,37.77977,0,0,0-2.46543-3.29121,32.61343,32.61343,0,0,0-24.7607-11.48287c-1.227-.0089-2.45445,0-3.68149,0H5072.29031c-3.9482,0-7.9089-.093-11.85637.01135a32.71447,32.71447,0,0,0-25.00749,12.76493,31.83414,31.83414,0,0,0-5.97424,12.91428,52.08576,52.08576,0,0,0-.71806,10.57207V739.10466q0,8.377,0,16.75406a35.84007,35.84007,0,0,0,8.19169,23.06088,32.9963,32.9963,0,0,0,24.48857,11.81145c4.78663.13056,4.78329-7.3053,0-7.43578a25.74635,25.74635,0,0,1-20.93807-12.041,27.13509,27.13509,0,0,1-4.17664-11.90415c-.168-1.83944-.12977-3.68827-.12977-5.5332q0-12.99825,0-25.99648V601.86281a36.89655,36.89655,0,0,1,.85116-9.74545,24.8779,24.8779,0,0,1,5.98035-10.69138,25.32356,25.32356,0,0,1,18.317-7.84954c1.32016-.00833,2.64064,0,3.96081,0h164.39551c4.06661,0,8.13455-.03059,12.20108,0a25.16845,25.16845,0,0,1,20.66455,10.87238,28.18929,28.18929,0,0,0,3.79274,4.54433l17.25059,17.25059,26.82517,26.82517,27.66319,27.66319L5357.852,680.512q2.04819,2.0482,4.09643,4.09643a27.63679,27.63679,0,0,1,8.16614,16.86979,28.661,28.661,0,0,1-1.7422,12.8224,27.45738,27.45738,0,0,1-3.13334,5.8054c-1.29787,1.87726-4.13151,3.83261-4.13151,6.22l1.08894-2.62895a27.76393,27.76393,0,0,1-39.06988-.22988q-9.73327-9.68388-19.41757-19.41728l-9.70879-9.70864c-3.30913-3.30909-6.89687-5.91333-11.81965-6.03722a15.04114,15.04114,0,0,0-15.18979,13.96986c-.28583,4.02486-.03466,8.13953-.03466,12.17122v158.0566c0,12.01492.02784,24.03021,0,36.04511a27.47117,27.47117,0,0,1-54.36329,5.92518c-.92185-4.28379-.56512-8.98445-.56512-13.35026V757.98209c0-4.78595-7.39449-4.79066-7.43578,0a25.79076,25.79076,0,0,1-42.6671,19.52784,26.5434,26.5434,0,0,1-8.44264-14.49385c-.76735-3.54453-6.40222-3.5473-7.17017,0a26.19474,26.19474,0,0,1-20.32832,20.29084,25.93063,25.93063,0,0,1-25.90508-10.20185,26.555,26.555,0,0,1-4.87756-15.6027c0-4.78594-7.39446-4.79065-7.43577,0a26.07329,26.07329,0,0,1-26.35091,25.7929C5056.62828,783.24893,5056.62436,790.68467,5061.4144,790.73105Z" transform="translate(-4659.12069 -365.85107)"/><rect class="cls-5" x="5157.6606" y="723.37137" width="32.14174" height="8.63509" rx="3.23816" transform="translate(5688.34226 1089.52678) rotate(-180)"/><rect class="cls-5" x="5107.28922" y="723.37137" width="32.14174" height="8.63509" rx="3.23816" transform="translate(5587.59948 1089.52678) rotate(-180)"/><rect class="cls-5" x="5056.91783" y="723.37137" width="32.14174" height="8.63509" rx="3.23816" transform="translate(5486.85671 1089.52678) rotate(-180)"/><path class="cls-9" d="M5303.40491,441.1179H5000.85316a67.7198,67.7198,0,0,0-47.88519,19.83472L4739.02818,674.89279a67.71984,67.71984,0,0,0-19.83463,47.8851V1025.3522a67.71979,67.71979,0,0,0,19.837,47.88744l213.93784,213.9173a67.7198,67.7198,0,0,0,47.88285,19.83238h302.55563a67.71979,67.71979,0,0,0,47.88284-19.83238l213.93785-213.9173a67.71979,67.71979,0,0,0,19.837-47.88744V722.77789a67.71981,67.71981,0,0,0-19.83464-47.8851L5351.2901,460.95262A67.71983,67.71983,0,0,0,5303.40491,441.1179Zm175.226,596.23089-163.206,163.22576a67.7198,67.7198,0,0,1-47.888,19.83757H5036.72128a67.71984,67.71984,0,0,1-47.888-19.83757l-163.206-163.22576a67.71981,67.71981,0,0,1-19.83179-47.88226V758.66563a67.71982,67.71982,0,0,1,19.83177-47.88223l163.20606-163.2259a67.7198,67.7198,0,0,1,47.88805-19.83759h230.81548a67.71984,67.71984,0,0,1,47.88806,19.83759l163.20606,163.2259a67.71981,67.71981,0,0,1,19.83176,47.88223v230.8009A67.71984,67.71984,0,0,1,5478.63087,1037.34879Z" transform="translate(-4659.12069 -365.85107)"/><path class="cls-5" d="M4689.0684,620.16555c3.41826,3.41841,6.89762,6.77138,10.22686,10.27879,1.92036,2.02551,3.45365,2.60885,5.70436.27676,6.3028-6.53413,12.819-12.86562,19.20544-19.31183,3.49131-3.519,3.35524-7.36948.14607-10.81682-4.87325-5.22946-9.90841-10.327-15.16553-15.179-3.58017-3.31226-7.481-3.61686-11.23929.22707-6.07119,6.221-12.195,12.39813-18.45914,18.42187-2.58632,2.48971-2.42659,4.36292.11243,6.694,3.27887,3.01523,6.32289,6.26312,9.4688,9.40917m3.38032,21.905c-10.273-10.27342-20.443-20.65193-30.88756-30.75381-3.02689-2.92194-3.41822-4.66862-.15315-7.78559,9.525-9.0828,18.68111-18.54947,28.00664-27.84029,7.893-7.85618,19.55368-8.32451,27.64578-.80893,6.09774,5.667,12.01,11.56445,17.66274,17.6721a19.37251,19.37251,0,0,1-.27294,26.85336c-6.13874,6.44514-12.38367,12.8163-18.917,18.85828-3.31438,3.06762-2.93485,4.95263.15317,7.83705,6.21462,5.816,12.21477,11.89577,18.02085,18.1203,2.465,2.63671,3.82458,5.95427.95088,9.40684a6.47412,6.47412,0,0,1-8.32712,1.87411,13.69771,13.69771,0,0,1-3.46651-3.03348q-15.22775-15.18012-30.41578-30.39994" transform="translate(-4659.12069 -365.85107)"/><path class="cls-5" d="M4888.959,420.61831c3.41718,3.41732,6.9255,6.75211,10.21186,10.28737,2.0994,2.24106,3.64454,2.05986,5.70543-.06955,6.18915-6.37546,12.52734-12.61687,18.81836-18.88615,3.70041-3.68523,3.65547-7.60753.22436-11.2511-4.89792-5.20265-9.917-10.32915-15.19018-15.14582-3.64773-3.33047-7.54-3.2791-11.235.5423-5.90714,6.10846-11.89791,12.15043-18.04954,18.01014-2.75466,2.62588-2.77187,4.59667.032,7.12186,3.30886,2.97235,6.33577,6.24384,9.48274,9.391m3.07365,21.61764c-10.27191-10.27236-20.42049-20.683-30.89077-30.74631-3.237-3.10636-2.93034-4.852.12133-7.78771,9.48425-9.11712,18.665-18.56554,27.99913-27.84777,7.82007-7.78328,19.56441-8.12719,27.64361-.55373,5.93477,5.55328,11.6894,11.32531,17.26387,17.24748a19.42238,19.42238,0,0,1-.125,27.28867q-9.43652,9.84786-19.31481,19.28393c-2.552,2.45111-2.582,4.10879-.00551,6.56967q9.04527,8.605,17.67238,17.656c3.08478,3.22216,5.59914,7.00189,1.413,11.09135-3.67357,3.58765-7.20662,2.46706-10.5734-.9449-10.33836-10.47821-20.79146-20.84388-31.20382-31.2567" transform="translate(-4659.12069 -365.85107)"/><path class="cls-5" d="M4796.59617,540.26513c-1.59655-1.06048-3.05585-2.50483-4.809-3.11928-10.21306-3.60192-20.44652-7.16414-30.7722-10.41756-4.49805-1.41439-6.89564,1.04314-5.43428,5.612,3.18865,9.93979,6.69468,19.78526,10.22966,29.606,1.82591,5.07284,5.75458,8.13527,10.74691,9.82953,8.9725,3.04324,17.98253,6.0082,26.9711,9.0182,2.05657.68628,4.21391,1.45835,5.936-.42878,1.48188-1.62334.91256-3.5845.28-5.48238-3.12-9.3608-6.1843-18.73873-9.299-28.09414a17.387,17.387,0,0,0-3.84919-6.52366m-36.25668,36.46955a18.74222,18.74222,0,0,1-6.0087-7.93692c-4.12147-11.67257-8.62358-23.24974-11.86365-35.171-3.47809-12.78555,9.04387-24.11465,21.632-20.1063,10.5015,3.34778,20.91187,7.01188,31.32975,10.60843a26.83489,26.83489,0,0,1,17.15987,16.914c3.49316,9.63745,6.68075,19.38746,10.057,29.06242,2.57216,7.37606,2.05734,14.02182-3.9967,19.67243-5.75165,5.36541-12.15619,5.99681-19.34986,3.45864-8.94355-3.15581-17.95251-6.09612-26.97324-9.02034-4.71356-1.52484-8.91027-3.75733-11.98647-7.48132" transform="translate(-4659.12069 -365.85107)"/><path class="cls-5" d="M4837.7269,473.88108c-.34957.36457-.68732.71517-1.04011,1.08509,3.00861,5.52429,5.88961,11.12471,9.06655,16.5557,2.599,4.43058,3.862,12.58611,8.26889,12.20879,4.29329-.3752,8.01521-7.06273,12.04051-10.92273,1.7596-1.68018,1.51408-2.57979-.65719-3.739-9.28234-4.96362-18.4585-10.11275-27.67865-15.18789m65.78383,30.9272c-2.67317,2.77812-5.62185,2.05324-8.51686.55629a110.56753,110.56753,0,0,1-11.15337-6.15279c-2.91862-1.94942-4.75433-1.31468-6.95034.99276q-7.00143,7.35171-14.36308,14.35815c-2.19491,2.08118-2.53487,3.92652-.96087,6.545,2.26987,3.81188,4.07439,7.89826,6.3603,11.71336,2.38888,3.97167,1.54495,7.18733-2.1447,9.40143-4.23436,2.5422-7.57437.45233-9.68124-3.29523-5.12407-9.07883-9.96078-18.32276-14.92936-27.48417q-13.65614-25.21472-27.3326-50.41983c-1.41425-2.58522-2.96679-5.34308-1.219-8.16949,2.12849-3.45581,5.20373-5.24211,9.319-2.96886q40.07207,22.108,80.113,44.27272c4.36611,2.432,4.88713,7.43079,1.45908,10.65068" transform="translate(-4659.12069 -365.85107)"/><path class="cls-5" d="M4998.11542,438.31058a23.54707,23.54707,0,0,1-12.51438-3.34315,24.33242,24.33242,0,0,1-8.74884-9.14048,26.4068,26.4068,0,0,1-3.24018-13.0657,25.71055,25.71055,0,0,1,3.34388-13.16188,24.69319,24.69319,0,0,1,9.14448-9.16586,25.56289,25.56289,0,0,1,13.05794-3.37814,25.11844,25.11844,0,0,1,12.92987,3.34566,24.84858,24.84858,0,0,1,9.12038,9.143,26.45634,26.45634,0,0,1,3.47077,13.15336l-3.12647,1.47784a24.59765,24.59765,0,0,1-3.06443,12.28959,23.17433,23.17433,0,0,1-8.36115,8.66142A22.91738,22.91738,0,0,1,4998.11542,438.31058Zm1.0966-7.08288a17.51642,17.51642,0,0,0,9.10594-2.40725,16.89819,16.89819,0,0,0,6.34234-6.63606,20.76722,20.76722,0,0,0-.02374-19.00031,17.88178,17.88178,0,0,0-24.57677-6.58983,18.08928,18.08928,0,0,0-6.43484,6.62859,20.06645,20.06645,0,0,0,.02375,19.00031,17.4178,17.4178,0,0,0,15.56332,9.00455Zm21.54094,6.59516a3.9513,3.9513,0,0,1-2.85516-1.0564,3.68345,3.68345,0,0,1-1.1044-2.80089l-.019-15.182,1.73827-8.09968,6.16664,2.01363.02656,21.2582a3.60983,3.60983,0,0,1-1.15047,2.80371A3.99166,3.99166,0,0,1,5020.753,437.82286Z" transform="translate(-4659.12069 -365.85107)"/><path class="cls-5" d="M5054.00665,396.00631a3.71522,3.71522,0,0,1-2.58052-.91267,3.09309,3.09309,0,0,1-1.01291-2.39463,3.22908,3.22908,0,0,1,1.00687-2.43809,3.57447,3.57447,0,0,1,2.57817-.9722l22.72606-.02841a3.56,3.56,0,0,1,2.57453.96577,3.22712,3.22712,0,0,1,1.01448,2.43556,3.08914,3.08914,0,0,1-1.00844,2.39715,3.69729,3.69729,0,0,1-2.57217.91912Zm22.13684,41.74732a15.96194,15.96194,0,0,1-14.5014-8.6359,19.02211,19.02211,0,0,1-2.17525-9.09864l-.05578-44.62723a3.9665,3.9665,0,0,1,1.05337-2.85517,4.06871,4.06871,0,0,1,5.56666-.007,3.87915,3.87915,0,0,1,1.109,2.85246l.05577,44.62721a10.25825,10.25825,0,0,0,2.53674,7.12535,8.23011,8.23011,0,0,0,6.39659,2.79733l2.66883-.00333a3.33626,3.33626,0,0,1,2.5747,1.10677,4.03982,4.03982,0,0,1,1.01651,2.848,3.49019,3.49019,0,0,1-1.24145,2.80382,4.71915,4.71915,0,0,1-3.174,1.06393l-1.83032.00229Z" transform="translate(-4659.12069 -365.85107)"/><path class="cls-5" d="M5116.23171,417.92223a3.77884,3.77884,0,0,1-3.96423-3.94828l-.0552-44.16472a3.81019,3.81019,0,0,1,1.10184-2.89616,3.94256,3.94256,0,0,1,2.85252-1.062,3.78144,3.78144,0,0,1,2.80967,1.05492,3.909,3.909,0,0,1,1.06206,2.89346l.05519,44.16472a3.95525,3.95525,0,0,1-1.05487,2.85517A3.7343,3.7343,0,0,1,5116.23171,417.92223Zm.02472,19.78127a3.96617,3.96617,0,0,1-2.85516-1.05639,3.69761,3.69761,0,0,1-1.109-2.80089l-.05312-42.50884a3.816,3.816,0,0,1,1.10183-2.89768,3.95525,3.95525,0,0,1,2.85252-1.062,3.79334,3.79334,0,0,1,2.80968,1.05492,3.91258,3.91258,0,0,1,1.06205,2.895l.05312,42.50884a3.64127,3.64127,0,0,1-3.862,3.86706Zm39.01812-.04876a3.83529,3.83529,0,0,1-2.85673-1.10188,3.75788,3.75788,0,0,1-1.10889-2.7554l-.02933-23.46454a17.76083,17.76083,0,0,0-2.11924-9.15482,13.55093,13.55093,0,0,0-5.67182-5.28359,18.22389,18.22389,0,0,0-8.14516-1.73669,17.82849,17.82849,0,0,0-7.73,1.66708,13.67243,13.67243,0,0,0-5.51244,4.56211,11.36959,11.36959,0,0,0-2.01755,6.67462l-5.24365.00655a19.45909,19.45909,0,0,1,2.97737-10.35762,20.99037,20.99037,0,0,1,7.767-7.23529,22.25615,22.25615,0,0,1,10.85247-2.68089,24.35393,24.35393,0,0,1,11.6386,2.70283,19.75588,19.75588,0,0,1,8.06348,7.951,25.94348,25.94348,0,0,1,2.96548,12.875l.02932,23.46454a3.78237,3.78237,0,0,1-3.85893,3.86706Z" transform="translate(-4659.12069 -365.85107)"/><path class="cls-5" d="M5216.08973,438.03817a25.96549,25.96549,0,0,1-13.20578-3.29527,24.13209,24.13209,0,0,1-9.07331-9.09,27.9896,27.9896,0,0,1-.033-26.41393,24.07265,24.07265,0,0,1,9.05055-9.11873,25.98084,25.98084,0,0,1,13.19751-3.32829,25.52134,25.52134,0,0,1,13.07083,3.29546,24.19691,24.19691,0,0,1,9.02932,9.09614,26.83814,26.83814,0,0,1,3.41477,13.24288,26.04653,26.04653,0,0,1-3.29532,13.17094,24.02625,24.02625,0,0,1-9.0551,9.11269A25.74538,25.74538,0,0,1,5216.08973,438.03817Zm-.00885-7.08149a17.703,17.703,0,0,0,9.20148-2.40737,16.73533,16.73533,0,0,0,6.29541-6.58293,19.80049,19.80049,0,0,0,2.24143-9.53027,20.06875,20.06875,0,0,0-2.26529-9.56407,16.68142,16.68142,0,0,0-6.31191-6.61721,18.91059,18.91059,0,0,0-18.3983.023,17.30061,17.30061,0,0,0-6.3924,6.63309,19.41636,19.41636,0,0,0-2.32935,9.56981,19.16268,19.16268,0,0,0,2.35322,9.52453,17.41013,17.41013,0,0,0,6.40889,6.567A17.679,17.679,0,0,0,5216.08088,430.95668Z" transform="translate(-4659.12069 -365.85107)"/><path class="cls-5" d="M5277.73933,437.50169a3.93171,3.93171,0,0,1-2.84908-1.0564,3.681,3.681,0,0,1-1.109-2.80089l-.05312-42.50883a3.79371,3.79371,0,0,1,1.10183-2.89769,3.94086,3.94086,0,0,1,2.84643-1.062,3.792,3.792,0,0,1,2.81118,1.05492,3.90044,3.90044,0,0,1,1.06206,2.895l.05312,42.50884a3.76467,3.76467,0,0,1-1.05493,2.80359A3.80491,3.80491,0,0,1,5277.73933,437.50169Zm39.01356-.04875a3.83312,3.83312,0,0,1-2.85067-1.10189,3.76039,3.76039,0,0,1-1.1089-2.7554l-.02932-23.46455a17.66979,17.66979,0,0,0-2.12831-9.1548,13.44581,13.44581,0,0,0-5.66122-5.2836,18.20982,18.20982,0,0,0-8.14822-1.73669,17.78145,17.78145,0,0,0-7.71938,1.66706,13.70516,13.70516,0,0,0-5.523,4.56213,11.38759,11.38759,0,0,0-2.013,6.67461l-5.24367.00656a19.452,19.452,0,0,1,2.96828-10.35761,21.011,21.011,0,0,1,7.77-7.2353,22.29568,22.29568,0,0,1,10.86158-2.6809,24.44449,24.44449,0,0,1,11.64622,2.70282,19.7549,19.7549,0,0,1,8.05135,7.951,25.94344,25.94344,0,0,1,2.96849,12.875l.02932,23.46455a3.72249,3.72249,0,0,1-1.10807,2.75816A3.76064,3.76064,0,0,1,5316.75289,437.45294Z" transform="translate(-4659.12069 -365.85107)"/></g></svg>