<svg xmlns="http://www.w3.org/2000/svg" viewBox="0 0 959.34115 964.31947"><defs><style>.cls-1,.cls-2,.cls-6{fill:#5cbeff;}.cls-1,.cls-2,.cls-4,.cls-6{stroke:#6034fd;}.cls-1,.cls-2,.cls-4,.cls-6,.cls-7{stroke-miterlimit:10;}.cls-1{stroke-width:15.95331px;}.cls-2{stroke-width:16.10313px;}.cls-3{fill:#6034fd;}.cls-4{fill:#fccdd3;stroke-width:13.615px;}.cls-5{fill:#fff;}.cls-6{stroke-width:11.85709px;}.cls-7{fill:#fef568;stroke:#fef568;stroke-width:4px;}</style></defs><g id="Layer_7" data-name="Layer 7"><path class="cls-1" d="M12492.20521,1287.71037l336.38971.00012c8.20149,0,11.80644-15.27843,5.382-22.80981l-77.00064-90.26769c-4.36823-5.12088-4.36823-14.91758,0-20.03845l77.00058-90.26764c6.42446-7.53138,2.81949-22.80981-5.382-22.80981l-336.38971-.00012c-4.78177,0-8.65816,5.72654-8.65816,12.79058l.00007,220.61223C12483.547,1281.98383,12487.42344,1287.71037,12492.20521,1287.71037Z" transform="translate(-11885.90566 -613.03121)"/><path class="cls-2" d="M12245.534,1287.7093l-342.7378.0001c-8.35627,0-12.02925-15.27843-5.48355-22.80981l78.45373-90.26769c4.45066-5.12087,4.45067-14.91758,0-20.03845l-78.45369-90.26764c-6.54569-7.53138-2.8727-22.80981,5.48356-22.80982l342.73781-.00009c4.872,0,8.82155,5.72654,8.82155,12.79058l0,220.61223C12254.35554,1281.98276,12250.406,1287.7093,12245.534,1287.7093Z" transform="translate(-11885.90566 -613.03121)"/><path class="cls-3" d="M12655.66787,1193.93688a27.91773,27.91773,0,0,1-10.75138,22.01082l-260.5592,203.12244a27.91232,27.91232,0,0,1-34.32747,0l-260.54554-203.12244a27.88983,27.88983,0,0,1-10.76513-22.01082V753.47423a27.92325,27.92325,0,0,1,27.92887-27.91512h521.10473a27.91151,27.91151,0,0,1,27.91512,27.91512Z" transform="translate(-11885.90566 -613.03121)"/><path class="cls-4" d="M12721.36037,619.83871h-708.33373a37.94875,37.94875,0,0,0-37.945,37.945v598.71955a37.925,37.925,0,0,0,14.62249,29.92573l354.16691,276.0984a37.95676,37.95676,0,0,0,46.65854,0l354.16691-276.0984a37.95255,37.95255,0,0,0,14.60895-29.92573V657.7837A37.94883,37.94883,0,0,0,12721.36037,619.83871Zm-68.12941,570.14152a27.6819,27.6819,0,0,1-10.66056,21.82488l-258.35811,201.40655a27.67652,27.67652,0,0,1-34.03749,0l-258.34455-201.40655a27.65422,27.65422,0,0,1-10.6742-21.82488V753.23842a27.68736,27.68736,0,0,1,27.69294-27.67931h516.70266a27.67573,27.67573,0,0,1,27.67931,27.67931Z" transform="translate(-11885.90566 -613.03121)"/><path class="cls-5" d="M12158.00087,784.28019c0,6.44182.11923,12.87956-.0485,19.32137-.099,3.718.79613,5.71235,5.11426,5.63558,12.09555-.21823,24.20124-.04446,36.29275-.101,6.60547-.02627,10.10524-3.78263,10.32952-10.05471.33543-9.51924.394-19.06679.01212-28.59207-.25258-6.49436-3.6412-10.45683-10.80438-10.376-11.58231.14146-23.17273.192-34.751-.03435-4.78287-.09092-6.39735,1.82464-6.20135,6.41351.24854,5.93058.05658,11.85913.05658,17.7877m-17.45431,23.82539c0-19.35976.196-38.72155-.12731-58.08134-.099-5.60527,1.178-7.61983,7.19148-7.48041,17.53312.41624,35.08038.12327,52.62158.15558,14.83958.03435,26.26835,10.58007,26.81189,25.28633.40616,11.08523.42028,22.21291-.00807,33.29413a25.81462,25.81462,0,0,1-25.55911,25.04587c-11.85712.289-23.74458.40816-35.59362-.05454-6.01343-.23239-7.43191,1.90141-7.24,7.52891.37585,11.3358.30108,22.71807-.093,34.05387-.16165,4.80711-2.00649,9.21413-7.96738,9.75971-4.78691.44251-8.026-1.79637-9.6122-6.08012-.681-1.84687-.40816-4.07767-.40816-6.12458q-.04551-28.6517-.01619-57.30341" transform="translate(-11885.90566 -613.03121)"/><path class="cls-5" d="M12534.36973,784.59542c0,6.43978.16366,12.88767-.07073,19.31533-.13338,4.08979,1.49328,5.37492,5.44158,5.31026,11.839-.1758,23.692-.08488,35.52693-.06465,6.95909.01415,10.61244-3.724,10.81248-10.39014.28693-9.51724.38794-19.07687-.04242-28.584-.29908-6.57516-4.015-10.19413-11.09738-10.07493-11.32165.18992-22.65946.23842-33.9771-.03639-5.0698-.12123-6.94294,1.71957-6.68024,6.74086.3172,5.91843.08688,11.85308.08688,17.78366m-17.4725,23.26566c0-19.35775.24654-38.72966-.13739-58.0773-.12326-5.977,1.81049-7.33291,7.45211-7.22379,17.52707.34554,35.08035.093,52.62155.14146,14.70219.03434,26.09254,10.7761,26.56939,25.52476.35969,10.82457.34354,21.68552.01616,32.51819a25.881,25.881,0,0,1-25.82985,25.59546q-18.17061.388-36.36952-.0283c-4.71418-.095-6.3044,1.43871-6.19531,6.18519.27681,11.08727.26269,22.19472.01616,33.28806-.12932,5.9427-1.32149,11.87331-9.11916,11.78235-6.84187-.08081-9.11509-4.46563-9.07267-10.85287.13135-19.61435.04853-39.23076.04853-58.85321" transform="translate(-11885.90566 -613.03121)"/><path class="cls-5" d="M12334.605,810.30808c-.50516-2.50358-.51931-5.23953-1.59225-7.47033-6.22963-13.017-12.51586-26.01577-19.17995-38.81048-2.90569-5.57091-7.48041-5.51434-10.40833.1677-6.361,12.37036-12.334,24.95091-18.25651,37.53546-3.05927,6.5004-2.24291,13.08771.86482,19.38806,5.58708,11.32165,11.28327,22.60492,16.91681,33.91042,1.2912,2.58441,2.59653,5.3446,5.99727,5.189,2.92588-.13335,4.23729-2.51772,5.42946-4.90207,5.88007-11.76015,11.82884-23.48389,17.70889-35.23393a23.16887,23.16887,0,0,0,2.51979-9.77382m-68.526.20207c-.41423-4.68587-.08488-9.15958,1.81657-13.14024,7.11467-14.88205,13.78079-30.03282,21.96033-44.31875,8.76958-15.32455,31.24318-14.20107,39.32775,1.43668,6.74086,13.04929,13.09779,26.31077,19.52545,39.51567a35.75852,35.75852,0,0,1,.23239,32.106c-5.78915,12.3724-11.97231,24.56294-17.90693,36.86056-4.52625,9.37378-11.27315,15.15078-22.30183,14.77089-10.475-.3637-17.10473-5.80327-21.49156-14.973-5.45372-11.40046-11.17214-22.65949-16.9168-33.91445-3.00469-5.878-4.8556-11.9359-4.24537-18.34337" transform="translate(-11885.90566 -613.03121)"/><path class="cls-5" d="M12435.90986,786.511c-.67289.01415-1.32148.02627-2.00245.04242-2.37022,8.04015-4.93241,16.03179-7.05609,24.14263-1.72564,6.62367-8.22,15.49832-3.71193,19.29511,4.39894,3.6917,14.20715.89716,21.637,1.05274,3.24112.07477,3.8574-1.00424,2.90369-4.14232-4.06959-13.42311-7.86434-26.921-11.77027-40.39058m32.84555,91.1249c-5.13646.099-7.2319-3.36235-8.54931-7.50064-1.71349-5.39511-3.63917-10.7781-4.71214-16.30656-.91332-4.58687-3.24112-5.71842-7.48448-5.61335q-13.52418.33036-27.06247-.004c-4.02914-.10708-6.0882,1.3114-7.07225,5.26176-1.45283,5.73054-3.60278,11.28126-5.04352,17.03-1.49125,5.99323-5.31634,8.22807-10.87915,6.83786-6.38523-1.59429-7.56328-6.71055-6.01746-12.22689,3.72605-13.38272,7.87845-26.65024,11.82884-39.96426q10.89021-36.62616,21.75225-73.26243c1.10325-3.76851,2.23887-7.83,6.54889-8.84639,5.26176-1.25078,9.84255-.03638,11.5783,5.98312q16.92791,58.58853,33.773,117.20128c1.82258,6.40544-2.39649,11.60658-8.66049,11.41058" transform="translate(-11885.90566 -613.03121)"/><path class="cls-5" d="M12173.485,1000.82633a31.37731,31.37731,0,0,1-16.6703-4.47571,32.42384,32.42384,0,0,1-11.64293-12.19459,35.188,35.188,0,0,1-4.2959-17.41592,34.26024,34.26024,0,0,1,4.47775-17.53311,32.90473,32.90473,0,0,1,12.20063-12.19862,34.06351,34.06351,0,0,1,17.40581-4.47976,33.47133,33.47133,0,0,1,17.224,4.47976,33.11163,33.11163,0,0,1,12.138,12.19862,35.25383,35.25383,0,0,1,4.603,17.53311l-4.16859,1.96407a32.77735,32.77735,0,0,1-4.10393,16.37122,30.88064,30.88064,0,0,1-11.156,11.52774A30.53809,30.53809,0,0,1,12173.485,1000.82633Zm1.47305-9.43636a23.34141,23.34141,0,0,0,12.138-3.19259,22.51752,22.51752,0,0,0,8.46246-8.83223,27.67313,27.67313,0,0,0,0-25.31864,23.82811,23.82811,0,0,0-32.73847-8.82212,24.10433,24.10433,0,0,0-8.58569,8.82212,26.73918,26.73918,0,0,0,0,25.31864,23.20991,23.20991,0,0,0,20.72369,12.02482Zm28.69312,8.82415a5.26531,5.26531,0,0,1-3.80286-1.41244,4.90832,4.90832,0,0,1-1.467-3.73413V974.8369l2.3298-10.79023,8.21391,2.6935v28.32738a4.81023,4.81023,0,0,1-1.53771,3.73413A5.319,5.319,0,0,1,12203.65121,1000.21412Z" transform="translate(-11885.90566 -613.03121)"/><path class="cls-5" d="M12248.0326,944.54743a4.95071,4.95071,0,0,1-3.43712-1.22048,4.12165,4.12165,0,0,1-1.34575-3.19262,4.30284,4.30284,0,0,1,1.34575-3.24716,4.76313,4.76313,0,0,1,3.43712-1.2912h30.28336a4.74373,4.74373,0,0,1,3.429,1.2912,4.30026,4.30026,0,0,1,1.34779,3.24716,4.11639,4.11639,0,0,1-1.34779,3.19262,4.92677,4.92677,0,0,1-3.429,1.22048Zm29.42862,55.66669a21.26985,21.26985,0,0,1-19.30925-11.53181,25.34763,25.34763,0,0,1-2.88346-12.12789V917.08691a5.28547,5.28547,0,0,1,1.4084-3.80286,5.42171,5.42171,0,0,1,7.41778,0,5.16911,5.16911,0,0,1,1.47306,3.80286v59.46748a13.66944,13.66944,0,0,0,3.36843,9.499,10.967,10.967,0,0,0,8.519,3.7382h3.55632a4.44572,4.44572,0,0,1,3.429,1.4791,5.38319,5.38319,0,0,1,1.34979,3.79678,4.65085,4.65085,0,0,1-1.659,3.73413,6.28843,6.28843,0,0,1-4.23121,1.41244h-2.439Z" transform="translate(-11885.90566 -613.03121)"/><path class="cls-5" d="M12330.91328,973.85482a5.03545,5.03545,0,0,1-5.27592-5.26784v-58.8512a5.07724,5.07724,0,0,1,1.47306-3.8574,5.25359,5.25359,0,0,1,3.80286-1.4104,5.03891,5.03891,0,0,1,3.74223,1.4104,5.20875,5.20875,0,0,1,1.41041,3.8574V968.587a5.2705,5.2705,0,0,1-1.41041,3.80286A4.97611,4.97611,0,0,1,12330.91328,973.85482Zm0,26.3593a5.2851,5.2851,0,0,1-3.80286-1.41244,4.92718,4.92718,0,0,1-1.47306-3.73413V938.42288a5.085,5.085,0,0,1,1.47306-3.85943,5.27049,5.27049,0,0,1,3.80286-1.41041,5.05474,5.05474,0,0,1,3.74223,1.41041,5.21358,5.21358,0,0,1,1.41041,3.85943v56.64467a4.85214,4.85214,0,0,1-5.15264,5.14657Zm51.99314,0a5.11064,5.11064,0,0,1-3.80486-1.47306,5.00752,5.00752,0,0,1-1.473-3.67351V963.80014q0-7.47132-2.80872-12.20266a18.05714,18.05714,0,0,0-7.54911-7.05,24.284,24.284,0,0,0-10.85084-2.32777,23.75707,23.75707,0,0,0-10.30325,2.20857,18.21914,18.21914,0,0,0-7.35313,6.07,15.1504,15.1504,0,0,0-2.69958,8.89082h-6.98736a25.93,25.93,0,0,1,3.9847-13.797,27.97049,27.97049,0,0,1,10.36187-9.62836,29.65725,29.65725,0,0,1,14.46577-3.55432,32.45255,32.45255,0,0,1,15.50436,3.621,26.32543,26.32543,0,0,1,10.73164,10.60837q3.92514,6.98334,3.93017,17.16131v31.26741a5.04018,5.04018,0,0,1-5.14861,5.14657Z" transform="translate(-11885.90566 -613.03121)"/><path class="cls-5" d="M12463.94424,1000.82633a34.59986,34.59986,0,0,1-17.5917-4.41306,32.15689,32.15689,0,0,1-12.07538-12.12792,37.29717,37.29717,0,0,1,0-35.19758,32.07764,32.07764,0,0,1,12.07538-12.136,34.62051,34.62051,0,0,1,17.5917-4.4131,34.0082,34.0082,0,0,1,17.41188,4.4131,32.24307,32.24307,0,0,1,12.01674,12.136,35.76273,35.76273,0,0,1,4.52825,17.65231,34.70791,34.70791,0,0,1-4.41306,17.54527,32.01595,32.01595,0,0,1-12.08143,12.12792A34.30666,34.30666,0,0,1,12463.94424,1000.82633Zm0-9.43636a23.58978,23.58978,0,0,0,12.26531-3.19259,22.3005,22.3005,0,0,0,8.39984-8.7615,26.385,26.385,0,0,0,3.00265-12.69571,26.7425,26.7425,0,0,0-3.00265-12.74824,22.2286,22.2286,0,0,0-8.39984-8.82819,25.199,25.199,0,0,0-24.51644,0,23.05361,23.05361,0,0,0-8.52915,8.82819,25.873,25.873,0,0,0-3.11988,12.74824,25.53518,25.53518,0,0,0,3.11988,12.69571,23.19969,23.19969,0,0,0,8.52915,8.7615A23.55791,23.55791,0,0,0,12463.94424,991.39Z" transform="translate(-11885.90566 -613.03121)"/><path class="cls-5" d="M12546.09548,1000.21412a5.23916,5.23916,0,0,1-3.79475-1.41244,4.90507,4.90507,0,0,1-1.47306-3.73413V938.42288a5.05523,5.05523,0,0,1,1.47306-3.85943,5.2513,5.2513,0,0,1,3.79475-1.41041,5.05307,5.05307,0,0,1,3.74424,1.41041,5.19748,5.19748,0,0,1,1.4104,3.85943v56.64467a5.01658,5.01658,0,0,1-1.4104,3.73413A5.0702,5.0702,0,0,1,12546.09548,1000.21412Zm51.98707,0a5.10769,5.10769,0,0,1-3.79678-1.47306,5.0108,5.0108,0,0,1-1.47306-3.67351V963.80014q0-7.47132-2.82081-12.20266a17.917,17.917,0,0,0-7.535-7.05,24.26508,24.26508,0,0,0-10.85491-2.32777,23.69435,23.69435,0,0,0-10.28913,2.20857,18.26265,18.26265,0,0,0-7.36725,6.07,15.1744,15.1744,0,0,0-2.69353,8.89082h-6.9874a25.92046,25.92046,0,0,1,3.97259-13.797,27.99778,27.99778,0,0,1,10.3659-9.62836,29.70989,29.70989,0,0,1,14.47792-3.55432,32.57321,32.57321,0,0,1,15.51451,3.621,26.32425,26.32425,0,0,1,10.71548,10.60837q3.92514,6.98334,3.93418,17.16131v31.26741a4.96039,4.96039,0,0,1-1.48114,3.67351A5.01118,5.01118,0,0,1,12598.08255,1000.21412Z" transform="translate(-11885.90566 -613.03121)"/><rect class="cls-6" x="80.19003" y="394.74298" width="802.19572" height="246.19355"/><g id="Layer_8" data-name="Layer 8"><circle class="cls-5" cx="109.48144" cy="423.38814" r="9.67742"/><circle class="cls-5" cx="145.09445" cy="423.38814" r="9.67742"/><circle class="cls-5" cx="180.70746" cy="423.38814" r="9.67742"/><circle class="cls-5" cx="216.32047" cy="423.38814" r="9.67742"/><circle class="cls-5" cx="251.93348" cy="423.38814" r="9.67742"/><circle class="cls-5" cx="287.54649" cy="423.38814" r="9.67742"/><circle class="cls-5" cx="323.1595" cy="423.38814" r="9.67742"/><circle class="cls-5" cx="358.77251" cy="423.38814" r="9.67742"/><circle class="cls-5" cx="394.38552" cy="423.38814" r="9.67742"/><circle class="cls-5" cx="429.99853" cy="423.38814" r="9.67742"/><circle class="cls-5" cx="465.61154" cy="423.38814" r="9.67742"/><circle class="cls-5" cx="501.22455" cy="423.38814" r="9.67742"/><circle class="cls-5" cx="536.83756" cy="423.38814" r="9.67742"/><circle class="cls-5" cx="572.45057" cy="423.38814" r="9.67742"/><circle class="cls-5" cx="608.06358" cy="423.38814" r="9.67742"/><circle class="cls-5" cx="643.67659" cy="423.38814" r="9.67742"/><circle class="cls-5" cx="679.2896" cy="423.38814" r="9.67742"/><circle class="cls-5" cx="714.90261" cy="423.38814" r="9.67742"/><circle class="cls-5" cx="750.51562" cy="423.38814" r="9.67742"/><circle class="cls-5" cx="786.12863" cy="423.38814" r="9.67742"/><circle class="cls-5" cx="821.74164" cy="423.38814" r="9.67742"/><circle class="cls-5" cx="857.35465" cy="423.38814" r="9.67742"/><circle class="cls-5" cx="109.48144" cy="609.19459" r="9.67742"/><circle class="cls-5" cx="145.09445" cy="609.19459" r="9.67742"/><circle class="cls-5" cx="180.70746" cy="609.19459" r="9.67742"/><circle class="cls-5" cx="216.32047" cy="609.19459" r="9.67742"/><circle class="cls-5" cx="251.93348" cy="609.19459" r="9.67742"/><circle class="cls-5" cx="287.54649" cy="609.19459" r="9.67742"/><circle class="cls-5" cx="323.1595" cy="609.19459" r="9.67742"/><circle class="cls-5" cx="358.77251" cy="609.19459" r="9.67742"/><circle class="cls-5" cx="394.38552" cy="609.19459" r="9.67742"/><circle class="cls-5" cx="429.99853" cy="609.19459" r="9.67742"/><circle class="cls-5" cx="465.61154" cy="609.19459" r="9.67742"/><circle class="cls-5" cx="501.22455" cy="609.19459" r="9.67742"/><circle class="cls-5" cx="536.83756" cy="609.19459" r="9.67742"/><circle class="cls-5" cx="572.45057" cy="609.19459" r="9.67742"/><circle class="cls-5" cx="608.06358" cy="609.19459" r="9.67742"/><circle class="cls-5" cx="643.67659" cy="609.19459" r="9.67742"/><circle class="cls-5" cx="679.2896" cy="609.19459" r="9.67742"/><circle class="cls-5" cx="714.90261" cy="609.19459" r="9.67742"/><circle class="cls-5" cx="750.51562" cy="609.19459" r="9.67742"/><circle class="cls-5" cx="786.12863" cy="609.19459" r="9.67742"/><circle class="cls-5" cx="821.74164" cy="609.19459" r="9.67742"/><circle class="cls-5" cx="857.35465" cy="609.19459" r="9.67742"/></g><path class="cls-7" d="M12077.87733,1180.38867h-6.30566v-51.19824h-53.75v-5.70508h53.75v-5.85547q0-16.36377-3.30274-23.12207a26.62526,26.62526,0,0,0-10.50976-11.11035,29.06178,29.06178,0,0,0-7.50782-2.92773,36.51529,36.51529,0,0,0-8.55761-.97559q-9.45851,0-16.06543,3.90332a25.53812,25.53812,0,0,0-11.86035,14.86426q-1.95411,6.457-1.95215,19.36816v62.75879h-6.30567v-62.75879q0-13.66113,1.95118-20.41894a31.00976,31.00976,0,0,1,14.56445-18.61817,34.48927,34.48927,0,0,1,9.2334-3.52832,44.8184,44.8184,0,0,1,10.43457-1.27539,45.33108,45.33108,0,0,1,10.35937,1.126,35.07545,35.07545,0,0,1,9.30957,3.67773,31.30066,31.30066,0,0,1,14.41309,18.46778q2.10059,7.05907,2.10156,20.56933Z" transform="translate(-11885.90566 -613.03121)"/><path class="cls-7" d="M12161.95448,1106.06934q0,13.81494-7.80762,22.37011-8.85937,9.61084-25.52344,9.60938h-19.66894v-5.70508h19.66894q12.30909,0,19.51856-6.45605,7.207-6.45411,7.206-19.21778,0-12.91113-7.80664-20.41992-7.05908-6.75586-18.167-6.75586-10.81055,0-17.417,6.15527-8.55762,7.96-8.55762,24.623v70.11621h-6.30566v-70.26562q0-19.81933,10.80957-29.12793,8.40673-7.207,21.62012-7.20606,15.16405,0,24.17285,9.90918Q12161.95252,1092.70558,12161.95448,1106.06934Z" transform="translate(-11885.90566 -613.03121)"/><path class="cls-7" d="M12241.5287,1106.06934q0,13.81494-7.80762,22.37011-8.85937,9.61084-25.52344,9.60938h-19.66894v-5.70508h19.66894q12.30909,0,19.51856-6.45605,7.207-6.45411,7.206-19.21778,0-12.91113-7.80664-20.41992-7.05908-6.75586-18.167-6.75586-10.81055,0-17.417,6.15527-8.55762,7.96-8.55762,24.623v70.11621h-6.30566v-70.26562q0-19.81933,10.80957-29.12793,8.40674-7.207,21.62011-7.20606,15.16407,0,24.17286,9.90918Q12241.52674,1092.70558,12241.5287,1106.06934Z" transform="translate(-11885.90566 -613.03121)"/><path class="cls-7" d="M12322.60487,1180.38867h-6.456q-.45119-2.40673-.751-4.51855a24.65525,24.65525,0,0,1-.30078-3.3125V1154.9375q0-10.08839-3.60254-15.51172-5.85645-8.88135-21.32031-8.88379h-21.62012v-5.70508h17.11621q12.00879,0,19.21777-5.38671,8.10792-6.1377,8.10743-17.50977,0-10.32569-7.13184-16.38477-7.13232-6.05859-18.39258-6.06152-12.312,0-18.61719,7.80664-6.30615,7.80909-6.30566,21.02051v72.06738h-6.30566v-72.06738q0-16.06494,8.332-25.29883,8.33349-9.23437,24.09765-9.2334,14.41407,0,22.67188,7.78614a25.81034,25.81034,0,0,1,8.25781,19.61132,29.24147,29.24147,0,0,1-4.35449,16.09571,23.51536,23.51536,0,0,1-12.91211,9.65625q12.76024,2.25879,16.96582,13.5498,2.10058,5.72314,2.10254,17.46582v15.65918a18.78112,18.78112,0,0,0,.375,3.69043A20.1933,20.1933,0,0,0,12322.60487,1180.38867Z" transform="translate(-11885.90566 -613.03121)"/><path class="cls-7" d="M12401.27772,1180.38867h-9.75879q-26.124,0-41.13867-16.51562-13.36524-14.7129-13.3623-36.03418,0-21.31641,13.21191-35.88282,15.16407-16.667,41.58887-16.666h9.459v5.70508h-9.459q-20.41992,0-34.30664,12.08691a38.59942,38.59942,0,0,0-13.8877,30.40332h57.65332v5.70508h-57.65332q0,20.12109,13.58692,32.80566,13.58789,12.68994,34.9082,12.6875h9.1582Z" transform="translate(-11885.90566 -613.03121)"/><path class="cls-7" d="M12476.64686,1080.99512h-10.96q-21.47314,0-34.68262,13.21289-13.21288,13.21288-13.21191,33.63086,0,21.62109,14.56348,34.68261,13.51172,12.1626,33.33105,12.16211h10.81055v5.70508h-10.81055q-23.2749,0-38.58594-14.11328-15.917-14.71289-15.915-38.43652,0-20.56788,12.76172-35.28223,15.01173-17.26464,41.73926-17.2666h10.96Z" transform="translate(-11885.90566 -613.03121)"/><path class="cls-7" d="M12496.4662,1180.38867h-6.30567V1075.29h6.30567Z" transform="translate(-11885.90566 -613.03121)"/><path class="cls-7" d="M12588.05116,1180.38867h-6.30566v-51.19824h-53.75v-5.70508h53.75v-5.85547q0-16.36377-3.30274-23.12207a26.62526,26.62526,0,0,0-10.50976-11.11035,29.06192,29.06192,0,0,0-7.50782-2.92773,36.51535,36.51535,0,0,0-8.55761-.97559q-9.45851,0-16.06543,3.90332a25.53817,25.53817,0,0,0-11.86036,14.86426q-1.95409,6.457-1.95214,19.36816v62.75879h-6.30567v-62.75879q0-13.66113,1.95117-20.41894a31.00981,31.00981,0,0,1,14.56446-18.61817,34.48927,34.48927,0,0,1,9.2334-3.52832,44.81839,44.81839,0,0,1,10.43457-1.27539,45.33114,45.33114,0,0,1,10.35937,1.126,35.07545,35.07545,0,0,1,9.30957,3.67773,31.30066,31.30066,0,0,1,14.41309,18.46778q2.10059,7.05907,2.10156,20.56933Z" transform="translate(-11885.90566 -613.03121)"/><path class="cls-7" d="M12664.02089,1080.99512H12634.143v99.39355h-6.30567v-99.39355h-29.8789V1075.29h66.0625Z" transform="translate(-11885.90566 -613.03121)"/><path class="cls-7" d="M12734.58436,1180.38867h-9.75879q-26.124,0-41.13867-16.51562-13.36522-14.7129-13.3623-36.03418,0-21.31641,13.21191-35.88282,15.16407-16.667,41.58887-16.666h9.459v5.70508h-9.459q-20.41992,0-34.30664,12.08691a38.59942,38.59942,0,0,0-13.8877,30.40332h57.65332v5.70508H12676.931q0,20.12109,13.58692,32.80566,13.58789,12.68994,34.9082,12.6875h9.1582Z" transform="translate(-11885.90566 -613.03121)"/><path class="cls-5" d="M12321.49061,1270.65234h14.17383v73.36621q0,17.87843,7.61133,26.25391,7.60986,8.37744,23.87793,8.376,16.26708,0,23.87793-8.376,7.61133-8.37451,7.61035-26.25391v-73.36621h14.25488v73.36621q0,23.918-11.39551,35.79688-11.39647,11.87988-34.34765,11.87891-22.87355,0-34.26758-11.87891-11.39649-11.877-11.39551-35.79688Z" transform="translate(-11885.90566 -613.03121)"/></g></svg>