<svg id="Layer_2" data-name="Layer 2" xmlns="http://www.w3.org/2000/svg" viewBox="0 0 844.82483 1171.09064"><defs><style>.cls-1,.cls-13{fill:#fccdd3;}.cls-1,.cls-6{stroke:#6034fd;}.cls-1,.cls-10,.cls-11,.cls-12,.cls-4,.cls-5,.cls-6,.cls-9{stroke-miterlimit:10;}.cls-1,.cls-4,.cls-5,.cls-6{stroke-width:11.85709px;}.cls-2,.cls-4{fill:#5ebdfd;}.cls-3{fill:#fef568;}.cls-4{stroke:#673af5;}.cls-10,.cls-11,.cls-12,.cls-14,.cls-5,.cls-9{fill:#fffeff;}.cls-10,.cls-11,.cls-12,.cls-5,.cls-9{stroke:#fccdd3;}.cls-6{fill:#cdcaff;}.cls-7{fill:#6536ff;}.cls-8{fill:#cbc6ff;opacity:0.5;}.cls-9{stroke-width:10.89228px;}.cls-10{stroke-width:13.48165px;}.cls-11{stroke-width:14.47219px;}.cls-12{stroke-width:13.82358px;}.cls-15{fill:#6534ff;}</style></defs><path class="cls-1" d="M907.15917,1365.39068,692.28338,1580.26647a7.82142,7.82142,0,0,1-13.3007-6.425l10.15447-88.21695a7.82142,7.82142,0,0,0-8.66451-8.66452l-88.217,10.15447a7.82142,7.82142,0,0,1-6.425-13.30069L800.7065,1258.938a7.82143,7.82143,0,0,1,11.06116,0l95.39151,95.39152A7.82141,7.82141,0,0,1,907.15917,1365.39068Z" transform="translate(-577.58758 -417.41895)"/><path class="cls-1" d="M1092.84083,1365.39068l214.87579,214.87579a7.82142,7.82142,0,0,0,13.3007-6.425l-10.15447-88.21695a7.82142,7.82142,0,0,1,8.66451-8.66452l88.217,10.15447a7.82142,7.82142,0,0,0,6.425-13.30069L1199.2935,1258.938a7.82143,7.82143,0,0,0-11.06116,0l-95.39151,95.39152A7.82141,7.82141,0,0,0,1092.84083,1365.39068Z" transform="translate(-577.58758 -417.41895)"/><path class="cls-2" d="M1235.40339,1216.67832l-224.99613,175.40021a24.10673,24.10673,0,0,1-29.64265,0L755.76848,1216.67832a24.10671,24.10671,0,0,1-9.28541-19.01217V817.31474A24.10673,24.10673,0,0,1,770.5898,793.208h449.99227a24.10673,24.10673,0,0,1,24.10673,24.10673v380.35141A24.10671,24.10671,0,0,1,1235.40339,1216.67832Z" transform="translate(-577.58758 -417.41895)"/><path class="cls-3" d="M1235.40339,1196.75076,1010.40726,1372.151a24.10673,24.10673,0,0,1-29.64265,0L755.76848,1196.75076a24.10673,24.10673,0,0,1-9.28541-19.01218V797.38717a24.10673,24.10673,0,0,1,24.10673-24.10672h449.99227a24.10673,24.10673,0,0,1,24.10673,24.10672v380.35141A24.10673,24.10673,0,0,1,1235.40339,1196.75076Z" transform="translate(-577.58758 -417.41895)"/><path class="cls-4" d="M1304.02175,681.214h-616.877a33.049,33.049,0,0,0-33.04571,33.04571v521.41568a33.0283,33.0283,0,0,0,12.7345,26.06186l308.43854,240.44987a33.056,33.056,0,0,0,40.6342,0l308.43854-240.44987a33.05232,33.05232,0,0,0,12.72271-26.06186V714.25968A33.049,33.049,0,0,0,1304.02175,681.214Zm-59.33286,496.52751a24.10772,24.10772,0,0,1-9.28412,19.007l-225.00011,175.40188a24.10307,24.10307,0,0,1-29.64273,0L755.77361,1196.74843a24.08363,24.08363,0,0,1-9.296-19.007V797.38973A24.11251,24.11251,0,0,1,770.595,773.28424h449.98843a24.10237,24.10237,0,0,1,24.10548,24.10549Z" transform="translate(-577.58758 -417.41895)"/><path class="cls-5" d="M798.58478,1250.05657q122.26115-76.32182,238.67029-160.66323s-21.95977-108.50068,47.80583-151.68345c34.13406-21.12793,75.7211-18.05338,96.51281,2.30475l110.47777,186.79674c17.4414,33.92154-39.02349,81.09444-52.3242,89.9609-30.97844,20.65073-98.9477,14.62944-98.9477,14.62944-64.63525,56.07251-122.45924,117.1297-188.37641,165.77137" transform="translate(-577.58758 -417.41895)"/><path class="cls-4" d="M995.05235,1377.237a24.04222,24.04222,0,0,1-14.28778-5.08674l-224.98832-175.402a24.08336,24.08336,0,0,1-9.296-19.00681V797.38958a24.1125,24.1125,0,0,1,24.11736-24.10542H995.05235V681.21381H687.1474a33.049,33.049,0,0,0-33.04571,33.04571v521.41554a33.02838,33.02838,0,0,0,12.73451,26.062l308.43853,240.44987a32.96059,32.96059,0,0,0,19.77762,6.97212" transform="translate(-577.58758 -417.41895)"/><path class="cls-6" d="M1313.7085,1147.748l-10.38779,7.666a27.22048,27.22048,0,0,1-35.86129-3.11518l-101.156-106.06127c.07382-42.2516-52.60557-76.38488-105.39076-110.50167l-16.13555-16.918a27.2205,27.2205,0,0,1,3.53455-40.68895l75.61694-55.80408a27.22049,27.22049,0,0,1,39.92252,8.61832l157.45313,281.619A27.22049,27.22049,0,0,1,1313.7085,1147.748Z" transform="translate(-577.58758 -417.41895)"/><path class="cls-7" d="M1146.68282,684.7478c49.12,60.49205,30.0578,137.22789-30.43425,186.34794s-139.50679,52.02355-188.62684-8.4685A141.09293,141.09293,0,0,1,1146.68282,684.7478Z" transform="translate(-577.58758 -417.41895)"/><path class="cls-8" d="M1074.169,861.78713c7.20239-.28234,8.05544,11.08741,1.30041,13.6021a150.84659,150.84659,0,0,1-26.93494,7.21832c-64.17869,11.08937-122.97978-19.08125-134.06915-83.25994a117.54075,117.54075,0,0,1,18.47194-86.09667c4.66382-6.90439,14.31138-1.77342,12.53483,6.367C929.1399,794.45384,970.72511,865.84224,1074.169,861.78713Z" transform="translate(-577.58758 -417.41895)"/><rect class="cls-9" x="1262.53393" y="1066.61429" width="46.81639" height="97.21941" rx="18.9642" transform="translate(859.53013 -997.63521) rotate(54.16213)"/><rect class="cls-10" x="1227.07643" y="997.22876" width="56.37195" height="123.69047" rx="23.84992" transform="translate(801.29367 -996.0384) rotate(54.16213)"/><rect class="cls-11" x="1199.24975" y="927.92493" width="56.37195" height="142.53404" rx="25.58339" transform="translate(741.21432 -998.30144) rotate(54.16213)"/><rect class="cls-12" x="1162.20622" y="877.21544" width="54.30156" height="135.00255" rx="24.45084" transform="translate(681.26862 -990.01222) rotate(54.16213)"/><path class="cls-13" d="M1163.86506,1154.88125a116.91442,116.91442,0,0,0,17.54951-50.6832c1.81417-17.62951-.70554-35.639-5.64271-52.58713a224.14438,224.14438,0,0,0-11.9068-31.14655,7.14975,7.14975,0,0,0-4.2517-3.26943,7.27067,7.27067,0,0,0-5.482.71718c-3.4941,2.25269-4.22586,6.10811-2.55225,9.73365,1.00372,2.17436,1.97034,4.3641,2.92192,6.56165q.4541,1.06769-.16264-.39146.183.43521.3641.87118.361.86871.71468,1.74039.61478,1.51515,1.207,3.03933,2.48073,6.38682,4.52624,12.9317a157.60838,157.60838,0,0,1,5.71852,25.37859l-.25413-1.89125a120.1129,120.1129,0,0,1,.19147,31.52986l.25413-1.89125a106.34779,106.34779,0,0,1-5.42464,22.12175q-.49631,1.364-1.02976,2.71408-.22959.58116-.46595,1.1596-.158.38655-.3189.77186.67179-1.58464.22641-.54346c-.78892,1.80772-1.61105,3.59933-2.489,5.3657a118.52468,118.52468,0,0,1-5.9794,10.58581,7.17811,7.17811,0,0,0,2.55225,9.73365,7.26582,7.26582,0,0,0,9.73365-2.55225Z" transform="translate(-577.58758 -417.41895)"/><path class="cls-14" d="M1037.25507,1089.39334s-21.95977-108.50068,47.80583-151.68345c34.13406-21.12793,75.7211-18.05338,96.51281,2.30475l49.3019,59.41283a28.899,28.899,0,0,1-3.78469,40.69366l-10.94626,9.08341a28.899,28.899,0,0,1-40.69366-3.78468L1126.14911,986.007" transform="translate(-577.58758 -417.41895)"/><path class="cls-13" d="M1044.1152,1087.50209c-.52624-2.60411-.90021-5.24468-1.25541-7.8762l.25413,1.89125q-1.19373-8.88463-1.66833-17.84712a227.79337,227.79337,0,0,1-.03538-24.76357q.42837-7.91674,1.47349-15.78283l-.25413,1.89125a165.05629,165.05629,0,0,1,4.78964-23.23167q1.69908-5.94191,3.92008-11.71794.49955-1.29141,1.02721-2.57171c.10574-.25648.21381-.512.31978-.76837-.94887,2.29562-.5,1.18271-.28233.67738q.33-.76609.67058-1.52761,1.25344-2.80259,2.65175-5.53735a107.50353,107.50353,0,0,1,6.4223-10.93132c1.16789-1.73969,2.40425-3.42528,3.66-5.10187-1.58052,2.11019-.41352.53577-.05193.08064q.493-.62056.99618-1.233,1.057-1.28675,2.15783-2.53654a94.186,94.186,0,0,1,9.34653-9.22691q1.20549-1.03387,2.4455-2.02653c.23782-.19035.47757-.3782.71618-.56754.94711-.75156-1.2934.98147-.59431.45693.53271-.39971,1.06126-.80456,1.5984-1.19843q2.77381-2.034,5.68965-3.86417a98.20773,98.20773,0,0,1,9.0858-5.0565c1.49909-.73312,3.026-1.39807,4.54764-2.08156-1.96714.88362-.60052.25459-.17331.08065q.66747-.27177,1.339-.53341,1.24065-.48383,2.49417-.93371a96.2167,96.2167,0,0,1,19.29931-4.734l-1.89125.25413a88.4602,88.4602,0,0,1,23.15037-.11553l-1.89125-.25413a76.99875,76.99875,0,0,1,10.55382,2.15468q2.55652.71823,5.05359,1.62931c.73957.27069,1.47145.55991,2.203.85135,1.01691.40514-.76864-.32965-.77138-.33055.2049.06781.4181.17947.6132.26495q.60936.267,1.21289.54716a57.2518,57.2518,0,0,1,8.60645,4.91609,10.45281,10.45281,0,0,1,1.92736,1.40636c.01471.017-1.51467-1.2032-.69154-.52836.122.10006.24647.19732.369.29677q.55011.44637,1.08773.90782a26.57042,26.57042,0,0,1,2.323,2.13532c3.17274,3.46949,6.04025,7.279,9.04151,10.89577l18.297,22.0494,16.79851,20.24358,4.47668,5.39477c.22313.26889.44761.53672.66942.80671a5.596,5.596,0,0,1,.45681.56439c-.01872-.03062-1.09234-1.49648-.46041-.58165.13521.19575.2786.386.41428.5815q.75519,1.088,1.40831,2.24217c.42987.75933.80561,1.54051,1.18183,2.32708.51015,1.06657-.64578-1.63008-.11747-.26841q.27907.71928.51964,1.45261a29.67228,29.67228,0,0,1,1.14892,4.9577l-.25413-1.89125a30.197,30.197,0,0,1,.00035,8.0537l.25413-1.89125a29.73316,29.73316,0,0,1-1.57721,6.19412c-.07944.21109-.16924.41934-.24605.63119.7104-1.95933.52739-1.20833.31972-.76228-.21574.46341-.42781.92657-.66031,1.382a28.69551,28.69551,0,0,1-1.64218,2.81139,8.72521,8.72521,0,0,1-.99985,1.41306c.01429-.01386,1.18656-1.45645.468-.61658-.15171.1773-.29659.36048-.44815.538a29.0018,29.0018,0,0,1-2.46179,2.5489c-.60278.55236-1.23433,1.07022-1.86319,1.59206-3.57508,2.96667-7.1833,5.89776-10.73278,8.89473,1.78527-1.50738.22611-.19625-.2933.15492q-.80457.544-1.64453,1.0326-.75519.43975-1.53575.83293c-.57328.28872-2.67754,1.01363-.34741.21555a38.01413,38.01413,0,0,1-6.89,1.8591l1.89125-.25412a30.197,30.197,0,0,1-8.0537.00035l1.89125.25413a30.15087,30.15087,0,0,1-4.273-.93017q-.97141-.28968-1.92117-.647c-.15832-.05959-.31463-.12621-.4737-.18359-.69013-.249,1.0248.46247.91584.39353a10.69811,10.69811,0,0,0-1.0824-.4939,28.70359,28.70359,0,0,1-3.85086-2.23552c-.28539-.19679-.56143-.40626-.84491-.60549-.56722-.39864.78179.6466.74956.58278-.0548-.10851-.31165-.25091-.40734-.32964q-.8835-.72689-1.70784-1.522a45.2255,45.2255,0,0,1-3.331-3.73648l-10.22769-12.32521-15.59254-18.7903-14.75871-17.78546c-2.48385-2.99324-4.87646-6.10283-7.4703-9.00232-.03955-.04421-.076-.09162-.11393-.1373a7.14615,7.14615,0,0,0-5.03054-2.08372,7.23977,7.23977,0,0,0-5.03054,2.08372c-2.80616,3.05688-2.54531,6.99377,0,10.06108l7.58423,9.13962,16.748,20.18267,16.90461,20.37144c2.68461,3.23518,5.35414,6.48359,8.05417,9.70594,9.424,11.24709,26.25513,15.7133,39.944,10.21231a40.11491,40.11491,0,0,0,10.83256-6.42354c1.02263-.84029,2.03724-1.69055,3.0558-2.53577,2.76443-2.294,5.57189-4.54484,8.29368-6.88945a35.25984,35.25984,0,0,0,11.29921-19.35781,37.19318,37.19318,0,0,0-2.92338-23.50631c-2.41982-5.10885-6.60607-9.46878-10.20441-13.80507l-15.71921-18.94295-17.4925-21.0799-10.444-12.5859a12.81176,12.81176,0,0,0-1.12248-1.18715,61.62924,61.62924,0,0,0-8.26274-6.4924,68.81166,68.81166,0,0,0-18.75754-8.45207c-14.67293-4.24091-30.46294-4.12377-45.31476-.88535a104.833,104.833,0,0,0-41.99552,20.03959,102.336,102.336,0,0,0-23.28354,26.05526,127.48938,127.48938,0,0,0-13.71912,30.38908,174.37941,174.37941,0,0,0-6.37309,31.58771,212.83379,212.83379,0,0,0-1.33669,27.46986q.15041,10.80165,1.28955,21.56109c.50005,4.70343,1.10735,9.40634,1.92274,14.06647.094.53732.18878,1.07493.29683,1.60966.73844,3.65417,5.27131,6.09507,8.75138,4.96888a7.29065,7.29065,0,0,0,4.96888-8.75138Z" transform="translate(-577.58758 -417.41895)"/><path class="cls-15" d="M778.18507,463.27382c0,7.00947.12974,14.0145-.05277,21.024-.10773,4.0456.86628,6.21572,5.56492,6.13218,13.16141-.23747,26.33385-.04838,39.49086-.10994,7.18755-.02859,10.99572-4.116,11.23976-10.94073.365-10.35808.42876-20.747.01318-31.1116-.27483-7.06664-3.96206-11.37829-11.75645-11.29032-12.60294.15393-25.2147.20888-37.81325-.03737-5.20433-.09894-6.96108,1.98542-6.74781,6.97866.27044,6.45318.06156,12.90415.06156,19.35515M759.1927,489.1987c0-21.06574.21327-42.13369-.13853-63.19946-.10773-6.0992,1.28183-8.29129,7.82519-8.13958,19.07813.45292,38.17166.13413,57.25858.16929,16.14724.03738,28.5831,11.51238,29.17455,27.51456.442,12.06205.45731,24.17031-.00879,36.228a28.08939,28.08939,0,0,1-27.81137,27.2529c-12.902.31443-25.837.44413-38.73012-.05935-6.54333-.25286-8.08681,2.069-7.87793,8.19236.409,12.33471.32761,24.72-.10115,37.05469-.1759,5.23071-2.1833,10.02607-8.66946,10.61973-5.20873.4815-8.73324-1.95466-10.45923-6.6159-.741-2.00961-.44413-4.437-.44413-6.66427q-.04952-31.17648-.01761-62.353" transform="translate(-577.58758 -417.41895)"/><path class="cls-15" d="M1187.71946,463.61683c0,7.00725.17808,14.02333-.077,21.01739-.14514,4.45018,1.62487,5.84855,5.92108,5.7782,12.88221-.1913,25.77978-.09236,38.65756-.07035,7.57232.0154,11.54761-4.05221,11.76528-11.30572.31221-10.35589.42212-20.75792-.04617-31.10281-.32543-7.15456-4.36882-11.09244-12.07527-10.96274-12.31931.20667-24.65621.25944-36.97116-.03958-5.51654-.13192-7.55474,1.87109-7.2689,7.33486.34516,6.44.09454,12.89757.09454,19.35075m-19.01217,25.31582c0-21.06355.26826-42.14251-.1495-63.19506-.13413-6.50374,1.97-7.97908,8.10879-7.86035,19.07155.376,38.17162.10115,57.25854.15393,15.99775.03737,28.39181,11.72569,28.91068,27.774.39139,11.77843.37381,23.59644.01758,35.3837-.47928,15.73609-12.40728,27.51673-28.106,27.85092q-19.7718.42217-39.5744-.0308c-5.12958-.10333-6.85993,1.56549-6.74124,6.73023.30121,12.06427.28585,24.15052.01758,36.22139-.1407,6.46637-1.43793,12.91958-9.92273,12.82061-7.44477-.08793-9.91831-4.85914-9.87215-11.80922.14292-21.34276.05281-42.68776.05281-64.03934" transform="translate(-577.58758 -417.41895)"/><path class="cls-15" d="M970.35149,491.59528c-.54967-2.72419-.56507-5.70124-1.73256-8.12861-6.77858-14.164-13.61875-28.30827-20.87008-42.23045-3.16174-6.06182-8.13958-6.00026-11.32551.18248-6.9215,13.46043-13.42087,27.14957-19.86526,40.84307-3.32885,7.07321-2.44056,14.241.941,21.09653,6.0794,12.31932,12.27754,24.59686,18.4075,36.89859,1.405,2.81216,2.82534,5.81557,6.52575,5.64625,3.18372-.1451,4.61068-2.73959,5.9079-5.334,6.39823-12.79645,12.8712-25.55328,19.2694-38.33873a25.21042,25.21042,0,0,0,2.74183-10.63509m-74.56452.21988c-.45074-5.09879-.09236-9.96672,1.97664-14.29816,7.74161-16.19345,14.99515-32.67931,23.89547-48.2241,9.54235-16.67495,33.99632-15.45247,42.7933,1.56327,7.33486,14.19919,14.252,28.62927,21.246,42.99779a38.9095,38.9095,0,0,1,.25286,34.93514c-6.29928,13.46264-13.0273,26.72741-19.48488,40.1087-4.9251,10.19979-12.26654,16.48586-24.26706,16.0725-11.39808-.39575-18.612-6.31466-23.38539-16.29238-5.9343-12.40507-12.15663-24.65624-18.4075-36.903-3.26947-6.396-5.28348-12.98769-4.61947-19.95978" transform="translate(-577.58758 -417.41895)"/><path class="cls-15" d="M1080.58333,465.70119c-.73218.0154-1.43793.02859-2.1789.04617-2.57909,8.74864-5.36705,17.4445-7.67788,26.27007-1.87769,7.20734-8.94429,16.864-4.039,20.99538,4.78657,4.017,15.45908.97623,23.5437,1.14552,3.52673.08135,4.19731-1.09274,3.15956-4.50735-4.4282-14.60594-8.55734-29.29325-12.80746-43.94979m35.73989,99.15481c-5.58908.10772-7.86917-3.65865-9.30267-8.16159-1.86448-5.87053-3.95985-11.72787-5.12737-17.7435-.99381-4.99106-3.52673-6.22233-8.144-6.108q-14.71593.35946-29.44721-.00439c-4.38418-.11652-6.62469,1.427-7.69545,5.72542-1.58086,6.23551-3.92026,12.27536-5.488,18.53063-1.62265,6.52136-5.7848,8.95313-11.83781,7.44041-6.9479-1.73477-8.22976-7.30188-6.54772-13.30432,4.05439-14.562,8.57271-28.99865,12.8712-43.4859q11.84987-39.85365,23.669-79.7183c1.20047-4.10059,2.43616-8.52,7.126-9.62592,5.72542-1.361,10.70988-.03959,12.59858,6.51035q18.41958,63.75132,36.74906,127.529c1.98317,6.96987-2.60767,12.62934-9.42366,12.41607" transform="translate(-577.58758 -417.41895)"/><path class="cls-15" d="M795.01275,670.10529a34.14226,34.14226,0,0,1-18.13928-4.87011,35.28111,35.28111,0,0,1-12.6689-13.26917,38.28878,38.28878,0,0,1-4.67445-18.95061,37.27927,37.27927,0,0,1,4.87233-19.07813,35.80446,35.80446,0,0,1,13.27574-13.27356,37.06526,37.06526,0,0,1,18.9396-4.87451,36.42087,36.42087,0,0,1,18.74173,4.87451,36.02942,36.02942,0,0,1,13.2076,13.27356,38.36035,38.36035,0,0,1,5.00864,19.07813l-4.53592,2.13714a35.66557,35.66557,0,0,1-4.46558,17.81385,33.60178,33.60178,0,0,1-12.139,12.54356A33.22916,33.22916,0,0,1,795.01275,670.10529Zm1.60286-10.26789a25.39827,25.39827,0,0,0,13.20761-3.47392,24.50167,24.50167,0,0,0,9.20816-9.61053,30.11163,30.11163,0,0,0,0-27.54971,25.92783,25.92783,0,0,0-35.62337-9.59952,26.22851,26.22851,0,0,0-9.34226,9.59952,29.09548,29.09548,0,0,0,0,27.54971,25.25515,25.25515,0,0,0,22.54986,13.08445Zm31.22154,9.60173a5.72928,5.72928,0,0,1-4.138-1.5369,5.34088,5.34088,0,0,1-1.59625-4.06318V641.82567l2.5351-11.741,8.93772,2.93085v30.82358a5.23414,5.23414,0,0,1-1.67321,4.06318A5.78765,5.78765,0,0,1,827.83715,669.43913Z" transform="translate(-577.58758 -417.41895)"/><path class="cls-15" d="M876.12942,608.8671a5.38694,5.38694,0,0,1-3.74-1.328,4.48485,4.48485,0,0,1-1.46434-3.474,4.682,4.682,0,0,1,1.46434-3.5333,5.18282,5.18282,0,0,1,3.74-1.405h32.95193a5.1618,5.1618,0,0,1,3.73121,1.405,4.67921,4.67921,0,0,1,1.46655,3.5333,4.47915,4.47915,0,0,1-1.46655,3.474,5.361,5.361,0,0,1-3.73121,1.328Zm32.02187,60.572a23.14418,23.14418,0,0,1-21.01078-12.548,27.58127,27.58127,0,0,1-3.13755-13.1966V578.98677a5.75121,5.75121,0,0,1,1.53251-4.138,5.89948,5.89948,0,0,1,8.07144,0,5.62463,5.62463,0,0,1,1.60286,4.138v64.70774a14.874,14.874,0,0,0,3.66525,10.33607,11.93335,11.93335,0,0,0,9.26973,4.06761h3.8697a4.83749,4.83749,0,0,1,3.73121,1.60944,5.85757,5.85757,0,0,1,1.46873,4.13135,5.06067,5.06067,0,0,1-1.80513,4.06318,6.84257,6.84257,0,0,1-4.60407,1.5369h-2.6539Z" transform="translate(-577.58758 -417.41895)"/><path class="cls-15" d="M966.31352,640.75705a5.47916,5.47916,0,0,1-5.74082-5.732V570.98786a5.52464,5.52464,0,0,1,1.60286-4.19731,5.71653,5.71653,0,0,1,4.138-1.53469,5.483,5.483,0,0,1,4.072,1.53469,5.66782,5.66782,0,0,1,1.53469,4.19731V635.025a5.735,5.735,0,0,1-1.53469,4.138A5.41462,5.41462,0,0,1,966.31352,640.75705Zm0,28.68208a5.7508,5.7508,0,0,1-4.138-1.5369,5.36138,5.36138,0,0,1-1.60286-4.06318V602.20286a5.533,5.533,0,0,1,1.60286-4.19952,5.73489,5.73489,0,0,1,4.138-1.53469,5.50017,5.50017,0,0,1,4.072,1.53469,5.67305,5.67305,0,0,1,1.53469,4.19952v61.63619a5.2797,5.2797,0,0,1-5.6067,5.60008Zm56.57477,0a5.561,5.561,0,0,1-4.14014-1.60286,5.44881,5.44881,0,0,1-1.60286-3.99722V629.81636q0-8.12969-3.05623-13.278a19.64831,19.64831,0,0,0-8.21433-7.67126,26.42391,26.42391,0,0,0-11.807-2.53289,25.85057,25.85057,0,0,0-11.21117,2.40318,19.8247,19.8247,0,0,0-8.00109,6.6049,16.48548,16.48548,0,0,0-2.93746,9.67427h-7.60309a28.21488,28.21488,0,0,1,4.33584-15.01274,30.43526,30.43526,0,0,1,11.27495-10.47681,32.27066,32.27066,0,0,1,15.74049-3.86752,35.3123,35.3123,0,0,1,16.8706,3.94009,28.64523,28.64523,0,0,1,11.67731,11.54318q4.271,7.59872,4.27649,18.67356v34.02269a5.48429,5.48429,0,0,1-5.6023,5.60008Z" transform="translate(-577.58758 -417.41895)"/><path class="cls-15" d="M1111.06714,670.10529a37.64886,37.64886,0,0,1-19.14188-4.80194,34.99069,34.99069,0,0,1-13.13946-13.19663,40.58385,40.58385,0,0,1,0-38.29918,34.90448,34.90448,0,0,1,13.13946-13.20539,37.67121,37.67121,0,0,1,19.14188-4.802,37.005,37.005,0,0,1,18.94621,4.802,35.08435,35.08435,0,0,1,13.07565,13.20539,38.91407,38.91407,0,0,1,4.92728,19.20783,37.76639,37.76639,0,0,1-4.80194,19.09135,34.83721,34.83721,0,0,1-13.146,13.19663A37.32975,37.32975,0,0,1,1111.06714,670.10529Zm0-10.26789a25.66853,25.66853,0,0,0,13.34613-3.47392,24.26556,24.26556,0,0,0,9.14-9.53356,28.71,28.71,0,0,0,3.26726-13.81445,29.09881,29.09881,0,0,0-3.26726-13.87161,24.1874,24.1874,0,0,0-9.14-9.60614,27.41965,27.41965,0,0,0-26.67683,0,25.08513,25.08513,0,0,0-9.28073,9.60614,28.15288,28.15288,0,0,0-3.39481,13.87161,27.78534,27.78534,0,0,0,3.39481,13.81445,25.244,25.244,0,0,0,9.28073,9.53356A25.63388,25.63388,0,0,0,1111.06714,659.8374Z" transform="translate(-577.58758 -417.41895)"/><path class="cls-15" d="M1200.45752,669.43913a5.70083,5.70083,0,0,1-4.12914-1.5369,5.33734,5.33734,0,0,1-1.60286-4.06318V602.20286a5.50071,5.50071,0,0,1,1.60286-4.19952,5.71408,5.71408,0,0,1,4.12914-1.53469,5.49834,5.49834,0,0,1,4.07419,1.53469,5.65549,5.65549,0,0,1,1.53469,4.19952v61.63619a5.45867,5.45867,0,0,1-1.53469,4.06318A5.517,5.517,0,0,1,1200.45752,669.43913Zm56.56816,0a5.55783,5.55783,0,0,1-4.13135-1.60286,5.45234,5.45234,0,0,1-1.60286-3.99722V629.81636q0-8.12969-3.06938-13.278a19.49587,19.49587,0,0,0-8.199-7.67126,26.40339,26.40339,0,0,0-11.81144-2.53289,25.78237,25.78237,0,0,0-11.19581,2.40318,19.87192,19.87192,0,0,0-8.01645,6.6049,16.51157,16.51157,0,0,0-2.93089,9.67427h-7.60312a28.20454,28.20454,0,0,1,4.32265-15.01274,30.465,30.465,0,0,1,11.27935-10.47681,32.32791,32.32791,0,0,1,15.75371-3.86752,35.44359,35.44359,0,0,1,16.88164,3.94009,28.644,28.644,0,0,1,11.65973,11.54318q4.271,7.59872,4.28085,18.67356v34.02269a5.39754,5.39754,0,0,1-1.61165,3.99722A5.45279,5.45279,0,0,1,1257.02568,669.43913Z" transform="translate(-577.58758 -417.41895)"/></svg>